<svg width="190" height="413" viewBox="0 0 190 413" fill="none" xmlns="http://www.w3.org/2000/svg">
<path d="M189.287 92.331C184.56 133.906 150.955 170.329 105.84 170.329C60.7238 170.329 33.559 145.894 28.6829 104.34C27.0122 90.1039 24.1692 73.4705 30.0152 64.7435C30.6147 63.8468 42.3466 50.5542 43.0154 49.7131C57.8914 30.9815 78.8533 18.6003 105.837 18.6003C130.204 18.6003 149.559 31.7611 164.526 47.4772C165.147 48.1278 176.516 50.9732 177.126 51.6443C188.784 64.767 191.52 72.6675 189.287 92.331Z" fill="#955442"/>
<path d="M124.675 366.776C113.702 364.431 102.509 364.505 91.1015 366.776V307.668H124.675V366.776Z" fill="#EEEFEF"/>
<path d="M131.371 237.17C131.333 251.476 126.308 268.494 113.969 275.453C111.487 276.857 108.761 277.662 105.974 277.814C103.186 277.965 100.402 277.46 97.806 276.333C92.1892 273.891 87.7848 268.79 84.7499 263.166C81.0196 256.247 79.1065 248.22 78.7308 240.214C78.3684 232.516 79.2237 224.454 82.2239 217.415C84.606 211.824 88.3523 206.983 93.3749 204.123C98.2483 201.353 104.033 200.7 109.383 201.954C114.954 203.294 119.968 206.616 123.649 211.405C127.886 216.85 130.246 223.883 131.03 230.942C131.253 233.01 131.366 235.09 131.365 237.173C131.365 238.802 133.673 238.805 133.668 237.173C133.646 229.04 132.045 220.779 128.091 213.823C124.768 207.982 119.905 203.358 114.057 200.849C108.399 198.432 102.169 198.159 96.3538 200.073C90.6305 202.013 85.837 206.227 82.5197 211.669C78.5549 218.183 76.823 226.084 76.4393 233.832C76.0023 242.594 77.2813 251.485 80.4813 259.538C83.1725 266.307 87.4091 272.596 93.1484 276.535C98.3869 280.133 104.774 281.355 110.755 279.527C124.651 275.275 131.805 258.369 133.321 243.836C133.55 241.619 133.666 239.389 133.668 237.158C133.678 235.54 131.373 235.537 131.371 237.17Z" fill="#6B1F2A"/>
<path d="M101.334 386.281H76.0342V400.72H101.334V386.281Z" fill="#FFEFE1"/>
<path d="M101.198 394.472L101.337 386.281H76.0342V393.748L101.198 394.472Z" fill="#F6B4A9"/>
<path d="M147.313 386.281H122.013V400.72H147.313V386.281Z" fill="#FFEFE1"/>
<path d="M114.782 209.506H94.265C96.2687 204.917 96.5405 200.319 94.265 195.709H114.782C112.901 200.539 113.196 205.102 114.782 209.506Z" fill="#FFEFE1"/>
<path d="M114.782 195.709H101.774C102.183 197.352 102.442 199.036 102.546 200.735C102.712 203.702 102.373 206.676 101.547 209.506H114.782C113.196 205.102 112.901 200.539 114.782 195.709Z" fill="#F6B4A9"/>
<path d="M59.4131 135.564C62.4481 147.128 59.5277 160.582 50.3801 163.483C41.2326 166.384 31.6187 157.622 28.5837 146.052C25.5488 134.483 31.7226 122.368 40.8702 119.464C50.0178 116.56 56.3782 124.001 59.4131 135.564Z" fill="#FFEFE1"/>
<path d="M46.7798 155.6C42.5352 155.6 37.1874 152.259 35.959 143.711C34.8932 136.159 38.0907 129.135 42.9988 127.576C43.5558 127.392 44.1332 127.293 44.7148 127.283C46.9077 127.283 49.9799 130.076 52.037 137.912C53.1295 142.076 53.1721 146.677 52.1489 150.22C51.5787 152.189 50.4409 154.683 48.2507 155.377C47.7724 155.527 47.2772 155.602 46.7798 155.6Z" fill="#F6B4A9"/>
<path d="M154.43 135.564C151.398 147.128 154.318 160.582 163.463 163.483C172.607 166.384 182.224 157.622 185.259 146.052C188.293 134.483 182.122 122.368 172.975 119.464C163.828 116.56 157.465 124.001 154.43 135.564Z" fill="#FFEFE1"/>
<path d="M167.062 155.6C171.309 155.6 175.397 154.187 177.883 143.711C179.639 136.314 175.751 129.135 170.846 127.576C170.288 127.392 169.71 127.293 169.127 127.283C166.937 127.283 163.862 130.076 161.805 137.912C160.712 142.076 160.672 146.677 161.696 150.22C162.263 152.189 163.401 154.683 165.591 155.377C166.07 155.527 166.565 155.602 167.062 155.6Z" fill="#F6B4A9"/>
<path d="M33.4602 267.993L14.8087 241.571L23.1246 230.729L40.26 250.005L59.3458 234.157L71.4187 253.003L48.9676 270.293C46.5922 272.121 43.6785 272.899 40.8055 272.473C37.9324 272.047 35.3103 270.447 33.4602 267.993Z" fill="#FFEFE1"/>
<path d="M59.341 234.148L41.9629 248.572C42.0695 249.495 46.3514 265.088 47.3826 271.289C47.9332 270.997 48.4616 270.657 48.9627 270.272L71.414 252.983L59.341 234.148Z" fill="#F6B4A9"/>
<path d="M161.296 321.274L159.023 309.769C158.989 310.886 158.965 312.067 158.946 312.934C158.84 317.623 156.548 317.183 156.063 314.93L155.315 309.292L126.777 242.058L143.135 223.212L164.925 305.45L167.158 310.698C167.827 314.414 164.494 322.634 161.296 321.274Z" fill="#FFEFE1"/>
<path d="M154.811 267.301L143.13 223.212L126.772 242.058L143.465 281.393C147.084 276.543 150.958 271.922 154.811 267.301Z" fill="#F6B4A9"/>
<path d="M86.6737 242.216C89.9511 246.155 93.2791 250.049 96.8256 253.698C98.331 255.248 99.7832 256.775 101.182 258.442C101.289 258.571 101.401 258.691 101.51 258.817L101.542 258.855C101.39 258.668 101.507 258.803 101.576 258.888L101.632 258.92L101.832 258.97C102.005 258.949 102.328 258.914 102.421 258.899C102.57 258.879 103.151 258.747 103.466 258.647C103.612 258.6 103.753 258.545 103.895 258.495C103.927 258.495 104.033 258.433 104.108 258.395C104.329 258.284 104.545 258.167 104.758 258.038C105.321 257.689 105.862 257.297 106.375 256.866L106.642 256.625C106.799 256.485 106.956 256.332 107.108 256.197C107.374 255.945 107.641 255.69 107.907 255.43C108.507 254.82 109.085 254.187 109.65 253.536C112.155 250.656 114.393 247.508 116.612 244.364C118.651 241.472 120.636 238.503 122.847 235.778C125.533 232.455 128.912 229.8 132.032 226.986C135.052 224.286 138.095 221.621 141.161 218.989C135.656 206.696 122.89 204.044 109.589 204.044H97.3318C83.1085 204.044 73.5269 207.9 68.5549 221.588C75.0377 227.968 80.8011 235.159 86.6737 242.216Z" fill="#FFEFE1"/>
<path d="M109.663 203.786L102.533 203.692C102.317 207.829 101.115 211.831 99.0478 215.296C96.362 219.724 92.4531 222.895 87.9261 224.674C84.8293 227.385 81.5315 229.806 78.0673 231.912C80.969 235.3 83.8041 238.767 86.6631 242.201C89.9405 246.14 93.2685 250.034 96.815 253.683C98.3204 255.233 99.7726 256.76 101.171 258.427C101.278 258.556 101.39 258.676 101.499 258.802L101.531 258.84C101.379 258.653 101.497 258.788 101.566 258.873L101.622 258.905L101.822 258.955C101.995 258.934 102.317 258.899 102.41 258.884C102.56 258.864 103.141 258.732 103.455 258.632C103.602 258.585 103.743 258.53 103.884 258.48C103.916 258.48 104.022 258.418 104.097 258.38C104.318 258.269 104.534 258.152 104.747 258.023C105.311 257.674 105.851 257.282 106.365 256.851L106.631 256.61C106.788 256.47 106.945 256.317 107.097 256.182C107.364 255.93 107.63 255.675 107.897 255.415C108.496 254.805 109.074 254.172 109.639 253.522C112.144 250.641 114.382 247.494 116.602 244.349C118.64 241.457 120.625 238.488 122.837 235.763C125.523 232.44 128.901 229.785 132.021 226.971C135.041 224.272 138.084 221.606 141.15 218.974C135.656 206.71 122.965 203.786 109.663 203.786Z" fill="#F6B4A9"/>
<path d="M168.528 131.863C168.528 155.752 166.663 162.75 159.599 174.214C150.559 188.867 124.819 200.222 106.087 199.835C83.9719 199.375 63.9586 186.774 53.9986 173.868C45.7385 163.172 46.4552 158.864 46.4552 134.117C46.4552 79.513 60.953 31.5998 108.046 31.5998C155.139 31.5998 168.528 77.2566 168.528 131.863Z" fill="#FFEFE1"/>
<path d="M67.1719 76.6266C71.1687 72.9606 75.5838 70.0125 80.5452 68.2542C85.773 66.3992 91.3259 65.9274 96.7988 65.9098C108.286 65.9098 119.938 65.649 131.23 68.3451C136.676 69.6462 142.104 71.7122 146.788 75.0852C151.957 78.8127 156.287 83.8414 159.735 89.4445C161.6 92.4834 163.164 95.7187 164.816 98.8982C165.573 100.352 166.332 101.801 167.095 103.247C162.565 62.1823 146.612 31.5705 108.054 31.5705C70.1695 31.5998 53.383 62.6131 48.2564 103.171C53.2684 93.2805 59.2449 83.9323 67.1719 76.6266Z" fill="#F6B4A9"/>
<path d="M135.048 145.44C143.367 145.44 150.111 137.065 150.111 126.735C150.111 116.404 143.367 108.03 135.048 108.03C126.73 108.03 119.986 116.404 119.986 126.735C119.986 137.065 126.73 145.44 135.048 145.44Z" fill="white"/>
<path d="M79.0052 145.44C87.324 145.44 94.0678 137.065 94.0678 126.735C94.0678 116.404 87.324 108.03 79.0052 108.03C70.6863 108.03 63.9426 116.404 63.9426 126.735C63.9426 137.065 70.6863 145.44 79.0052 145.44Z" fill="white"/>
<path d="M119.519 153.194C119.519 159.688 113.761 164.951 106.66 164.951C99.559 164.951 93.8035 159.676 93.8035 153.194C93.8035 146.712 99.154 148.878 106.255 148.878C113.356 148.878 119.519 146.7 119.519 153.194Z" fill="#FF8BA9"/>
<path d="M117.931 158.73C118.997 157.429 119.53 154.416 119.53 153.194C119.53 146.7 113.367 148.878 106.266 148.878C99.1649 148.878 93.8145 146.7 93.8145 153.194C93.8145 153.971 94.0357 156.807 95.2587 158.61C103.402 152.555 111.43 153.862 117.931 158.73Z" fill="#F7628F"/>
<path d="M78.1124 175.298C86.2559 166.341 86.2559 151.821 78.1124 142.864C69.9689 133.908 56.7656 133.908 48.6221 142.864C40.4786 151.821 40.4786 166.341 48.6221 175.298C56.7656 184.254 69.9689 184.254 78.1124 175.298Z" fill="url(#paint0_radial_8_63)"/>
<path d="M166.655 164.095C168.546 151.601 160.869 139.787 149.509 137.707C138.149 135.628 127.407 144.07 125.516 156.564C123.625 169.059 131.301 180.873 142.662 182.952C154.022 185.032 164.764 176.589 166.655 164.095Z" fill="url(#paint1_radial_8_63)"/>
<path d="M79.1595 143.667C85.6831 143.667 90.9716 136.587 90.9716 127.854C90.9716 119.121 85.6831 112.041 79.1595 112.041C72.6358 112.041 67.3473 119.121 67.3473 127.854C67.3473 136.587 72.6358 143.667 79.1595 143.667Z" fill="#6D1D17"/>
<path d="M73.359 127.022C75.1837 127.022 76.663 125.1 76.663 122.729C76.663 120.358 75.1837 118.436 73.359 118.436C71.5342 118.436 70.055 120.358 70.055 122.729C70.055 125.1 71.5342 127.022 73.359 127.022Z" fill="white"/>
<path d="M82.3625 128.563C82.3625 129.349 81.8722 129.985 81.2674 129.985C80.6625 129.985 80.1749 129.349 80.1749 128.563C80.1749 127.778 80.6652 127.142 81.2674 127.142C81.8696 127.142 82.3625 127.778 82.3625 128.563Z" fill="white"/>
<path d="M134.294 143.213C140.817 143.213 146.106 136.133 146.106 127.4C146.106 118.667 140.817 111.587 134.294 111.587C127.771 111.587 122.482 118.667 122.482 127.4C122.482 136.133 127.771 143.213 134.294 143.213Z" fill="#6D1D17"/>
<path d="M136.926 129.325C137.531 129.325 138.021 128.689 138.021 127.904C138.021 127.119 137.531 126.483 136.926 126.483C136.322 126.483 135.832 127.119 135.832 127.904C135.832 128.689 136.322 129.325 136.926 129.325Z" fill="white"/>
<path d="M140.931 126.032C142.756 126.032 144.236 124.109 144.236 121.738C144.236 119.367 142.756 117.445 140.931 117.445C139.106 117.445 137.627 119.367 137.627 121.738C137.627 124.109 139.106 126.032 140.931 126.032Z" fill="white"/>
<path d="M103.537 392.892L72.0955 392.104L71.3947 290.771L108.539 289.985L102.823 353.225C104.454 368.261 104.747 381.554 103.537 392.892Z" fill="#00C3B9"/>
<path d="M150.324 396.426L116.037 395.641L112.823 357.146L100.996 275.398L134.054 275.949L142.109 354.005L150.324 396.426Z" fill="#00C3B9"/>
<g style="mix-blend-mode:multiply" opacity="0.18">
<path d="M108.539 289.98L91.107 290.349C90.9365 293.488 90.5288 296.609 90.1238 299.727C89.8253 302.039 85.9164 350.131 85.9164 350.38C85.9164 350.746 88.1306 391.269 88.2559 392.514L103.537 392.898C104.747 381.56 104.454 368.282 102.823 353.225L108.539 289.98Z" fill="#084D49"/>
</g>
<g style="mix-blend-mode:multiply" opacity="0.18">
<path d="M106.634 314.367L112.823 357.152L116.037 395.647L131.435 395.998C130.724 391.957 119.666 318.127 120.196 314.915C120.58 312.594 107.79 314.508 106.634 314.367Z" fill="#084D49"/>
</g>
<path d="M96.9828 411.524H62.9967C62.5463 411.523 62.1146 411.326 61.7963 410.976C61.4781 410.625 61.2994 410.15 61.2994 409.655V408.529C61.2994 404.168 62.8746 399.986 65.6784 396.902C68.4822 393.819 72.2849 392.086 76.2501 392.086L81.0462 395.471L77.9421 399.407L98.7067 399.67L101.334 396.781L101.235 406.841C101.234 408.082 100.786 409.271 99.9886 410.149C99.1915 411.027 98.1107 411.521 96.9828 411.524Z" fill="#041635"/>
<path d="M130.577 392.476H138.166C141.94 392.476 145.56 394.125 148.229 397.06C150.898 399.996 152.397 403.977 152.397 408.128C152.397 409.235 151.997 410.296 151.286 411.079C150.574 411.861 149.609 412.301 148.603 412.301H120.14C119.134 412.301 118.169 411.861 117.457 411.079C116.746 410.296 116.346 409.235 116.346 408.128C116.346 403.977 117.845 399.996 120.514 397.06C123.183 394.125 126.803 392.476 130.577 392.476Z" fill="#041635"/>
<path d="M61.342 407.606C61.326 407.899 61.2994 408.219 61.2994 408.529V409.655C61.2994 410.15 61.4781 410.625 61.7963 410.976C62.1146 411.326 62.5463 411.523 62.9967 411.524H96.9828C97.9901 411.521 98.9638 411.126 99.7315 410.409C100.499 409.692 101.011 408.699 101.177 407.606H61.342Z" fill="#E3E4E5"/>
<path d="M116.367 408.377C116.424 409.436 116.845 410.432 117.546 411.161C118.248 411.891 119.175 412.298 120.14 412.301H148.603C149.568 412.298 150.495 411.891 151.197 411.161C151.898 410.432 152.319 409.436 152.376 408.377H116.367Z" fill="#E3E4E5"/>
<path d="M55.9011 271.421L40.5747 245.355L76.0156 208.53L95.131 234.034L55.9011 271.421Z" fill="#00C3B9"/>
<path d="M156.466 260.819L140.806 271.609L127.728 242.134L111.568 227.851L138.003 211.065L142.479 216.659L156.466 260.819Z" fill="#00C3B9"/>
<g style="mix-blend-mode:multiply" opacity="0.18">
<path d="M79.7938 213.574C79.4004 213.845 79.0198 214.139 78.6534 214.453C78.4469 214.647 78.2054 214.792 77.9446 214.878L77.6409 214.922C77.4507 219.783 77.0291 224.629 76.3779 229.442C75.6611 234.424 74.5367 239.365 72.5782 243.948C70.5346 248.719 67.1799 252.027 63.5881 255.377C60.0629 258.671 56.1514 263.046 51.0941 262.58C50.7365 262.546 50.3808 262.491 50.0283 262.416L55.8903 271.427L95.1202 234.04L79.7938 213.574Z" fill="#00C3B9"/>
</g>
<g style="mix-blend-mode:multiply" opacity="0.18">
<path d="M139.466 260.294C136.178 253.598 133.273 246.814 131.552 239.415C129.821 232.106 129.114 224.551 129.455 217.008C129.467 216.808 129.504 216.611 129.564 216.422L111.568 227.851L127.723 242.125L140.828 272.245L144.041 270.39C142.733 266.926 141.089 263.611 139.466 260.294Z" fill="#00C3B9"/>
</g>
<path d="M15.0167 228.243C14.5051 228.554 12.1949 227.546 11.6114 227.397C11.3657 227.334 11.1094 227.343 10.8679 227.423C10.6263 227.502 10.4078 227.65 10.234 227.851C10.0601 228.052 9.93698 228.299 9.87667 228.568C9.81637 228.838 9.82098 229.12 9.89008 229.386L10.1006 230.222C10.1602 230.378 10.1659 230.553 10.1166 230.714C10.0599 230.8 9.98645 230.871 9.90162 230.921C9.81679 230.972 9.7227 231.001 9.62629 231.007C6.97951 231.577 4.32298 232.075 1.65666 232.498C1.30513 232.541 0.971375 232.691 0.692781 232.931C0.414186 233.17 0.201742 233.49 0.0792395 233.855C-0.299126 235.133 0.750705 235.907 1.67797 236.343C5.71209 238.239 10.383 238.453 14.0601 241.082C14.2924 241.284 14.5674 241.418 14.8595 241.472C15.158 241.463 15.4482 241.362 15.6961 241.179C18.2194 239.62 24.9128 235.4 23.9376 232.27C22.6533 228.123 21.9418 224.041 15.0167 228.243Z" fill="#FFEFE1"/>
<path d="M106.754 136.036C108.862 136.036 110.572 134.766 110.572 133.2C110.572 131.633 108.862 130.363 106.754 130.363C104.645 130.363 102.935 131.633 102.935 133.2C102.935 134.766 104.645 136.036 106.754 136.036Z" fill="#F6B4A9"/>
<path d="M123.436 117.665C125.251 113.079 129.05 109.685 133.649 109.167C138.115 108.671 142.405 111.033 145.227 114.767C146.81 116.857 147.826 119.396 148.158 122.093C148.283 123.224 148.957 124.203 150.076 124.203C151.014 124.203 152.122 123.233 151.994 122.093C151.65 118.971 150.631 115.985 149.022 113.385C147.414 110.785 145.262 108.646 142.749 107.147C137.617 104.112 131.366 104.173 126.386 107.59C123.619 109.483 121.436 112.249 120.122 115.529C119.709 116.572 119.855 117.794 120.809 118.415C121.608 118.94 123.018 118.708 123.436 117.659V117.665Z" fill="#6D1D17"/>
<path d="M93.7159 115.101C91.3418 109.111 86.058 105.137 80.1854 104.519C74.6166 103.933 68.9758 107.054 65.5599 111.813C63.5065 114.647 62.2144 118.057 61.8295 121.656C61.7016 122.79 62.7994 123.766 63.748 123.766C64.8884 123.766 65.5412 122.793 65.6665 121.656C66.1994 116.847 69.1916 112.613 73.0126 110.356C74.9425 109.206 77.1159 108.641 79.31 108.718C81.5041 108.796 83.6399 109.514 85.4985 110.799C87.7314 112.329 89.3461 114.608 90.3906 117.231C90.8036 118.274 92.1971 118.515 93.0151 117.987C93.9956 117.357 94.1209 116.15 93.7052 115.101H93.7159Z" fill="#6D1D17"/>
<path d="M69.7033 106.887C71.4139 105.246 73.6441 104.296 75.8317 103.804C78.4938 103.194 81.2533 103.342 83.8492 104.232C85.4707 104.804 86.9808 105.705 88.3017 106.887C88.6827 107.227 89.2289 106.632 88.8346 106.301C84.2676 102.221 77.7795 101.585 72.4265 104.088C71.2312 104.63 70.1215 105.377 69.1384 106.301C68.7654 106.658 69.309 107.253 69.6714 106.887H69.7033Z" fill="#6D1D17"/>
<path d="M124.878 107.106C126.674 105.348 129.232 104.437 131.539 103.927C134.686 103.226 138.006 103.385 140.985 104.765C141.441 104.976 141.638 104.158 141.191 103.95C136.645 101.843 131.15 102.447 126.767 104.783C125.888 105.234 125.069 105.815 124.332 106.509C123.964 106.872 124.508 107.467 124.865 107.095L124.878 107.106Z" fill="#6D1D17"/>
<path d="M59.0105 147.582C59.0105 148.168 48.1632 141.49 46.4446 140.663C46.1782 140.529 46.4446 144.092 46.4446 144.35C46.4446 144.81 57.529 151.45 57.5343 151.89C57.5983 157.751 53.86 167.24 51.8829 170.059C51.1315 171.134 53.0153 172.597 53.9905 173.868C63.9505 186.763 83.9557 199.364 106.079 199.835C124.811 200.222 150.55 188.867 159.591 174.214C166.327 163.298 161.251 175.627 161.429 155.278C161.429 154.741 168.152 146.853 168.458 146.513C168.621 146.337 168.663 142.996 168.663 142.577C168.663 142.577 158.733 151.954 157.624 151.585C152.738 150 136.21 145.399 121.797 142.92C116.583 142.041 113.004 135.916 107.475 135.046C100.052 133.873 97.3796 141.695 91.2805 142.439C76.5643 144.247 59.0105 147.357 59.0105 147.582Z" fill="#E6FFFE"/>
<g style="mix-blend-mode:multiply" opacity="0.31">
<path d="M168.467 146.513C168.629 146.337 168.672 142.996 168.672 142.577C168.672 142.577 158.741 151.955 157.633 151.585C152.746 150 136.218 145.399 121.806 142.92C117.676 142.211 114.577 138.231 110.718 136.18C111.536 137.956 112.029 139.843 111.686 142.023C111.126 145.587 108.8 148.423 106.658 150.993C104.822 153.197 102.789 155.322 101.433 157.889C101.28 158.174 101.14 158.467 101.014 158.768C101.03 158.768 100.881 159.228 100.862 159.284C100.831 159.394 100.807 159.507 100.79 159.621C100.784 159.705 100.784 159.791 100.79 159.876C100.795 159.917 100.802 159.958 100.812 159.999C101.101 161.029 101.588 161.98 102.24 162.786C104.054 165.153 106.282 167.085 108.28 169.256C110.162 171.307 111.92 173.678 112.149 176.691C112.632 182.994 106.002 186.402 102.802 190.44C101.846 191.645 100.894 193.078 100.692 194.716C100.553 195.824 100.902 197.019 101.473 198.115C101.739 198.637 102.048 199.135 102.365 199.625C103.596 199.724 104.833 199.795 106.077 199.821C124.808 200.208 150.548 188.852 159.589 174.2C166.324 163.284 161.249 175.612 161.427 155.263C161.44 154.741 168.16 146.853 168.467 146.513Z" fill="#E4E4E4"/>
</g>
<path d="M66.037 313.154L72.4665 277.402L75.7466 250.612L72.4665 239.693C72.4665 226.418 71.5686 212.111 74.8646 209.392C76.7511 207.836 84.1319 204.381 88.7815 203.255L95.8399 203.214C95.8491 203.372 95.8301 203.531 95.784 203.68L89.413 204.302L104.119 228.66L118.241 204.305L113.535 203.924C113.478 203.648 113.459 203.365 113.477 203.083L119.035 203.528C127.356 206.139 136.109 208.533 138.158 211.291C138.888 212.272 136.381 225.509 136.381 235.766L132.15 247.781L134.953 273.472L142.811 315.501C143.272 318.432 65.7918 316.076 66.037 313.154Z" fill="#00B5A9"/>
<path d="M66.7057 309.406L66.0316 313.154C65.7864 316.084 143.266 318.429 142.818 315.498L141.832 310.223C137.529 312.588 116.216 314.628 66.7057 309.406Z" fill="#2CCBC3"/>
<path d="M112.362 221.881C116.527 214.96 120.95 206.98 122.154 204.501C121.12 204.181 120.081 203.862 119.047 203.537L113.489 203.091C113.471 203.373 113.491 203.657 113.548 203.932L118.253 204.313L104.131 228.668L89.4154 204.322L95.7728 204.079C95.8232 203.801 95.8465 203.518 95.8421 203.235L88.7839 203.276C87.5232 203.597 86.2782 203.988 85.0536 204.448C88.9917 210.198 101.152 233.076 104.345 233.252C105.224 233.301 108.698 228.009 112.375 221.896" fill="#2CCBC3"/>
<path d="M93.0844 368.326C84.2915 372.136 74.8431 371.037 64.9577 366.624L67.5183 266.867L47.974 278.642L41.0889 278.865L11.3954 255.79L24.5661 232.173L39.2717 244.156L75.2667 207.973L88.5894 202.291L95.6823 200.369C95.9808 201.685 96.0953 203.258 95.7676 204.179L92.4503 204.879C91.6989 204.993 91.4351 205.398 91.4671 206.233L93.0844 368.326Z" fill="white"/>
<path opacity="0.55" d="M76.8149 223.751C76.8149 225.826 86.7668 244.982 86.8921 247.078C87.0013 248.909 81.0302 257.824 79.562 260.452C80.2628 262.583 88.8052 309.649 92.6367 323.458L91.4697 206.238C91.4377 205.403 91.7015 204.999 92.4529 204.885L95.7702 204.184C96.0979 203.258 95.9834 201.684 95.6849 200.375L88.8132 202.235C85.8716 207.296 76.8096 222.696 76.8149 223.751Z" fill="#FFCDE7"/>
<path d="M78.062 223.147C78.062 225.222 87.5956 243.88 87.7208 245.976C87.83 247.81 81.9841 257.46 80.5266 260.086C81.2247 262.216 83.327 275.667 84.5634 279.747C88.72 293.467 89.4634 309.552 92.6501 323.466L91.4831 206.247C91.4511 205.412 91.7149 205.008 92.4663 204.893L95.7836 204.193C96.1113 203.267 95.9968 201.693 95.6983 200.383L88.8266 202.244C85.8716 207.296 78.0566 222.092 78.062 223.147Z" fill="white"/>
<path opacity="0.55" d="M85.3648 303.9H68.3864V305.336H85.3648V303.9Z" fill="#FFCDE7"/>
<path opacity="0.55" d="M40.9871 265.862C42.7735 257.188 43.7891 248.343 44.0195 239.453C42.967 240.675 39.7561 243.353 39.3031 244.162C39.1112 244.514 39.3217 247.429 39.399 249.349C39.6148 254.873 39.9746 260.417 40.9871 265.862Z" fill="#FFCDE7"/>
<path d="M116.154 368.326C124.947 372.136 140.263 369.92 150.148 365.507L137.049 266.228L143.22 281.467L147.977 308.873L170.841 303.354L161.499 266.278L141.312 213.662L133.974 207.973L120.651 202.291L113.558 200.369C113.257 201.685 113.143 203.258 113.47 204.179L116.74 205.233C117.457 205.696 117.539 205.82 117.774 206.233L116.154 368.326Z" fill="white"/>
<path opacity="0.55" d="M132.421 223.751C132.421 225.826 122.469 244.982 122.343 247.078C122.234 248.909 128.206 257.824 129.671 260.452C128.973 262.583 120.43 309.649 116.598 323.458L117.766 206.238C117.798 205.403 117.534 204.999 116.782 204.885L113.462 204.184C113.134 203.258 113.249 201.684 113.55 200.375L120.422 202.235C123.364 207.296 132.426 222.696 132.421 223.751Z" fill="#FFCDE7"/>
<path d="M131.187 223.147C131.187 225.222 121.653 243.88 121.528 245.976C121.419 247.81 127.265 257.46 128.723 260.086C128.024 262.216 125.922 275.667 124.686 279.747C120.526 293.467 119.785 309.552 116.598 323.466L117.766 206.247C117.798 205.412 117.534 205.008 116.782 204.893L113.462 204.193C113.134 203.267 113.249 201.693 113.55 200.383L120.422 202.244C123.364 207.296 131.187 222.092 131.187 223.147Z" fill="white"/>
<path opacity="0.55" d="M123.871 305.336H140.849V303.9H123.871V305.336Z" fill="#FFCDE7"/>
<path d="M78.664 237.17C78.7067 226.224 82.3703 214.265 89.7404 206.631C91.3822 204.87 93.3149 203.469 95.4345 202.505C96.7987 201.919 96.2045 199.469 94.8216 200.061C90.4199 201.954 86.9453 205.629 84.2195 209.802C80.9928 214.734 78.7653 220.51 77.5156 226.415C76.7659 229.941 76.3789 233.549 76.3619 237.17C76.3619 238.799 78.6587 238.802 78.664 237.17Z" fill="#6B1F2A"/>
<path d="M113.335 202.74C122.264 207.065 128.043 216.95 130.279 227.109C130.997 230.405 131.362 233.781 131.366 237.17C131.366 238.799 133.674 238.802 133.668 237.17C133.628 225.43 129.49 213.228 121.323 205.395C119.284 203.411 116.983 201.777 114.499 200.551C113.154 199.9 111.981 202.083 113.335 202.74Z" fill="#6B1F2A"/>
<path d="M129.31 259.493C130.223 255.803 128.913 252.198 126.384 251.441C123.855 250.684 121.065 253.062 120.152 256.753C119.239 260.443 120.549 264.048 123.078 264.805C125.607 265.561 128.397 263.183 129.31 259.493Z" fill="#E3E4E5"/>
<path d="M127.753 252.241C127.734 252.967 127.671 253.69 127.563 254.407C127.297 256.092 126.724 257.689 126.114 259.254C125.315 261.305 124.204 263.324 122.578 264.628C122.744 264.712 122.916 264.78 123.092 264.833C125.621 265.589 128.421 263.213 129.325 259.52C130.057 256.566 129.359 253.668 127.753 252.241Z" fill="#CED0D1"/>
<path d="M72.4184 255.435C72.2474 253.908 72.1655 252.37 72.1733 250.831C72.2026 247.778 72.6449 244.513 74.1183 241.864C74.7471 240.736 75.9355 239.429 77.2571 239.625C78.3948 239.795 79.4073 240.921 80.0894 241.853C81.7627 244.147 82.4874 247.034 83.0363 249.856C83.3074 251.219 83.5093 252.597 83.6411 253.985C84.4005 253.888 85.1572 253.774 85.9112 253.648C85.9112 253.536 85.8952 253.422 85.8819 253.311C85.4743 249.542 84.7788 245.542 83.0576 242.201C81.6268 239.423 78.8238 236.129 75.5971 237.337C72.2665 238.585 70.8011 242.905 70.2415 246.392C69.7353 249.507 69.8125 252.666 70.1536 255.793C70.9085 255.668 71.6634 255.548 72.4184 255.435Z" fill="#6B1F2A"/>
<path d="M85.9725 263.482C85.3943 265.578 83.9422 266.999 81.9065 267.084C81.792 267.084 81.68 267.084 81.5655 267.084C81.5921 267.055 81.6241 267.034 81.6507 267.005C82.935 265.627 83.7983 263.869 84.4244 262.041C85.3104 259.35 85.7718 256.512 85.7886 253.651C85.0213 253.78 84.2512 253.896 83.4785 253.999C83.4572 254.729 83.4146 255.465 83.3373 256.189C82.9643 259.705 81.9225 264.048 79.0422 266.07C78.941 266.14 78.8291 266.211 78.7171 266.281C77.7706 265.744 76.9174 265.028 76.1966 264.165C74.2915 261.915 73.3722 258.923 72.8234 255.96C72.7887 255.769 72.7594 255.579 72.7274 255.374C71.9654 255.485 71.2061 255.608 70.444 255.734C70.9769 258.808 71.7762 261.856 73.4548 264.429C74.1951 265.567 75.086 266.576 76.098 267.424C73.9078 268.063 71.4805 267.954 70.9503 265.343C70.6279 263.752 68.4084 264.426 68.7308 266.017C69.5727 270.17 73.9185 270.817 77.0545 269.768C77.6459 269.566 78.2252 269.323 78.7891 269.041C79.6861 269.404 80.6313 269.602 81.5868 269.628C84.7841 269.683 87.2781 267.471 88.1947 264.162C88.6263 262.592 86.4041 261.923 85.9725 263.482Z" fill="#E3E4E5"/>
<path d="M131.379 238.442C131.427 241.665 130.969 244.944 130.612 248.136C130.231 251.538 129.844 254.969 129.2 258.328C128.967 259.701 128.381 260.973 127.51 261.991C126.474 263.195 124.75 264.502 123.178 263.793C121.097 262.858 120.884 259.775 121.187 257.695C121.491 255.614 122.352 252.868 124.193 251.787C126.57 250.392 128.35 253.252 128.635 255.547C128.788 256.901 128.688 258.276 128.34 259.586C127.992 260.897 127.404 262.115 126.612 263.166C125.642 264.391 127.265 266.19 128.24 264.956C129.984 262.7 130.958 259.844 130.993 256.883C131.038 254.055 130.044 250.855 127.617 249.495C125.032 248.051 122.378 249.495 120.812 251.916C119.286 254.366 118.582 257.322 118.819 260.279C119.085 263.227 120.79 266.199 123.673 266.501C125.89 266.732 128.067 265.202 129.45 263.412C131.752 260.435 131.907 256.282 132.381 252.569C132.73 249.847 133.045 247.116 133.306 244.379C133.49 242.418 133.711 240.425 133.681 238.45C133.655 236.824 131.353 236.818 131.377 238.45L131.379 238.442Z" fill="#6B1F2A"/>
<path d="M72.2465 268.003C73.5398 267.335 74.0958 265.641 73.4883 264.218C72.8808 262.796 71.3399 262.184 70.0467 262.852C68.7534 263.521 68.1974 265.215 68.8049 266.638C69.4124 268.06 70.9532 268.672 72.2465 268.003Z" fill="#E3E4E5"/>
<path d="M85.5276 266.258C86.9567 266.258 88.1151 264.984 88.1151 263.412C88.1151 261.841 86.9567 260.567 85.5276 260.567C84.0985 260.567 82.94 261.841 82.94 263.412C82.94 264.984 84.0985 266.258 85.5276 266.258Z" fill="#E3E4E5"/>
<g style="mix-blend-mode:multiply" opacity="0.31">
<path d="M94.1501 367.769L93.0311 368.297L91.4326 206.007C91.4304 205.778 91.4996 205.555 91.6285 205.376C91.7574 205.196 91.9384 205.07 92.1413 205.02L92.9832 204.809L94.1501 367.769Z" fill="#00C3B9"/>
</g>
<path d="M147.974 61.8804C141.046 57.0744 126.109 58.0298 120.726 57.0744C114.992 56.0605 103.94 54.1644 98.1046 53.9652C92.3385 53.7688 76.5219 55.0963 72.6557 59.0554C71.5286 60.2276 82.9381 58.3316 81.4993 58.8972C83.3644 59.3573 88.1313 60.7082 89.4102 60.7082C101.707 61.3618 107.452 62.2556 119.746 62.9091C125.701 63.2256 132.666 62.7713 139.296 62.575C138.416 62.194 148.773 62.4372 147.974 61.8804Z" fill="#874435"/>
<path d="M81.1415 56.9983C68.7782 62.9911 60.3851 75.7152 52.8979 88.0819C49.2528 94.1069 45.6788 100.183 42.1759 106.309C42.938 90.3881 47.806 75.0148 53.9903 60.5939C55.9833 55.9491 58.2002 51.2574 61.7173 47.8903C65.2345 44.5232 70.3796 42.7268 74.6907 44.699C78.4583 46.4221 81.0855 50.6889 85.0503 51.7029" fill="#955442"/>
<path d="M169.024 92.3339C168.901 81.9513 168.592 70.8917 163.26 62.3259C159.013 55.5097 121.353 39.4683 134.217 54.906C138.941 60.5823 168.965 87.5485 169.024 92.3339Z" fill="#955442"/>
<path d="M84.1931 53.6252C59.0505 55.0084 56.6657 72.0169 53.7614 81.4091C52.9238 84.1253 52.2998 86.9156 51.8962 89.7493C52.2293 89.1954 52.557 88.6357 52.8901 88.0818C59.3143 77.4647 66.4153 66.5985 76.1169 59.9492C76.426 59.7382 82.0029 59.0027 82.3173 58.7975C83.4124 58.0884 97.3213 58.7272 95.3362 58.0913C92.2587 56.9191 87.5958 53.4377 84.1931 53.6252Z" fill="#874435"/>
<path d="M158.366 70.9473C154.718 66.9706 147.254 58.9734 137.076 58.5308C135.03 58.44 136.039 60.2569 133.466 60.7082C135.509 62.7009 139.557 60.925 142.701 63.416C152.136 70.8887 163.322 83.8092 166.884 88.4511C165.104 82.0626 162.711 75.6947 158.366 70.9473Z" fill="#874435"/>
<path d="M157.521 80.9725C159.949 84.5214 162.608 87.872 165.477 90.9977C166.884 92.4981 168.332 93.9506 169.82 95.3553C171.368 96.8205 172.994 98.3561 174.862 99.2734C175.762 99.7159 176.775 98.614 176.01 97.7055C174.678 96.1377 173.042 94.904 171.502 93.6029C169.903 92.249 168.338 90.8365 166.807 89.3654C163.793 86.4998 160.919 83.4606 158.198 80.2604C157.782 79.7622 157.164 80.4596 157.521 80.9725Z" fill="#955442"/>
<path d="M160.196 87.1031C161.141 88.7822 162.447 90.2299 163.643 91.6951C164.928 93.2688 166.255 94.8015 167.592 96.3224C168.93 97.8433 170.196 99.2792 171.557 100.692C172.919 102.104 174.275 103.622 175.916 104.668C176.433 104.997 177.211 104.328 176.82 103.713C175.754 102.051 174.403 100.727 173.089 99.3173C171.704 97.8521 170.286 96.4191 168.887 94.9626C167.488 93.5062 166.18 92.1113 164.819 90.6958C163.457 89.2804 162.199 87.7654 160.691 86.5932C160.625 86.5504 160.549 86.5325 160.473 86.5421C160.397 86.5518 160.326 86.5886 160.271 86.6468C160.216 86.7049 160.18 86.7814 160.168 86.8643C160.157 86.9473 160.17 87.0322 160.206 87.106L160.196 87.1031Z" fill="#955442"/>
<path d="M167.91 97.8813C168.976 98.8923 170.063 99.9033 171.107 100.938C172.152 101.972 173.186 102.989 174.275 103.939C174.475 104.114 174.752 103.736 174.558 103.552C173.519 102.564 172.426 101.644 171.36 100.718C170.233 99.7539 169.122 98.7634 168.011 97.7728C167.942 97.7113 167.838 97.8168 167.907 97.8813H167.91Z" fill="#955442"/>
<path d="M147.721 102.3L141.736 99.9971C140.531 99.534 139.24 99.4081 137.979 99.6308L122.946 102.268C122.762 102.3 122.574 102.282 122.399 102.215C122.223 102.149 122.065 102.035 121.939 101.885C121.812 101.735 121.722 101.553 121.675 101.355C121.628 101.157 121.626 100.949 121.67 100.75L122.735 95.7685C122.851 95.2408 123.113 94.7661 123.487 94.4112C123.86 94.0564 124.325 93.8393 124.816 93.7904L138.845 92.4073C139.447 92.3478 140.052 92.4694 140.596 92.7589L144.451 94.8102C145.294 95.2587 146.016 95.939 146.549 96.7852C147.082 97.6314 147.406 98.6147 147.492 99.6396L147.721 102.3Z" fill="#6D1D17"/>
<path d="M122.104 94.5083C121.599 96.7316 121.183 98.9783 120.856 101.248C120.779 101.782 121.517 102.01 121.597 101.474C121.926 99.2078 122.342 96.9611 122.845 94.7339C122.965 94.2094 122.224 93.9837 122.104 94.5112V94.5083Z" fill="#6D1D17"/>
<path d="M120.974 94.7604C120.649 96.9974 120.323 99.2323 119.996 101.465C119.919 101.999 120.66 102.227 120.737 101.691C121.062 99.456 121.388 97.2211 121.715 94.9861C121.792 94.4527 121.051 94.2242 120.974 94.7604Z" fill="#6D1D17"/>
<path d="M65.6399 102.239L71.7443 100.352C72.9723 99.9713 74.2669 99.9321 75.512 100.237L90.3695 103.895C90.5507 103.939 90.739 103.933 90.9178 103.879C91.0967 103.824 91.2605 103.722 91.395 103.581C91.5295 103.44 91.6305 103.266 91.6891 103.072C91.7477 102.878 91.7621 102.672 91.7311 102.47L90.9317 97.4271C90.8475 96.8922 90.6127 96.3999 90.2603 96.0197C89.9079 95.6395 89.4559 95.3907 88.968 95.3084L75.043 92.9816C74.4451 92.8814 73.8336 92.9614 73.2738 93.2131L69.3116 94.9978C68.4457 95.3883 67.6863 96.0186 67.1073 96.8273C66.5284 97.6361 66.1495 98.5958 66.0076 99.6132L65.6399 102.239Z" fill="#6D1D17"/>
<path d="M90.9103 96.3956C91.2816 98.613 91.5668 100.845 91.7658 103.092C91.8137 103.628 92.5813 103.631 92.5333 103.092C92.329 100.771 92.0349 98.4635 91.6512 96.17C91.5606 95.6366 90.8223 95.8623 90.9103 96.3956Z" fill="#6D1D17"/>
<path d="M92.0188 96.6124L92.6182 103.37C92.6661 103.906 93.4334 103.912 93.3855 103.37L92.786 96.6124C92.7381 96.0761 91.9708 96.0702 92.0188 96.6124Z" fill="#6D1D17"/>
<g style="mix-blend-mode:screen" opacity="0.29">
<g style="mix-blend-mode:screen" opacity="0.29">
<path d="M99.6846 123.297V126.175C99.6846 130.954 97.9584 135.537 94.8858 138.917C91.8131 142.296 87.6458 144.195 83.3004 144.195H65.2375C60.8922 144.195 56.7248 142.296 53.6522 138.917C50.5795 135.537 48.8533 130.954 48.8533 126.175V123.297" fill="white"/>
</g>
</g>
<g style="mix-blend-mode:screen" opacity="0.53">
<g style="mix-blend-mode:screen" opacity="0.53">
<path d="M81.6618 144.195H83.3005C87.6459 144.195 91.8132 142.296 94.8859 138.917C97.9585 135.537 99.6847 130.954 99.6847 126.175V123.297H99.3969C93.2125 129.973 87.3452 136.997 81.6618 144.195Z" fill="white"/>
</g>
</g>
<g style="mix-blend-mode:screen" opacity="0.53">
<g style="mix-blend-mode:screen" opacity="0.53">
<path d="M78.2348 142.099C83.2975 135.652 88.5121 129.349 93.9559 123.297H83.8997C80.4784 127.048 77.0784 130.82 73.5745 134.48C70.4942 137.703 67.3766 140.886 64.3257 144.15C64.6294 144.168 64.9305 144.2 65.237 144.2H76.6068C77.1503 143.497 77.6886 142.782 78.2348 142.099Z" fill="white"/>
</g>
</g>
<path d="M98.392 123.297C98.392 125.777 98.4532 128.215 97.8404 130.624C97.033 133.776 95.4036 136.599 93.1535 138.744C90.8656 140.923 88.0315 142.29 85.0239 142.665C83.759 142.773 82.4898 142.806 81.2216 142.765H68.5704C67.4646 142.765 66.3562 142.765 65.2477 142.765C62.368 142.759 59.5486 141.857 57.1155 140.162C54.2704 138.172 52.1129 135.192 50.9871 131.696C50.1158 128.933 50.1344 126.166 50.1344 123.289C50.1344 121.46 47.5498 121.457 47.5498 123.289C47.5498 126.02 47.5232 128.716 48.192 131.38C49.0925 134.93 50.8921 138.126 53.3812 140.595C55.8702 143.064 58.9461 144.703 62.2501 145.323C63.8222 145.561 65.4092 145.659 66.9956 145.616H80.2491C81.4401 145.616 82.6472 145.648 83.8249 145.616C87.1872 145.506 90.4507 144.341 93.2307 142.258C96.3106 139.927 98.6531 136.597 99.932 132.734C100.95 129.665 100.966 126.521 100.966 123.309C100.966 121.48 98.3813 121.477 98.3813 123.309L98.392 123.297Z" fill="#6B1F2A"/>
<g style="mix-blend-mode:screen" opacity="0.29">
<g style="mix-blend-mode:screen" opacity="0.29">
<path d="M160.852 123.297V126.175C160.852 130.954 159.125 135.537 156.053 138.917C152.98 142.296 148.813 144.195 144.467 144.195H126.405C122.059 144.195 117.892 142.296 114.819 138.917C111.747 135.537 110.02 130.954 110.02 126.175V123.297" fill="white"/>
</g>
</g>
<g style="mix-blend-mode:screen" opacity="0.53">
<g style="mix-blend-mode:screen" opacity="0.53">
<path d="M142.829 144.195H144.467C148.813 144.195 152.98 142.296 156.053 138.917C159.125 135.537 160.852 130.954 160.852 126.175V123.297H160.564C154.369 129.973 148.507 136.997 142.829 144.195Z" fill="white"/>
</g>
</g>
<g style="mix-blend-mode:screen" opacity="0.53">
<g style="mix-blend-mode:screen" opacity="0.53">
<path d="M139.402 142.099C144.465 135.652 149.679 129.349 155.123 123.297H145.067C141.646 127.048 138.246 130.82 134.742 134.48C131.662 137.703 128.544 140.886 125.493 144.15C125.797 144.168 126.098 144.2 126.405 144.2H137.777C138.318 143.497 138.856 142.782 139.402 142.099Z" fill="white"/>
</g>
</g>
<path d="M159.56 123.297C159.56 125.777 159.621 128.215 159.008 130.624C158.201 133.776 156.571 136.599 154.321 138.744C152.033 140.923 149.199 142.29 146.192 142.665C144.927 142.773 143.657 142.806 142.389 142.765H129.743C128.637 142.765 127.529 142.765 126.421 142.765C123.541 142.759 120.721 141.857 118.288 140.162C115.442 138.173 113.285 135.192 112.16 131.696C111.286 128.933 111.305 126.166 111.305 123.289C111.305 121.46 108.72 121.457 108.72 123.289C108.72 126.02 108.693 128.716 109.362 131.38C110.263 134.93 112.062 138.126 114.551 140.595C117.04 143.064 120.116 144.703 123.42 145.323C124.992 145.561 126.579 145.659 128.166 145.616H141.419C142.61 145.616 143.817 145.648 144.995 145.616C148.357 145.506 151.621 144.341 154.401 142.258C157.481 139.927 159.823 136.597 161.102 132.734C162.12 129.665 162.136 126.521 162.136 123.309C162.136 121.48 159.552 121.477 159.552 123.309L159.56 123.297Z" fill="#6B1F2A"/>
<path d="M100.63 127.289H109.098C109.441 127.289 109.77 127.139 110.012 126.872C110.255 126.606 110.391 126.244 110.391 125.867C110.391 125.491 110.255 125.129 110.012 124.862C109.77 124.596 109.441 124.446 109.098 124.446H100.63C100.288 124.446 99.9591 124.596 99.7167 124.862C99.4743 125.129 99.3382 125.491 99.3382 125.867C99.3382 126.244 99.4743 126.606 99.7167 126.872C99.9591 127.139 100.288 127.289 100.63 127.289Z" fill="#6B1F2A"/>
<path d="M39.9723 57.6371C36.1088 61.0687 32.5517 64.7318 30.612 69.8836C29.6123 72.5565 29.1261 75.428 29.1838 78.3175C29.2215 79.6933 29.3488 81.0644 29.5648 82.4202C29.7913 83.9294 29.9618 85.462 30.4441 86.9009C30.5214 87.1382 30.9024 87.2261 30.953 86.9009C31.1555 85.5939 31.1235 84.2898 31.1795 82.9682C31.2381 81.5498 31.3634 80.1285 31.4833 78.716C31.7124 76.02 32.1121 73.3298 33.0633 70.8213C33.9399 68.5004 35.2295 66.4608 36.4898 64.3743C37.7794 62.2467 39.1916 60.1983 40.5665 58.1382C40.8382 57.7514 40.2894 57.3558 39.9723 57.6371Z" fill="#D18574"/>
<path d="M46.085 6.57938C42.312 9.21685 40.1163 14.4068 40.4121 19.2627C40.4222 19.4303 40.49 19.5875 40.6016 19.7023C40.7131 19.8171 40.8602 19.8809 41.013 19.8809C41.1657 19.8809 41.3128 19.8171 41.4244 19.7023C41.536 19.5875 41.6037 19.4303 41.6138 19.2627C41.8464 17.0625 42.3904 14.9159 43.2259 12.9005C44.1223 10.9024 45.2646 9.04948 46.6206 7.39407C46.935 6.97794 46.554 6.25116 46.085 6.57938Z" fill="#D18574"/>
<path d="M161.489 25.3023C161.274 24.54 160.974 23.8097 160.596 23.1279C159.853 21.7692 158.839 20.6139 157.63 19.749C157.223 19.4559 156.858 20.1446 157.241 20.4464C159.44 22.1813 160.532 24.892 161.02 27.7463C161.097 28.2006 161.71 28.0863 161.729 27.6526C161.775 26.8597 161.694 26.0642 161.489 25.3023Z" fill="#D18574"/>
<path d="M170.902 61.0541C168.594 58.2779 165.751 56.1042 162.581 54.692L162.608 54.6686C163.839 53.5664 164.935 52.2938 165.869 50.8824C165.988 50.661 166.031 50.3997 165.989 50.1464C165.948 49.8931 165.824 49.6648 165.642 49.5035C165.46 49.3421 165.231 49.2585 164.997 49.2679C164.763 49.2774 164.54 49.3792 164.369 49.5549C163.926 50.0706 163.468 50.5717 163.007 51.0699C163.037 50.3402 163.007 49.6047 162.965 48.8809C162.9 47.403 162.729 45.9332 162.453 44.4851C161.899 41.6572 160.854 39.0784 159.09 36.9157C158.733 36.479 158.024 37.0329 158.323 37.537C159.706 39.7641 160.489 42.4074 160.865 45.0595C161.047 46.4002 161.157 47.7516 161.195 49.1065C161.235 50.3109 161.195 51.5388 161.438 52.7168L161.209 52.9572C160.676 53.4993 160.143 54.0209 159.589 54.5191C159.034 55.0173 158.318 55.5096 157.937 56.2569C157.723 56.6759 157.963 57.3148 158.453 57.2825C158.652 57.2793 158.849 57.2478 159.04 57.1888C159.247 57.1046 159.45 57.0067 159.647 56.8957C159.983 56.7038 160.305 56.4854 160.612 56.2422C160.908 56.0254 161.201 55.7997 161.491 55.5682C161.52 55.6057 161.554 55.6382 161.592 55.6649C164.522 57.4232 167.14 59.7482 169.32 62.5281C170.374 63.8966 171.304 65.3758 172.096 66.9444C172.917 68.5649 173.609 70.2294 174.547 71.7738C174.896 72.3599 175.861 72.228 175.829 71.4163C175.669 67.5099 173.25 63.8527 170.902 61.0541Z" fill="#874435"/>
<path d="M160.132 49.2529L159.828 47.9694L159.22 45.3994C159.195 45.3215 159.145 45.2568 159.078 45.218C159.012 45.1792 158.935 45.1691 158.862 45.1897C158.789 45.2102 158.726 45.26 158.685 45.3292C158.643 45.3983 158.627 45.4819 158.639 45.5635C158.818 46.4251 158.999 47.2895 159.173 48.1511C159.263 48.5848 159.351 49.0156 159.439 49.4464C159.535 49.8771 159.652 50.3017 159.791 50.7182C159.812 50.7968 159.86 50.8632 159.925 50.9036C159.99 50.944 160.067 50.9551 160.139 50.9346C160.211 50.9141 160.273 50.8636 160.312 50.7937C160.351 50.7238 160.364 50.64 160.348 50.5599C160.297 50.1203 160.225 49.684 160.132 49.2529Z" fill="#874435"/>
<path d="M173.524 57.2884C172.48 56.7404 171.392 56.2861 170.361 55.7205C169.33 55.155 168.286 54.5894 167.286 53.9446C166.753 53.593 166.3 54.4428 166.785 54.8443C167.715 55.637 168.695 56.3568 169.716 56.9983C170.751 57.6667 171.844 58.2213 172.978 58.654C173.697 58.9031 174.233 57.6606 173.524 57.2884Z" fill="#874435"/>
<path d="M53.1641 44.2595C50.7366 41.4872 48.6023 38.6359 47.302 35.0197C46.7797 33.5539 46.3923 32.0341 46.1456 30.4833V29.0005C46.1456 28.9653 46.0976 28.9653 46.0976 29.0005C46.0976 29.4195 46.0976 29.8386 46.0976 30.2577C45.7763 28.1413 45.7046 25.9882 45.8844 23.8516C45.9511 23.0809 44.8186 22.908 44.6614 23.6553C43.7952 27.7192 44.0419 31.9741 45.3702 35.8842C46.6652 39.7231 48.8608 43.5386 52.0609 45.7511C52.9163 46.3284 53.8542 45.0478 53.1641 44.2595Z" fill="#874435"/>
<path d="M49.3255 34.5421C49.2936 34.5421 49.263 34.556 49.2404 34.5807C49.2178 34.6055 49.2051 34.639 49.2051 34.674C49.2051 34.7089 49.2178 34.7424 49.2404 34.7672C49.263 34.7919 49.2936 34.8058 49.3255 34.8058C49.3574 34.8058 49.388 34.7919 49.4106 34.7672C49.4331 34.7424 49.4458 34.7089 49.4458 34.674C49.4458 34.639 49.4331 34.6055 49.4106 34.5807C49.388 34.556 49.3574 34.5421 49.3255 34.5421Z" fill="#874435"/>
<path d="M46.4712 44.4646C45.1682 41.9649 43.828 39.4828 42.9727 36.7311C42.098 33.9835 41.6205 31.102 41.5578 28.1917C41.5502 28.0961 41.5102 28.0071 41.4459 27.9422C41.3815 27.8774 41.2973 27.8414 41.21 27.8414C41.1227 27.8414 41.0386 27.8774 40.9743 27.9422C40.9099 28.0071 40.87 28.0961 40.8623 28.1917C40.5799 34.0322 41.9894 40.7254 45.8397 44.9862C45.9064 45.0654 45.9975 45.1145 46.0953 45.1242C46.1931 45.1338 46.2907 45.1033 46.3692 45.0384C46.4477 44.9736 46.5015 44.879 46.5204 44.7731C46.5392 44.6671 46.5217 44.5572 46.4712 44.4646Z" fill="#874435"/>
<path d="M46.7538 93.6204C45.2427 95.9813 43.8438 98.4266 42.5625 100.947C41.923 102.207 41.3235 103.493 40.7293 104.777C40.1007 106.034 39.5943 107.361 39.2184 108.736C39.1757 108.927 39.1956 109.128 39.2746 109.304C39.3536 109.481 39.4866 109.621 39.6502 109.7C39.8138 109.779 39.9976 109.792 40.1691 109.737C40.3407 109.682 40.489 109.562 40.588 109.398C41.2904 108.184 41.9034 106.91 42.4212 105.588C42.9542 104.325 43.5377 103.074 44.0919 101.817C45.227 99.2528 46.3861 96.7033 47.5319 94.145C47.5952 94.0315 47.6148 93.895 47.5866 93.7656C47.5584 93.6362 47.4845 93.5244 47.3813 93.4548C47.2782 93.3853 47.1541 93.3636 47.0364 93.3947C46.9188 93.4257 46.8171 93.5069 46.7538 93.6204Z" fill="#874435"/>
<path d="M45.6263 101.536C44.9254 103.092 44.222 104.645 43.5717 106.224C43.2466 107.019 42.9162 107.81 42.5938 108.607C42.2713 109.404 42.0608 110.219 41.7943 111.024C41.6478 111.482 42.3086 111.813 42.5111 111.373C42.8602 110.608 43.2493 109.855 43.5451 109.067C43.8409 108.279 44.134 107.449 44.4271 106.641C45.016 105.026 45.5463 103.388 46.0819 101.753C46.1885 101.462 45.7542 101.254 45.6263 101.536Z" fill="#874435"/>
<path d="M175.892 98.9891C175.309 98.2402 174.686 97.5298 174.027 96.8615C173.356 96.2051 172.695 95.5311 172.005 94.8981L167.851 91.0885C167.342 90.6225 166.591 91.3552 167.089 91.8914L170.987 96.085C171.629 96.7766 172.319 97.4271 172.967 98.0923C173.662 98.7725 174.391 99.4084 175.152 99.9972C175.717 100.431 176.321 99.5136 175.892 98.9891Z" fill="#874435"/>
<path d="M175.967 102.426C175.634 102.075 175.288 101.735 174.942 101.398C174.595 101.061 174.142 100.733 173.732 100.413L171.422 98.5905C171.019 98.2711 170.484 98.9891 170.87 99.3436L173.047 101.336C173.42 101.676 173.78 102.051 174.174 102.356C174.569 102.661 174.974 102.942 175.376 103.235C175.829 103.514 176.354 102.837 175.967 102.426Z" fill="#874435"/>
<path d="M138.648 10.1136C122.73 10.5972 102.093 10.5884 86.1567 9.79126C79.3568 9.45133 73.0605 8.97367 67.1986 4.85342C67.0417 4.73331 66.8913 4.60317 66.7483 4.46366C58.2671 -3.53067 45.0936 -0.424375 40.7451 10.8873C32.7036 31.7962 35.3148 59.2137 59.538 59.2137H76.8069C78.2166 59.2122 79.6232 59.068 81.0088 58.7829C82.3411 59.0613 87.9979 60.7083 89.4101 60.7083C101.707 61.3618 107.452 62.2556 119.746 62.9091C128.677 63.3838 139.887 62.1237 148.818 62.5984C154.073 62.8915 163.079 63.2578 166.106 56.2979C170.636 45.9006 169.74 33.2819 164.867 24.5345C158.752 13.5774 150.692 9.73853 138.648 10.1136Z" fill="#955442"/>
<defs>
<radialGradient id="paint0_radial_8_63" cx="0" cy="0" r="1" gradientUnits="userSpaceOnUse" gradientTransform="translate(55655.6 52545.5) scale(3263.87 3589.61)">
<stop stop-color="#FF8EA4"/>
<stop offset="0.23" stop-color="#FF92A6"/>
<stop offset="0.45" stop-color="#FF9DAA"/>
<stop offset="0.65" stop-color="#FFAFB2"/>
<stop offset="0.85" stop-color="#FFC9BD"/>
<stop offset="1" stop-color="#FFE2C8"/>
</radialGradient>
<radialGradient id="paint1_radial_8_63" cx="0" cy="0" r="1" gradientUnits="userSpaceOnUse" gradientTransform="translate(68684.4 52741.7) scale(3263.85 3589.61)">
<stop stop-color="#FF8EA4"/>
<stop offset="0.23" stop-color="#FF92A6"/>
<stop offset="0.45" stop-color="#FF9DAA"/>
<stop offset="0.65" stop-color="#FFAFB2"/>
<stop offset="0.85" stop-color="#FFC9BD"/>
<stop offset="1" stop-color="#FFE2C8"/>
</radialGradient>
</defs>
</svg>
