<svg width="26" height="25" viewBox="0 0 26 25" fill="none" xmlns="http://www.w3.org/2000/svg">
<path fill-rule="evenodd" clip-rule="evenodd" d="M9.60731 2.35444C9.11543 1.87192 8.53134 1.48902 7.88838 1.2276C7.24543 0.966173 6.5562 0.831345 5.86004 0.830812C5.16389 0.830279 4.47444 0.964057 3.83107 1.2245C3.18769 1.48493 2.60299 1.86693 2.11035 2.34869C1.6177 2.83045 1.22677 3.40254 0.959862 4.03228C0.692952 4.66202 0.555294 5.33708 0.55475 6.01893C0.554206 6.70078 0.690782 7.37605 0.956687 8.0062C1.22259 8.63634 1.61261 9.20902 2.10449 9.69153L16.0081 23.3122C17.0122 24.2664 18.3562 24.8 19.7552 24.8C21.1541 24.8 22.4981 24.2664 23.5022 23.3122C23.9971 22.8319 24.3899 22.2602 24.658 21.6303C24.9261 21.0004 25.0641 20.3247 25.0641 19.6423C25.0641 18.9598 24.9261 18.2841 24.658 17.6542C24.3899 17.0243 23.9971 16.4527 23.5022 15.9723L9.60731 2.35444ZM9.00063 5.19628C9.0804 5.1179 9.17519 5.05571 9.27954 5.01328C9.3839 4.97085 9.49578 4.94901 9.60877 4.94901C9.72176 4.94901 9.83364 4.97085 9.93799 5.01328C10.0424 5.05571 10.1371 5.1179 10.2169 5.19628C10.3795 5.36689 10.4699 5.59156 10.4699 5.82493C10.4699 6.05829 10.3795 6.28296 10.2169 6.45358C10.1371 6.53195 10.0424 6.59413 9.93799 6.63656C9.83364 6.67899 9.72176 6.70082 9.60877 6.70082C9.49578 6.70082 9.3839 6.67899 9.27954 6.63656C9.17519 6.59413 9.0804 6.53195 9.00063 6.45358C8.83808 6.28296 8.74767 6.05829 8.74767 5.82493C8.74767 5.59156 8.83808 5.36689 9.00063 5.19628ZM3.06285 4.53604C2.9362 4.41199 2.84996 4.25395 2.81502 4.08189C2.78008 3.90983 2.79801 3.73148 2.86656 3.56941C2.9351 3.40733 3.05118 3.26881 3.20011 3.17134C3.34903 3.07388 3.52412 3.02186 3.70323 3.02186C3.88234 3.02186 4.05743 3.07388 4.20636 3.17134C4.35528 3.26881 4.47136 3.40733 4.53991 3.56941C4.60845 3.73148 4.62638 3.90983 4.59144 4.08189C4.5565 4.25395 4.47026 4.41199 4.34361 4.53604C4.1699 4.69505 3.941 4.78352 3.70323 4.78352C3.46546 4.78352 3.23656 4.69505 3.06285 4.53604ZM4.07398 7.37788C3.95415 7.26015 3.87263 7.11029 3.8397 6.94721C3.80678 6.78413 3.82394 6.61515 3.88901 6.46162C3.95409 6.30808 4.06415 6.17686 4.20531 6.08456C4.34647 5.99226 4.51239 5.943 4.68212 5.943C4.85185 5.943 5.01776 5.99226 5.15892 6.08456C5.30008 6.17686 5.41014 6.30808 5.47521 6.46162C5.54029 6.61515 5.55744 6.78413 5.52452 6.94721C5.4916 7.11029 5.41008 7.26015 5.29025 7.37788C5.21068 7.4566 5.11597 7.51909 5.01158 7.56174C4.9072 7.60439 4.79522 7.62634 4.68212 7.62634C4.56902 7.62634 4.45704 7.60439 4.35266 7.56174C4.24827 7.51909 4.15355 7.4566 4.07398 7.37788ZM6.30138 10.2857C6.222 10.3648 6.12735 10.4276 6.02294 10.4705C5.91853 10.5133 5.80645 10.5354 5.69324 10.5354C5.58002 10.5354 5.46794 10.5133 5.36353 10.4705C5.25912 10.4276 5.16448 10.3648 5.0851 10.2857C4.99105 10.2165 4.91473 10.1267 4.86217 10.0236C4.80961 9.92047 4.78225 9.80679 4.78225 9.69153C4.78225 9.57628 4.80961 9.46259 4.86217 9.35947C4.91473 9.25635 4.99105 9.1666 5.0851 9.09733C5.246 8.93936 5.46438 8.85046 5.6922 8.85019C5.92002 8.84992 6.13862 8.9383 6.29991 9.09589C6.4612 9.25349 6.55197 9.46738 6.55224 9.69052C6.55252 9.91366 6.46228 10.1278 6.30138 10.2857ZM6.03174 5.46324C5.95188 5.3852 5.88849 5.29252 5.84519 5.1905C5.8019 5.08847 5.77955 4.9791 5.77941 4.86861C5.77928 4.75812 5.80136 4.6487 5.84441 4.54657C5.88745 4.44444 5.9506 4.35161 6.03027 4.27339C6.10994 4.19517 6.20456 4.13309 6.30873 4.09069C6.4129 4.04828 6.52457 4.02638 6.63738 4.02625C6.75018 4.02612 6.86191 4.04774 6.96618 4.0899C7.07045 4.13206 7.16523 4.19392 7.24509 4.27196C7.3397 4.34117 7.41651 4.43106 7.46943 4.53446C7.52234 4.63786 7.5499 4.75193 7.5499 4.8676C7.5499 4.98326 7.52234 5.09733 7.46943 5.20073C7.41651 5.30413 7.3397 5.39402 7.24509 5.46324C7.16557 5.54152 7.07104 5.60364 6.96692 5.64603C6.86281 5.68842 6.75117 5.71024 6.63842 5.71024C6.52567 5.71024 6.41402 5.68842 6.30991 5.64603C6.2058 5.60364 6.11126 5.54152 6.03174 5.46324ZM7.04287 8.37109C6.96285 8.29296 6.89935 8.20013 6.85603 8.09792C6.81271 7.9957 6.79042 7.88612 6.79042 7.77545C6.79042 7.66478 6.81271 7.5552 6.85603 7.45299C6.89935 7.35078 6.96285 7.25795 7.04287 7.17981C7.1139 7.08766 7.20579 7.01291 7.31131 6.96144C7.41684 6.90997 7.53311 6.88319 7.651 6.88319C7.76889 6.88319 7.88517 6.90997 7.99069 6.96144C8.09622 7.01291 8.18811 7.08766 8.25914 7.17981C8.42043 7.33779 8.51104 7.55205 8.51104 7.77545C8.51104 7.99886 8.42043 8.21312 8.25914 8.37109C8.09785 8.52907 7.8791 8.61782 7.651 8.61782C7.4229 8.61782 7.20415 8.52907 7.04287 8.37109ZM10.9584 16.3024L9.19992 14.649C8.47548 13.9383 8.06896 12.9748 8.06979 11.9706C8.07061 10.9663 8.47872 10.0035 9.20432 9.29396C9.92993 8.58442 10.9136 8.18625 11.9389 8.18706C12.9643 8.18787 13.9473 8.58758 14.6717 9.29827L16.4302 11.0206C17.1428 11.7234 17.5428 12.6738 17.5428 13.6644C17.5428 14.6549 17.1428 15.6053 16.4302 16.3081C16.0763 16.6688 15.6517 16.9557 15.1818 17.1517C14.7119 17.3478 14.2065 17.4488 13.6957 17.4488C13.185 17.4488 12.6796 17.3478 12.2097 17.1517C11.7398 16.9557 11.3152 16.6688 10.9613 16.3081L10.9584 16.3024ZM16.6265 20.4015C16.5065 20.5193 16.3535 20.5995 16.1869 20.6321C16.0203 20.6647 15.8475 20.6481 15.6905 20.5845C15.5335 20.5209 15.3993 20.4131 15.3049 20.2747C15.2105 20.1364 15.1601 19.9737 15.1601 19.8073C15.1601 19.6409 15.2105 19.4782 15.3049 19.3399C15.3993 19.2015 15.5335 19.0937 15.6905 19.0301C15.8475 18.9665 16.0203 18.9499 16.1869 18.9825C16.3535 19.0151 16.5065 19.0953 16.6265 19.2131C16.7065 19.291 16.7699 19.3836 16.8132 19.4856C16.8565 19.5875 16.8787 19.6969 16.8787 19.8073C16.8787 19.9177 16.8565 20.0271 16.8132 20.1291C16.7699 20.231 16.7065 20.3236 16.6265 20.4015ZM17.371 18.484C17.2511 18.3663 17.1696 18.2164 17.1367 18.0533C17.1038 17.8902 17.1209 17.7213 17.186 17.5677C17.2511 17.4142 17.3611 17.283 17.5023 17.1907C17.6435 17.0984 17.8094 17.0491 17.9791 17.0491C18.1488 17.0491 18.3148 17.0984 18.4559 17.1907C18.5971 17.283 18.7071 17.4142 18.7722 17.5677C18.8373 17.7213 18.8544 17.8902 18.8215 18.0533C18.7886 18.2164 18.7071 18.3663 18.5872 18.484C18.5077 18.5627 18.4129 18.6252 18.3086 18.6679C18.2042 18.7105 18.0922 18.7325 17.9791 18.7325C17.866 18.7325 17.754 18.7105 17.6496 18.6679C17.5453 18.6252 17.4505 18.5627 17.371 18.484ZM19.5984 21.3919C19.4717 21.5159 19.3103 21.6004 19.1347 21.6346C18.959 21.6688 18.7769 21.6513 18.6114 21.5841C18.446 21.517 18.3045 21.4033 18.205 21.2574C18.1055 21.1116 18.0524 20.9401 18.0524 20.7646C18.0524 20.5892 18.1055 20.4177 18.205 20.2718C18.3045 20.126 18.446 20.0123 18.6114 19.9452C18.7769 19.878 18.959 19.8605 19.1347 19.8947C19.3103 19.9289 19.4717 20.0134 19.5984 20.1374C19.7614 20.3073 19.8521 20.5316 19.8521 20.7646C19.8521 20.9977 19.7614 21.222 19.5984 21.3919ZM19.3287 16.5665C19.1664 16.3963 19.0761 16.1721 19.0761 15.9393C19.0761 15.7064 19.1664 15.4822 19.3287 15.3121C19.4078 15.2331 19.5023 15.1703 19.6064 15.1275C19.7106 15.0847 19.8224 15.0626 19.9354 15.0626C20.0484 15.0626 20.1602 15.0847 20.2644 15.1275C20.3685 15.1703 20.463 15.2331 20.5421 15.3121C20.7057 15.4815 20.7969 15.706 20.7969 15.9393C20.7969 16.1726 20.7057 16.397 20.5421 16.5665C20.4626 16.6448 20.368 16.7069 20.2639 16.7493C20.1598 16.7917 20.0482 16.8135 19.9354 16.8135C19.8227 16.8135 19.711 16.7917 19.6069 16.7493C19.5028 16.7069 19.4082 16.6448 19.3287 16.5665ZM20.3399 19.4772C20.1773 19.3066 20.0869 19.0819 20.0869 18.8486C20.0869 18.6152 20.1773 18.3905 20.3399 18.2199C20.4196 18.1415 20.5144 18.0793 20.6188 18.0369C20.7231 17.9945 20.835 17.9726 20.948 17.9726C21.061 17.9726 21.1729 17.9945 21.2772 18.0369C21.3816 18.0793 21.4764 18.1415 21.5561 18.2199C21.7187 18.3905 21.8091 18.6152 21.8091 18.8486C21.8091 19.0819 21.7187 19.3066 21.5561 19.4772C21.4764 19.5556 21.3816 19.6178 21.2772 19.6602C21.1729 19.7026 21.061 19.7245 20.948 19.7245C20.835 19.7245 20.7231 19.7026 20.6188 19.6602C20.5144 19.6178 20.4196 19.5556 20.3399 19.4772ZM22.5673 22.319C22.4901 22.4125 22.3925 22.488 22.2817 22.5398C22.1709 22.5916 22.0497 22.6185 21.9269 22.6185C21.8041 22.6185 21.6829 22.5916 21.5721 22.5398C21.4613 22.488 21.3637 22.4125 21.2865 22.319C21.2065 22.2409 21.143 22.1481 21.0997 22.0459C21.0563 21.9436 21.0341 21.8341 21.0341 21.7234C21.0341 21.6127 21.0563 21.5032 21.0997 21.4009C21.143 21.2987 21.2065 21.2059 21.2865 21.1278C21.4602 20.9688 21.6891 20.8803 21.9269 20.8803C22.1646 20.8803 22.3935 20.9688 22.5673 21.1278C22.6473 21.2059 22.7108 21.2987 22.7541 21.4009C22.7974 21.5032 22.8197 21.6127 22.8197 21.7234C22.8197 21.8341 22.7974 21.9436 22.7541 22.0459C22.7108 22.1481 22.6473 22.2409 22.5673 22.319Z" fill="white"/>
<path fill-rule="evenodd" clip-rule="evenodd" d="M23.4839 9.39635C23.9783 8.93675 24.3726 8.38694 24.6439 7.77903C24.9152 7.17112 25.058 6.51727 25.0639 5.85567C25.0698 5.19407 24.9388 4.53796 24.6785 3.92563C24.4181 3.31331 24.0337 2.75704 23.5476 2.28929C23.0615 1.82154 22.4835 1.45167 21.8473 1.2013C21.2111 0.950921 20.5295 0.825046 19.8422 0.831013C19.1549 0.83698 18.4758 0.974678 17.8444 1.23606C17.213 1.49744 16.642 1.87727 16.1647 2.35338L13.9235 4.51092L21.2426 11.5539L23.4839 9.39635Z" fill="white"/>
<path fill-rule="evenodd" clip-rule="evenodd" d="M2.09446 16.2531C1.60682 16.7171 1.21956 17.2702 0.955221 17.8802C0.690882 18.4902 0.554749 19.145 0.554749 19.8064C0.554749 20.4678 0.690882 21.1226 0.955221 21.7326C1.21956 22.3427 1.60682 22.8958 2.09446 23.3597C3.07904 24.2834 4.39714 24.8 5.7692 24.8C7.14126 24.8 8.45935 24.2834 9.44394 23.3597L11.6954 21.1808L4.34588 14.0769L2.09446 16.2531Z" fill="white"/>
</svg>
