<svg width="30" height="30" viewBox="0 0 30 30" fill="none" xmlns="http://www.w3.org/2000/svg">
<path fill-rule="evenodd" clip-rule="evenodd" d="M21.51 0C26.595 0 30 3.57 30 8.88V21.135C30 26.43 26.595 30 21.51 30H8.505C3.42 30 0 26.43 0 21.135V8.88C0 3.57 3.42 0 8.505 0H21.51ZM8 18C9.65685 18 11 16.6569 11 15C11 13.3431 9.65685 12 8 12C6.34315 12 5 13.3431 5 15C5 16.6569 6.34315 18 8 18ZM15 18C16.6569 18 18 16.6569 18 15C18 13.3431 16.6569 12 15 12C13.3431 12 12 13.3431 12 15C12 16.6569 13.3431 18 15 18ZM25 15C25 16.6569 23.6569 18 22 18C20.3431 18 19 16.6569 19 15C19 13.3431 20.3431 12 22 12C23.6569 12 25 13.3431 25 15Z" fill="white"/>
</svg>
