<svg width="39" height="26" viewBox="0 0 39 26" fill="none" xmlns="http://www.w3.org/2000/svg">
<path d="M4.9108 5.30379C5.65815 5.30379 18.7368 -4.37974 34.0575 5.30379" stroke="white" stroke-width="2" stroke-linecap="round"/>
<path d="M2.26111 14.7722C7.70772 7.74266 22.3105 -2.09869 37.1488 14.7722C31.7022 21.8017 17.0994 31.6431 2.26111 14.7722Z" stroke="white" stroke-width="2" stroke-linecap="round"/>
<path d="M28.6413 14.7722C28.6413 19.425 24.7637 23.2405 19.9258 23.2405C15.0878 23.2405 11.2102 19.425 11.2102 14.7722C11.2102 10.1194 15.0878 6.30383 19.9258 6.30383C24.7637 6.30383 28.6413 10.1194 28.6413 14.7722Z" stroke="white" stroke-width="2"/>
<path fill-rule="evenodd" clip-rule="evenodd" d="M24.3008 15.3616C23.9098 15.5358 23.4751 15.6329 23.0171 15.6329C21.3098 15.6329 19.9258 14.284 19.9258 12.6202C19.9258 11.8172 20.2481 11.0876 20.7736 10.5476C20.4992 10.4956 20.2157 10.4684 19.9258 10.4684C17.4868 10.4684 15.5096 12.3953 15.5096 14.7722C15.5096 17.1491 17.4868 19.076 19.9258 19.076C22.1596 19.076 24.006 17.4597 24.3008 15.3616Z" fill="white"/>
</svg>
