<svg width="34" height="36" viewBox="0 0 34 36" fill="none" xmlns="http://www.w3.org/2000/svg">
<path d="M25.4726 20.4437C25.6613 20.3675 25.8648 20.2676 26.0763 20.1463M18.5389 21.0383C18.8856 20.1461 21.6625 20.5732 20.9657 20.1463C19.84 19.4566 19.2116 18.7668 18.8383 18.1365M18.8383 18.1365C18.4068 17.408 18.3161 16.7588 18.1922 16.2805C18.1922 15.9831 18.1922 15.091 18.8856 15.091C19.5057 15.091 19.3478 13.6041 19.2323 13.0094C21.0517 8.49967 27.2084 8.99988 29.2606 12.4998C30.5334 14.6705 30.2867 18.4995 26.0763 20.1463M18.8383 18.1365C15.072 18.4339 10.2184 24.0839 22.3524 23.1918M26.0763 20.1463C26.3373 22.3509 24.5713 26.9982 15.4187 27.9497C13.526 28.2203 10.2554 27.506 10.9353 22.8944M11.2585 21.4076C11.1086 21.9433 11.0026 22.4379 10.9353 22.8944M10.9353 22.8944C9.30958 22.9456 6.19686 22.6461 6.75156 21.0383C7.30625 19.4306 7.90717 18.8304 8.13829 18.7312C8.36942 18.6321 8.83167 18.7312 9.17835 19.0286L9.87173 19.6234L10.1476 19.9207M8.83167 21.4076C9.17668 20.9523 9.63953 20.4114 10.1476 19.9207M14.032 24.0839C14.3216 23.4044 14.6578 21.5015 13.6853 19.326C12.9894 17.7695 11.4254 18.6867 10.1476 19.9207" stroke="white" stroke-linecap="round"/>
<path d="M1.04259 14.5001C1.89768 16.1668 6.41881 18.2959 11.3037 15.0001C14.0402 13.1538 15.5226 11.8886 16.9473 10.5001M1.04259 14.5001C0.2217 23.7001 11.4747 31.3335 16.9473 34.0001C17.2893 33.8335 19.5126 33.0001 25.1561 28.0001C30.5634 23.2095 32.6809 18.1668 32.852 16.0001C33.023 13.6668 32.1337 8.70012 27.2084 7.50012C21.0517 6.00012 17.9734 9.50012 16.9473 10.5001M1.04259 14.5001C1.04259 10.5001 8.22536 2.50023 16.9473 10.5001" stroke="white" stroke-width="2"/>
<ellipse cx="22.0778" cy="15" rx="1.02611" ry="1" fill="white"/>
<ellipse cx="14.8951" cy="1" rx="1.02611" ry="1" fill="#FF8000"/>
<path d="M29.7867 32C29.7867 32.8164 29.104 33.5 28.2345 33.5C27.365 33.5 26.6823 32.8164 26.6823 32C26.6823 31.1836 27.365 30.5 28.2345 30.5C29.104 30.5 29.7867 31.1836 29.7867 32Z" stroke="#00C3B9"/>
<ellipse cx="24.1301" cy="4" rx="1.02611" ry="1" fill="#2EAFFF"/>
<path d="M3.56434 3.95764L4.59043 4.95765M5.61654 5.95765L4.59043 4.95765M4.59043 4.95765L5.61654 3.95765M4.59043 4.95765L3.56431 5.95763" stroke="#00C3B9" stroke-linecap="round"/>
</svg>
