<svg width="22" height="30" viewBox="0 0 22 30" fill="none" xmlns="http://www.w3.org/2000/svg">
<path d="M20.9767 5.99877C22.583 9.25876 22.2186 13.0963 20.4399 16.215C18.9806 18.7738 16.803 20.89 15.0084 23.2325C14.188 24.305 13.3596 25.42 12.7963 26.6413C12.6095 27.0475 12.4478 27.4638 12.2887 27.8813C12.1283 28.2975 11.9918 28.7225 11.8381 29.1413C11.6936 29.5338 11.5253 29.9963 11.0071 30H10.9978C10.3802 29.9988 10.2304 29.3375 10.0766 28.8913C9.70022 27.7988 9.30658 26.75 8.72606 25.735C8.05011 24.555 7.20849 23.4638 6.35361 22.3963L20.9767 5.99877ZM6.4212 9.63126L1.17397 15.515C2.13356 17.44 3.58751 19.0938 4.97917 20.74C5.30655 21.1275 5.63392 21.5175 5.95599 21.91L12.5617 14.5038L12.5233 14.5163C10.2158 15.2675 7.63129 14.1525 6.70219 12.0325C6.57509 11.7447 6.48219 11.4446 6.42518 11.1375C6.34168 10.5913 6.32312 10.1863 6.41988 9.64001L6.4212 9.63126ZM2.37478 3.93627L2.3708 3.94127C-0.209737 7.02377 -0.652418 11.2913 0.890339 14.9038L7.23234 7.79252L7.15547 7.73002L2.37478 3.93627ZM14.5273 0.54502L9.44045 6.24877C9.45215 6.24405 9.4641 6.23988 9.47623 6.23627C11.5969 5.54752 13.9865 6.42377 15.0694 8.26876C15.3027 8.66751 15.4975 9.12251 15.5691 9.57501C15.6592 10.1325 15.6817 10.5413 15.585 11.1L15.581 11.12L20.6652 5.41877C19.3366 3.13333 17.1524 1.39698 14.5392 0.54877L14.5273 0.54502ZM7.64189 7.33502L13.8659 0.35627L13.8036 0.34127C12.8826 0.112952 11.9342 -0.00175438 10.9819 2.02798e-05C9.43992 0.0136412 7.9176 0.327817 6.51054 0.922816C5.10348 1.51781 3.84207 2.38078 2.80553 3.45752L2.78432 3.48002L7.64189 7.33502Z" fill="#525252"/>
</svg>
