<svg width="31" height="39" viewBox="0 0 31 39" fill="none" xmlns="http://www.w3.org/2000/svg">
<path d="M3.8624 29.283C4.1336 28.2976 4.92008 26.0313 5.89641 24.8489C6.34432 24.3065 7.18522 23.6267 8.12719 22.9061M3.8624 29.283C2.2352 30.1698 1.55719 27.9281 1.42159 26.6965C0.909177 20.0252 2.20369 16.6565 4.07474 15.1004M3.8624 29.283C4.00214 29.5527 4.1869 29.8597 4.41665 30.191M25.4229 18.5673C33.8843 34.8256 27.8637 38.5207 24.2025 37.7817C23.0439 37.5186 22.2978 37.1806 19.6149 36.7943M25.4229 18.5673C25.4229 17.2124 24.772 14.2071 22.1684 13.0247M25.4229 18.5673C23.6841 22.1208 17.9889 20.6427 19.2093 17.0751M11.8869 15.1004C12.4738 15.4203 12.9352 15.943 13.1163 16.3505M11.8869 15.1004C11.8869 15.1004 12.9545 10.9205 15.9549 9.55776C17.3526 8.92295 19.5873 8.77285 21.2421 8.76049M11.8869 15.1004C11.2373 14.7464 10.2067 14.3088 9.03804 14.0821M22.1684 13.0247C22.1684 12.9015 19.6161 12.8831 23.3888 12.6552C26.5318 12.4653 26.1249 8.44925 23.3888 8.81876C23.3888 8.81876 22.477 8.75127 21.2421 8.76049M22.1684 13.0247C22.1684 13.0247 20.9481 12.592 20.9481 13.0249C20.9481 14.5776 20.9109 16.4232 19.2093 17.0751M13.1163 16.3505C13.5629 17.355 12.984 18.5177 12.4052 19.3063C12.1889 19.601 11.8671 19.9286 11.4788 20.276M13.1163 16.3505C16.2055 17.4139 18.0763 17.5091 19.2093 17.0751M4.07474 15.1004C4.07474 15.1004 4.56323 10.2377 4.07474 6.17309C3.86784 4.45151 2.12242 2.10852 2.12242 2.10852C1.71562 1 2.52922 1 3.34282 1C7.41084 1 8.63124 1.73901 9.03804 6.17309V10.1276M4.07474 15.1004C5.57026 13.8566 7.43413 13.7708 9.03804 14.0821M9.03804 14.0821V10.1276M9.03804 10.1276C9.44484 7.65112 9.85164 6.17309 11.072 5.06457C12.2924 3.95605 10.1979 2.37037 11.4788 1.73901C13.9926 0.5 12.8777 3.37563 13.9926 3.5C14.6428 3.57252 15.0073 3.5 15.1401 3.21704C15.5595 2.32278 15.1401 1.36951 16.7673 1.36951C18.5588 1.36951 17.5395 2.81413 18.3528 3.21704C22.8276 5.43408 21.2421 8.76049 21.2421 8.76049M4.41665 30.191V36.1031C4.97003 38.6897 7.41084 38.3201 9.03804 36.8421M4.41665 30.191C5.29678 31.4603 6.83708 33.088 9.03804 34.3541M9.03804 36.8421V34.3541M9.03804 36.8421C11.072 38.3201 12.6992 38.3201 13.7969 36.1031M9.03804 34.3541C10.3791 35.1255 11.9654 35.7627 13.7969 36.1031M13.7969 36.1031C14.2661 36.1903 14.7514 36.2581 15.2528 36.3036C17.1274 36.4739 18.5296 36.638 19.6149 36.7943M11.4788 20.276C11.7966 21.0576 11.9984 21.3877 12.4052 22.3423M11.4788 20.276C10.5599 21.0985 9.26927 22.0324 8.12719 22.9061M13.1061 24.2789C12.6993 23.5399 12.6992 23.0323 12.4052 22.3423M12.4052 22.3423C13.3584 22.691 13.5129 23.1704 14.7333 23.1704M8.12719 22.9061L9.39622 26.3638M10.6652 29.8215C8.63124 28.3435 9.03804 27.235 9.39622 26.3638M9.39622 26.3638C10.2095 26.704 10.6652 26.8654 11.4788 27.235M21.2421 20.5838L21.6489 21.0272M27.3441 27.235C26.1237 24.2789 23.3888 25.7569 21.6489 21.0272M21.6489 21.0272C21.2421 22.3423 19.6149 23.5399 21.6489 26.3638M22.8693 29.8215C23.3888 32.7775 20.0217 33.1471 19.6149 36.7943M22.8693 29.8215C24.0897 30.191 24.4965 30.5605 25.4229 31.669M22.8693 29.8215C22.3927 28.4712 22.4625 27.6045 21.6489 26.3638M25.4229 31.669C24.9033 32.408 25.3101 33.5166 24.4965 34.2556M25.4229 31.669C26.9373 32.0385 26.1237 33.1471 27.3441 33.5166M21.6489 26.3638C20.9481 27.6045 20.0217 27.6045 18.8013 27.235" stroke="white" stroke-linecap="round"/>
</svg>
