<svg width="14" height="22" viewBox="0 0 14 22" fill="none" xmlns="http://www.w3.org/2000/svg">
<path d="M13 4.1499H1C0.447715 4.1499 0 4.59762 0 5.1499V21C0 21.5522 0.447716 22 1 22H13C13.5523 22 14 21.5522 14 21V5.1499C14 4.59762 13.5523 4.1499 13 4.1499Z" fill="#FF8000"/>
<path d="M4.60602 5.6799C4.60602 5.75029 4.58637 5.81911 4.54956 5.87764C4.51275 5.93617 4.46043 5.98179 4.39922 6.00873C4.33801 6.03567 4.27065 6.04272 4.20567 6.02898C4.14069 6.01525 4.081 5.98135 4.03416 5.93157C3.98731 5.8818 3.9554 5.81838 3.94247 5.74934C3.92955 5.68029 3.93618 5.60873 3.96154 5.54369C3.98689 5.47865 4.02983 5.42307 4.08492 5.38396C4.14001 5.34485 4.20477 5.32397 4.27103 5.32397C4.35978 5.3243 4.4448 5.36191 4.50756 5.42859C4.57031 5.49526 4.6057 5.5856 4.60602 5.6799Z" fill="white"/>
<path d="M9.8657 5.6799C9.86593 5.75065 9.84638 5.81988 9.80953 5.87881C9.77269 5.93774 9.72019 5.98371 9.65871 6.0109C9.59724 6.03809 9.52955 6.04527 9.46423 6.03153C9.39891 6.01778 9.33891 5.98374 9.29182 5.93371C9.24474 5.88369 9.2127 5.81993 9.19976 5.75053C9.18683 5.68112 9.19358 5.6092 9.21917 5.54389C9.24476 5.47857 9.28803 5.4228 9.3435 5.38365C9.39896 5.3445 9.46411 5.32373 9.5307 5.32398C9.61945 5.32431 9.70448 5.36191 9.76724 5.42859C9.82999 5.49526 9.86539 5.5856 9.8657 5.6799Z" fill="white"/>
<path d="M9.53774 5.93211C9.47256 5.93211 9.41004 5.90469 9.36384 5.85583C9.31764 5.80698 9.29153 5.74068 9.29122 5.67143V3.11731C9.29122 2.44556 9.04007 1.80133 8.59301 1.32633C8.14595 0.851333 7.5396 0.584483 6.90736 0.584483C6.27512 0.584483 5.66878 0.851333 5.22172 1.32633C4.77466 1.80133 4.5235 2.44556 4.5235 3.11731V5.67143C4.5235 5.74057 4.49766 5.80687 4.45165 5.85576C4.40564 5.90464 4.34323 5.93211 4.27816 5.93211C4.21309 5.93211 4.15068 5.90464 4.10467 5.85576C4.05866 5.80687 4.03282 5.74057 4.03282 5.67143V3.11731C4.02507 2.71094 4.09371 2.30701 4.23472 1.92918C4.37572 1.55135 4.58627 1.2072 4.85402 0.916903C5.12177 0.626602 5.44134 0.395979 5.79402 0.238537C6.14671 0.0810951 6.52541 0 6.90795 0C7.2905 0 7.6692 0.0810951 8.02188 0.238537C8.37456 0.395979 8.69414 0.626602 8.96189 0.916903C9.22964 1.2072 9.44017 1.55135 9.58118 1.92918C9.72219 2.30701 9.79084 2.71094 9.78309 3.11731V5.67143C9.78309 5.74057 9.75724 5.80687 9.71123 5.85576C9.66522 5.90464 9.60281 5.93211 9.53774 5.93211Z" fill="#414143"/>
<path d="M9.95517 11.032C9.23526 11.0318 8.54229 11.327 8.01715 11.8576C7.49202 12.3883 7.17415 13.1145 7.12817 13.8887H12.7797C12.7337 13.115 12.4162 12.3891 11.8916 11.8585C11.367 11.328 10.6747 11.0324 9.95517 11.032Z" fill="white"/>
<path d="M7.12817 14.2356C7.16534 15.0161 7.47926 15.7515 8.00512 16.2898C8.53098 16.8281 9.2286 17.1283 9.95393 17.1283C10.6793 17.1283 11.3769 16.8281 11.9027 16.2898C12.4286 15.7515 12.7425 15.0161 12.7797 14.2356H7.12817Z" fill="white"/>
<path d="M4.73757 8.80005C4.25437 8.80076 3.79118 9.00809 3.44973 9.37652C3.10829 9.74494 2.9165 10.2443 2.9165 10.765V16.6813C2.93387 17.1881 3.13295 17.668 3.47187 18.02C3.81079 18.3719 4.26316 18.5686 4.73386 18.5686C5.20456 18.5686 5.65692 18.3719 5.99585 18.02C6.33477 17.668 6.53384 17.1881 6.55121 16.6813V10.765C6.55187 10.2455 6.36132 9.74691 6.02134 9.37856C5.68136 9.01021 5.21969 8.80217 4.73757 8.80005ZM6.1647 13.8246H3.30797V10.8238C3.32332 10.4266 3.48052 10.0513 3.74672 9.77615C4.01291 9.50102 4.36748 9.3474 4.73634 9.3474C5.10519 9.3474 5.45976 9.50102 5.72596 9.77615C5.99215 10.0513 6.14935 10.4266 6.1647 10.8238V13.8246Z" fill="white"/>
</svg>
