<svg width="31" height="34" viewBox="0 0 31 34" fill="none" xmlns="http://www.w3.org/2000/svg">
<path d="M22.299 4.46399C19.839 4.86357 17.7066 5.26314 15.1163 4.13157M15.1163 4.13157C14.4653 3.84717 13.7853 3.46607 13.064 2.96394C8.95961 0.963991 5.88122 2.46394 4.34206 3.96394C2.80289 5.29725 0.13506 8.76389 1.77684 13.9639C3.41861 19.1639 8.95961 29.1307 9.47266 29.964C9.98572 30.7973 10.757 32.0329 12.0379 31.964C13.6508 31.8772 14.0875 30.4397 14.0875 28.9397C14.0875 25.9153 14.0875 24.4397 14.6032 21.964C14.8123 20.9601 16.335 19.8289 17.1658 21.4397C17.6815 22.4397 16.7485 27.352 17.6815 30.964C18.1919 32.9397 20.3711 32.7218 21.2729 30.964C23.8355 25.9395 27.4269 18.9396 29.4791 12.9395C31.5313 6.93933 25.3747 -2.06038 15.1163 4.13157Z" stroke="white" stroke-width="2" stroke-linecap="round"/>
<path d="M9.00664 5C7.46748 5.16667 3.8761 8 4.38915 13.5" stroke="white" stroke-width="2" stroke-linecap="round"/>
<path d="M26.4166 13C26.4166 13 25.9035 16.5 23.8513 19.4999" stroke="white" stroke-width="2" stroke-linecap="round"/>
<path d="M5.18115 15.8824L5.48819 16.9191" stroke="white" stroke-width="2" stroke-linecap="round"/>
</svg>
