<svg width="211" height="396" viewBox="0 0 211 396" fill="none" xmlns="http://www.w3.org/2000/svg">
<path d="M127.912 224.683C127.876 238.617 122.982 255.192 110.963 261.971C108.546 263.339 105.891 264.123 103.177 264.271C100.462 264.418 97.7501 263.926 95.2224 262.828C89.749 260.45 85.4616 255.481 82.5056 250.003C78.8722 243.264 77.0062 235.446 76.6403 227.648C76.2899 220.15 77.123 212.298 80.0426 205.442C82.3784 199.996 86.0118 195.28 90.9065 192.495C95.6533 189.797 101.288 189.161 106.496 190.382C111.922 191.687 116.806 194.923 120.391 199.588C124.518 204.891 126.817 211.741 127.583 218.617C127.8 220.631 127.908 222.657 127.907 224.685C127.907 226.272 130.155 226.275 130.152 224.685C130.129 216.765 128.572 208.718 124.718 201.942C121.517 196.222 116.723 191.791 111.048 189.306C105.538 186.952 99.4713 186.686 93.808 188.55C88.2308 190.439 83.5619 194.544 80.3333 199.844C76.469 206.19 74.7846 213.885 74.4083 221.432C73.9853 229.966 75.2284 238.626 78.3479 246.47C80.9666 253.063 85.0801 259.188 90.6833 263.025C95.7856 266.53 102.006 267.72 107.835 265.939C121.367 261.797 128.338 245.331 129.815 231.176C130.036 229.016 130.149 226.845 130.152 224.671C130.16 223.096 127.918 223.093 127.912 224.683Z" fill="#6B1F2A"/>
<path d="M183.007 33.4328C193.498 52.4881 195.776 74.5348 193.98 96.0249C192.332 115.737 182.844 141.568 190.817 160.432C194.424 168.967 202.477 175.729 211 174.904C208.182 189.198 198.732 201.711 186.472 207.383C174.212 213.054 159.481 211.727 148.21 203.958C143.302 200.564 139.02 195.966 136.186 190.42C133.313 184.777 132.01 178.326 131.284 171.907C126.771 132.032 143.144 92.8595 144.553 52.7079C144.761 46.8138 144.642 40.8711 143.575 35.0911C142.646 30.1033 141.023 25.303 138.763 20.8596C137.691 18.7474 131.237 11.1549 131.868 9.38523C134.839 1.00498 167.135 4.58999 183.007 33.4328Z" fill="#874435"/>
<path d="M161.495 148.904C163.818 153.248 166.037 157.803 166.883 162.81C167.584 166.937 167.171 171.344 165.256 175.029C164.243 177.029 162.743 178.677 160.924 179.79C160.504 180.044 160.88 180.752 161.303 180.501C164.706 178.463 166.805 174.587 167.586 170.511C168.505 165.713 167.555 160.843 165.855 156.388C164.779 153.67 163.538 151.036 162.142 148.501C162.091 148.407 162.009 148.338 161.913 148.311C161.817 148.283 161.715 148.299 161.629 148.354C161.543 148.409 161.481 148.5 161.456 148.605C161.431 148.711 161.445 148.824 161.495 148.918V148.904Z" fill="#955442"/>
<path d="M47.983 145.373C44.6093 149.752 43.5272 155.823 43.3118 161.414C43.0964 167.006 44.1837 172.831 47.8506 176.904C49.6231 178.874 51.9016 180.307 54.4136 180.698C54.8834 180.772 55.0858 179.979 54.6109 179.904C50.2174 179.219 46.7737 175.36 45.2529 170.919C44.3161 168.185 43.9943 165.253 44.0358 162.356C44.0696 159.59 44.3839 156.837 44.9727 154.147C45.6267 151.187 46.7036 148.31 48.5098 145.97C48.8212 145.57 48.2944 144.985 47.9908 145.399L47.983 145.373Z" fill="#955442"/>
<path d="M98.6585 369.918H74.0164V383.982H98.6585V369.918Z" fill="#FFEFE1"/>
<path d="M98.6092 378.236L98.6585 369.918H74.0164V377.445L98.6092 378.236Z" fill="#F6B4A9"/>
<path d="M143.442 369.918H118.801V383.982H143.442V369.918Z" fill="#FFEFE1"/>
<path d="M183.451 91.0526C183.451 141.511 148.732 182.413 105.905 182.413C63.0774 182.413 28.3578 141.511 28.3578 91.0526C28.3578 41.302 61.1128 1.11049 103.102 0.000168265C103.699 -0.0169576 104 1.27891 104.599 1.27891C104.999 1.27891 107.69 0.174285 108.087 0.182848C150.369 0.924968 183.451 41.0651 183.451 91.0526Z" fill="#955442"/>
<path d="M30.1901 86.8852C32.0898 71.9715 35.3027 63.5712 41.3653 50.0047C48.7347 33.6665 60.0187 19.8501 74.0009 10.0444C76.4987 8.26366 79.1213 6.70411 81.8438 5.38047C84.9081 3.98376 88.0515 2.80721 91.2543 1.85825C92.7647 1.38443 94.2778 0.92489 95.7934 0.468201C57.7441 6.30241 28.3578 44.6329 28.3578 91.0525C28.3611 94.6257 28.5518 98.1957 28.9287 101.745C29.1779 98.8334 29.8241 89.7738 30.1901 86.8852Z" fill="#D18574"/>
<path d="M111.757 197.738H91.7603C93.7145 193.268 93.9766 188.79 91.7603 184.3H111.757C109.925 189.004 110.213 193.448 111.757 197.738Z" fill="#FFEFE1"/>
<path d="M111.757 184.3H99.0831C99.4836 185.9 99.7357 187.54 99.8357 189.195C99.9969 192.085 99.6669 194.982 98.8624 197.738H111.757C110.213 193.448 109.924 189.004 111.757 184.3Z" fill="#F6B4A9"/>
<path d="M57.8242 125.718C60.7802 136.981 57.9358 150.085 49.0263 152.911C40.1168 155.737 30.7531 147.203 27.7997 135.934C24.8463 124.665 30.8544 112.865 39.7639 110.037C48.6733 107.208 54.8708 114.455 57.8242 125.718Z" fill="#FFEFE1"/>
<path d="M45.5231 145.233C41.3862 145.233 36.167 141.979 34.9809 133.653C33.9428 126.298 37.0572 119.456 41.8378 117.937C42.3812 117.758 42.9445 117.662 43.5117 117.652C45.6451 117.652 48.6401 120.372 50.6437 128.004C51.7078 132.06 51.7467 136.542 50.7501 139.992C50.1973 141.911 49.0891 144.34 46.9557 145.016C46.4898 145.162 46.0075 145.235 45.5231 145.233Z" fill="#F6B4A9"/>
<path d="M150.373 125.718C147.417 136.981 150.262 150.085 159.172 152.911C168.081 155.737 177.445 147.203 180.401 135.934C183.357 124.665 177.344 112.865 168.434 110.037C159.525 107.208 153.33 114.455 150.373 125.718Z" fill="#FFEFE1"/>
<path d="M162.679 145.233C166.813 145.233 170.794 143.857 173.218 133.653C174.929 126.449 171.142 119.456 166.362 117.937C165.818 117.758 165.255 117.662 164.688 117.652C162.554 117.652 159.559 120.372 157.558 128.004C156.494 132.06 156.453 136.542 157.449 139.993C158.005 141.911 159.113 144.34 161.246 145.016C161.712 145.162 162.194 145.235 162.679 145.233Z" fill="#F6B4A9"/>
<path d="M32.549 254.704L14.382 228.97L22.4819 218.409L39.1747 237.185L57.7621 221.749L69.5213 240.105L47.6561 256.945C45.3422 258.726 42.5037 259.485 39.7047 259.069C36.9057 258.654 34.3511 257.096 32.549 254.704Z" fill="#FFEFE1"/>
<path d="M57.7545 221.74L40.8307 235.789C40.9346 236.688 45.1025 251.876 46.1095 257.915C46.6455 257.631 47.16 257.299 47.6485 256.925L69.5136 240.085L57.7545 221.74Z" fill="#F6B4A9"/>
<path d="M157.055 306.601L154.841 295.395C154.81 296.483 154.787 297.633 154.766 298.478C154.662 303.045 152.43 302.617 151.958 300.422L151.231 294.93L123.433 229.444L139.368 211.088L160.59 291.188L162.78 296.3C163.422 299.919 160.185 307.926 157.055 306.601Z" fill="#FFEFE1"/>
<path d="M160.59 291.188L159.167 285.822C155.909 287.447 152.565 288.856 149.154 290.041L151.23 294.93L151.96 300.422C152.442 302.617 154.664 303.053 154.768 298.478C154.789 297.622 154.809 296.48 154.843 295.395L157.057 306.601C160.172 307.926 163.424 299.919 162.767 296.303L160.59 291.188Z" fill="#018B84"/>
<path d="M150.746 254.031L139.368 211.088L123.433 229.444L139.695 267.757C143.217 263.033 146.99 258.532 150.746 254.031Z" fill="#F6B4A9"/>
<path d="M84.3767 229.598C87.5689 233.434 90.8104 237.227 94.2648 240.781C95.7337 242.291 97.1481 243.778 98.5081 245.402C98.6119 245.528 98.7209 245.645 98.8273 245.768L98.861 245.805C98.7105 245.622 98.8247 245.753 98.8922 245.836L98.9466 245.867L99.1439 245.916C99.31 245.896 99.6266 245.862 99.7148 245.847C100.057 245.785 100.397 245.703 100.732 245.602C100.875 245.556 101.012 245.502 101.153 245.454C101.184 245.454 101.285 245.394 101.36 245.357C101.573 245.248 101.786 245.134 101.993 245.008C102.541 244.668 103.066 244.286 103.566 243.867L103.841 243.633C103.994 243.496 104.145 243.347 104.295 243.216C104.555 242.97 104.815 242.722 105.059 242.468C105.643 241.874 106.209 241.26 106.756 240.624C109.195 237.818 111.378 234.753 113.537 231.69C115.523 228.873 117.459 225.981 119.613 223.327C122.226 220.09 125.517 217.504 128.559 214.764C131.5 212.134 134.463 209.538 137.448 206.975C132.088 195.001 119.654 192.418 106.696 192.418H94.7578C80.9068 192.418 71.5716 196.174 66.7288 209.506C73.0431 215.72 78.6593 222.725 84.3767 229.598Z" fill="#FFEFE1"/>
<path d="M106.769 192.166L99.8239 192.075C99.6144 196.105 98.4437 200.004 96.4293 203.378C93.8159 207.691 90.006 210.779 85.5967 212.512C82.5803 215.153 79.3683 217.511 75.9941 219.562C78.823 222.862 81.5844 226.238 84.3665 229.583C87.5587 233.42 90.8001 237.213 94.2545 240.767C95.7234 242.277 97.1378 243.764 98.4978 245.388C98.6016 245.513 98.7106 245.63 98.817 245.753L98.8507 245.79C98.7002 245.608 98.8144 245.739 98.8819 245.822L98.9363 245.853L99.1336 245.902C99.2997 245.882 99.6163 245.847 99.7045 245.833C100.047 245.77 100.387 245.688 100.722 245.588C100.865 245.542 101.002 245.488 101.142 245.439C101.173 245.439 101.275 245.379 101.35 245.342C101.563 245.234 101.776 245.119 101.983 244.994C102.531 244.653 103.056 244.272 103.556 243.852L103.831 243.618C103.984 243.481 104.135 243.333 104.285 243.201C104.545 242.956 104.804 242.708 105.048 242.454C105.633 241.86 106.199 241.245 106.746 240.61C109.185 237.804 111.368 234.738 113.527 231.676C115.512 228.858 117.448 225.967 119.602 223.313C122.216 220.076 125.507 217.49 128.548 214.75C131.49 212.12 134.453 209.523 137.437 206.96C132.088 195.015 119.727 192.166 106.769 192.166Z" fill="#F6B4A9"/>
<path d="M164.106 122.113C164.106 145.381 162.29 152.197 155.407 163.364C146.601 177.635 121.53 188.695 103.285 188.319C81.7445 187.871 62.2537 175.597 52.5499 163.027C44.5045 152.609 45.2026 148.413 45.2026 124.308C45.2026 71.1238 59.3237 24.4559 105.196 24.4559C151.068 24.4559 164.106 68.926 164.106 122.113Z" fill="#FFEFE1"/>
<path d="M48.4425 110.345C50.5733 109.626 52.5509 108.421 54.4506 107.071C57.975 104.568 61.1438 101.485 64.1336 98.2597C67.4183 94.7478 70.3537 90.8611 72.89 86.6655C79.2511 76.0703 85.3708 59.835 88.6356 47.6785C89.0145 46.2514 96.0322 86.0318 135.61 104.839C144.359 108.998 156.891 112.083 164.093 109.038C161.498 63.283 146.331 24.4559 105.181 24.4559C63.2019 24.4559 47.8248 63.5428 45.5073 110.941C46.5052 110.885 47.4921 110.684 48.4425 110.345Z" fill="#F6B4A9"/>
<path d="M131.493 135.337C139.596 135.337 146.164 127.18 146.164 117.118C146.164 107.056 139.596 98.8992 131.493 98.8992C123.391 98.8992 116.823 107.056 116.823 117.118C116.823 127.18 123.391 135.337 131.493 135.337Z" fill="white"/>
<path d="M76.9076 135.337C85.0102 135.337 91.5786 127.18 91.5786 117.118C91.5786 107.056 85.0102 98.8992 76.9076 98.8992C68.805 98.8992 62.2365 107.056 62.2365 117.118C62.2365 127.18 68.805 135.337 76.9076 135.337Z" fill="white"/>
<path d="M116.369 142.89C116.369 149.215 110.763 154.341 103.847 154.341C96.9301 154.341 91.3243 149.204 91.3243 142.89C91.3243 136.576 96.5356 138.685 103.449 138.685C110.363 138.685 116.369 136.565 116.369 142.89Z" fill="#FF8BA9"/>
<path d="M114.822 148.282C115.873 147.014 116.379 144.08 116.379 142.89C116.379 136.565 110.376 138.685 103.46 138.685C96.5434 138.685 91.3347 136.565 91.3347 142.89C91.3347 143.646 91.5474 146.409 92.7413 148.165C100.67 142.268 108.489 143.541 114.822 148.282Z" fill="#F7628F"/>
<path d="M76.0381 164.421C83.9698 155.698 83.9698 141.554 76.0381 132.831C68.1063 124.107 55.2464 124.107 47.3146 132.831C39.3828 141.554 39.3828 155.698 47.3146 164.421C55.2464 173.144 68.1063 173.144 76.0381 164.421Z" fill="url(#paint0_radial_8_71)"/>
<path d="M162.325 153.439C164.122 141.262 156.603 129.788 145.531 127.811C134.459 125.834 124.026 134.104 122.228 146.281C120.431 158.458 127.95 169.933 139.022 171.909C150.095 173.886 160.528 165.617 162.325 153.439Z" fill="url(#paint1_radial_8_71)"/>
<path d="M77.0607 133.61C83.4147 133.61 88.5656 126.715 88.5656 118.208C88.5656 109.702 83.4147 102.807 77.0607 102.807C70.7067 102.807 65.5558 109.702 65.5558 118.208C65.5558 126.715 70.7067 133.61 77.0607 133.61Z" fill="#6D1D17"/>
<path d="M71.4108 117.398C73.1882 117.398 74.629 115.526 74.629 113.216C74.629 110.907 73.1882 109.035 71.4108 109.035C69.6335 109.035 68.1927 110.907 68.1927 113.216C68.1927 115.526 69.6335 117.398 71.4108 117.398Z" fill="white"/>
<path d="M79.1131 120.284C79.7019 120.284 80.1792 119.664 80.1792 118.899C80.1792 118.135 79.7019 117.515 79.1131 117.515C78.5243 117.515 78.047 118.135 78.047 118.899C78.047 119.664 78.5243 120.284 79.1131 120.284Z" fill="white"/>
<path d="M130.762 133.168C137.116 133.168 142.267 126.272 142.267 117.766C142.267 109.26 137.116 102.364 130.762 102.364C124.408 102.364 119.257 109.26 119.257 117.766C119.257 126.272 124.408 133.168 130.762 133.168Z" fill="#6D1D17"/>
<path d="M134.39 118.257C134.39 119.022 133.913 119.641 133.324 119.641C132.736 119.641 132.261 119.022 132.261 118.257C132.261 117.492 132.738 116.873 133.324 116.873C133.911 116.873 134.39 117.492 134.39 118.257Z" fill="white"/>
<path d="M137.224 116.433C139.002 116.433 140.442 114.561 140.442 112.252C140.442 109.942 139.002 108.07 137.224 108.07C135.447 108.07 134.006 109.942 134.006 112.252C134.006 114.561 135.447 116.433 137.224 116.433Z" fill="white"/>
<path d="M100.802 376.358L70.1781 375.59L69.4955 276.891L105.674 276.126L100.107 337.722C101.695 352.367 101.981 365.314 100.802 376.358Z" fill="white"/>
<path d="M146.373 379.8L112.979 379.035L109.849 341.541L98.3289 261.917L130.526 262.454L138.371 338.481L146.373 379.8Z" fill="white"/>
<g style="mix-blend-mode:multiply" opacity="0.18">
<path d="M105.684 276.12L88.7057 276.48C88.5396 279.537 88.1451 282.577 87.7506 285.614C87.4574 287.866 83.6501 334.708 83.6501 334.95C83.6501 335.307 85.8068 374.777 85.9287 375.99L100.813 376.364C101.991 365.32 101.705 352.387 100.117 337.722L105.684 276.12Z" fill="#009389"/>
</g>
<g style="mix-blend-mode:multiply" opacity="0.18">
<path d="M103.82 299.874L109.849 341.547L112.979 379.041L127.977 379.383C127.282 375.447 116.511 303.536 117.028 300.407C117.402 298.147 104.947 300.011 103.82 299.874Z" fill="#009389"/>
</g>
<path d="M94.4178 394.506H61.3177C60.8785 394.506 60.4574 394.314 60.1468 393.972C59.8363 393.631 59.6619 393.167 59.6619 392.684V391.588C59.6619 389.485 60.0386 387.403 60.7704 385.46C61.5022 383.516 62.5748 381.751 63.927 380.264C65.2792 378.777 66.8845 377.597 68.6513 376.792C70.4181 375.987 72.3117 375.573 74.224 375.573L78.8955 378.87L75.8719 382.703L96.0996 382.96L98.6559 380.145L98.5625 389.944C98.5611 391.153 98.1241 392.312 97.3472 393.167C96.5703 394.022 95.5169 394.503 94.4178 394.506Z" fill="white"/>
<path d="M127.139 375.953H134.53C138.207 375.953 141.732 377.559 144.332 380.418C146.931 383.277 148.392 387.154 148.392 391.197C148.392 392.275 148.002 393.309 147.309 394.071C146.616 394.834 145.676 395.262 144.696 395.262H116.973C115.993 395.262 115.053 394.834 114.36 394.071C113.667 393.309 113.278 392.275 113.278 391.197C113.278 387.154 114.738 383.277 117.338 380.418C119.937 377.559 123.463 375.953 127.139 375.953Z" fill="white"/>
<path d="M59.6982 390.8C59.6982 391.063 59.6619 391.323 59.6619 391.588V392.684C59.6619 393.167 59.8363 393.631 60.1468 393.972C60.4574 394.314 60.8785 394.506 61.3177 394.506H94.4179C95.3829 394.504 96.3172 394.132 97.0603 393.455C97.8035 392.778 98.3089 391.837 98.4898 390.795L59.6982 390.8Z" fill="#E3E4E5"/>
<path d="M113.296 390.801C113.296 390.932 113.278 391.063 113.278 391.197C113.278 392.275 113.668 393.308 114.361 394.071C115.054 394.833 115.993 395.261 116.973 395.262H144.695C145.675 395.262 146.616 394.834 147.309 394.072C148.003 393.309 148.393 392.276 148.393 391.197C148.393 391.063 148.378 390.932 148.375 390.801H113.296Z" fill="#E3E4E5"/>
<path d="M54.4064 258.044L36.6522 230.777L73.9956 196.788L92.6141 221.629L54.4064 258.044Z" fill="#F3F3F3"/>
<path d="M158.441 245.105L135.14 260.41L124.367 229.518L108.627 215.606L134.372 199.257L138.732 204.706L158.441 245.105Z" fill="#F5F5F5"/>
<g style="mix-blend-mode:multiply" opacity="0.18">
<path d="M77.6784 201.7C77.294 201.964 76.9223 202.25 76.565 202.556C76.3645 202.747 76.1291 202.888 75.8746 202.97L75.5814 203.013C75.3953 207.748 74.9838 212.469 74.3486 217.156C73.6505 222.008 72.5579 226.821 70.6478 231.285C68.6598 235.932 65.3923 239.154 61.8939 242.417C58.4577 245.625 54.6505 249.886 49.7221 249.433C49.3738 249.399 49.0273 249.346 48.684 249.273L54.3936 258.05L92.6012 221.634L77.6784 201.7Z" fill="#00C3B9"/>
</g>
<g style="mix-blend-mode:multiply" opacity="0.18">
<path d="M135.789 247.206C132.589 240.684 129.76 234.076 128.084 226.869C126.396 219.751 125.707 212.392 126.041 205.045C126.053 204.851 126.088 204.659 126.145 204.474L108.617 215.606L124.37 229.509L135.143 260.402L140.261 257.039C138.981 253.665 137.38 250.437 135.789 247.206Z" fill="#00C3B9"/>
</g>
<path d="M169.644 108.258C169.644 108.258 93.6548 104.776 87.7039 16.4982C87.5819 14.6829 99.6422 12.4708 101.365 12.4194C107.838 12.229 114.288 13.3235 120.407 15.6505C131.17 19.7607 140.406 27.9554 147.844 37.2947C162.946 56.253 172.715 82.8209 169.644 108.258Z" fill="#955442"/>
<path d="M36.9091 110.308C36.9091 110.285 42.0633 78.1169 42.0633 78.1169V67.9299C42.0633 38.3878 63.8374 14.443 90.6956 14.443C91.7078 14.443 89.59 31.3062 89.1255 32.8133C82.2688 55.0027 77.7324 75.8392 64.616 92.4284C58.717 99.8896 51.2738 107.185 42.3124 109.574C41.8738 109.694 36.9091 110.411 36.9091 110.308Z" fill="#955442"/>
<path d="M88.7265 29.2997C88.6694 37.1804 90.1331 45.0269 92.513 52.4367C95.0316 60.2461 98.5255 67.6325 102.894 74.3835C107.046 80.8257 112.003 86.7227 117.77 91.4665C120.578 93.7562 123.584 95.7362 126.744 97.3778C139.032 103.85 152.316 107.723 165.904 108.795C167.036 108.884 168.17 108.954 169.307 109.003C169.787 109.023 169.787 108.201 169.307 108.181C155.776 107.567 142.47 104.167 130.079 98.157C126.672 96.4987 123.332 94.6862 120.249 92.3885C114.386 88.0271 109.32 82.3841 105.048 76.1988C100.541 69.6786 96.8728 62.5057 94.148 54.8828C91.5527 47.6072 89.8165 39.8834 89.5258 32.0484C89.4895 31.1293 89.4791 30.2102 89.4843 29.2911C89.4843 29.1821 89.4449 29.0775 89.3748 29.0005C89.3048 28.9234 89.2097 28.8801 89.1106 28.8801C89.0114 28.8801 88.9164 28.9234 88.8463 29.0005C88.7763 29.0775 88.7369 29.1821 88.7369 29.2911L88.7265 29.2997Z" fill="#955442"/>
<path d="M188.619 49.5281C192.294 57.9483 194.084 67.1877 194.653 76.4699C195.224 85.8292 194.622 95.2284 193.558 104.519C192.385 114.78 190.703 124.962 189.569 135.229C189.005 140.321 188.577 145.433 188.419 150.559C188.339 153.145 188.326 155.731 188.401 158.314C188.466 160.598 188.577 162.907 189.076 165.133C189.473 166.979 190.228 168.708 191.29 170.203C192.353 171.697 193.696 172.921 195.229 173.79C198.175 175.503 201.567 176.119 204.865 176.191C205.698 176.211 206.534 176.191 207.37 176.134C207.847 176.105 207.85 175.277 207.37 175.312C200.856 175.726 192.642 174.036 190.189 166.369C189.493 164.194 189.288 161.877 189.192 159.587C189.086 157.073 189.076 154.552 189.127 152.035C189.234 146.948 189.615 141.874 190.145 136.821C191.206 126.669 192.857 116.607 194.077 106.48C195.19 97.2378 195.893 87.9071 195.509 78.5821C195.125 69.5539 193.693 60.5058 190.5 52.1398C190.111 51.118 189.699 50.1085 189.265 49.1114C189.057 48.6347 188.411 49.0514 188.619 49.5281Z" fill="#874435"/>
<path d="M135.396 184.671C138.251 193.651 141.407 203.204 148.583 209.135C151.568 211.648 155.17 213.117 158.923 213.351C162.485 213.502 166.024 212.667 169.216 210.922C172.854 208.986 175.939 205.99 178.136 202.259C178.396 201.811 177.749 201.403 177.492 201.843C173.773 208.236 167.005 212.458 160.085 212.552C156.512 212.589 153.011 211.443 150.039 209.261C146.743 206.875 144.116 203.478 142.092 199.782C139.473 194.995 137.786 189.7 136.123 184.451C135.964 183.955 135.24 184.166 135.401 184.671H135.396Z" fill="#874435"/>
<path d="M65.6331 34.072C65.6331 32.839 64.1513 31.9656 63.1859 32.4765C62.9291 32.6127 62.6788 32.7633 62.4359 32.9275C63.365 30.1103 63.5596 26.5795 60.8787 25.0867C58.8026 23.945 56.8069 25.1752 55.1693 26.9591C50.5135 29.2426 45.5358 36.0672 47.067 41.1336C48.1725 44.8014 51.8993 44.6815 54.4789 43.1516C56.0123 42.216 57.3907 41.002 58.556 39.5609C58.556 39.6322 58.556 39.6979 58.556 39.7664C58.5171 41.479 60.0171 42.535 61.3822 41.6017C62.3505 40.9253 63.2136 40.082 63.9384 39.1042C65.3217 38.1137 65.6461 35.8731 65.6331 34.072Z" fill="#D18574"/>
<path d="M66.5577 35.9102C65.8388 36.7209 65.0004 37.6914 64.9719 38.8845C64.9537 39.4753 65.478 40.1632 66.0672 39.8264C66.6103 39.5241 67.0506 39.0378 67.3233 38.4392C67.5879 37.9258 67.8137 37.3892 67.9981 36.8351C68.3433 35.8103 67.2039 35.1795 66.5577 35.9102Z" fill="#D18574"/>
<path d="M68.5191 36.915L68.0963 37.6315C67.9482 37.8968 67.838 38.1856 67.7695 38.4877C67.7275 38.6079 67.7257 38.7406 67.7645 38.8621C67.8033 38.9836 67.8801 39.086 67.9812 39.1509C68.0823 39.2158 68.201 39.239 68.3162 39.2163C68.4314 39.1936 68.5355 39.1266 68.6099 39.0272C68.7007 38.9273 68.8018 38.8331 68.8874 38.7418C68.988 38.6132 69.0751 38.4724 69.1468 38.3222L69.5229 37.5744C69.8212 36.9293 68.8745 36.3128 68.5191 36.915Z" fill="#D18574"/>
<path d="M173.522 59.7466C170.485 47.5302 163.491 33.6953 153.709 26.4968C153.554 26.3798 153.328 26.5824 153.45 26.7622C155.944 30.1646 158.596 33.3271 161.057 36.6895C160.553 36.447 159.996 36.3763 159.455 36.4868C159.269 36.5289 159.097 36.6278 158.96 36.7723C158.833 36.5468 158.7 36.327 158.576 36.0987C157.351 33.8609 154.205 35.9588 155.023 38.2765C155.152 38.6476 155.269 39.0215 155.386 39.3925C155.082 39.1499 154.781 38.9044 154.47 38.6732C153.055 37.6171 150.535 39.1014 151.504 41.1165C151.797 41.7302 152.077 42.3467 152.352 42.969C152.497 43.3276 152.751 43.6198 153.07 43.7957C153.389 43.9717 153.753 44.0204 154.101 43.9337C155.246 44.987 156.437 46.0002 157.574 47.0307C158.599 47.9469 160.115 47.4046 160.675 46.2514C161.194 46.7795 161.713 47.2933 162.258 47.7699C163.366 48.7375 165.463 48.0553 165.508 46.3142C165.538 45.2646 165.451 44.215 165.248 43.1887C168.259 48.5263 170.631 54.2549 172.658 60.1262C172.901 60.7342 173.68 60.3517 173.522 59.7466Z" fill="#D18574"/>
<path d="M152.181 45.2409C151.096 42.7353 149.823 40.3332 148.376 38.0594C147.956 37.3944 146.975 37.9995 147.255 38.7473C148.212 41.3217 149.362 43.804 150.694 46.1686C151.2 47.0591 152.599 46.2028 152.181 45.2409Z" fill="#D18574"/>
<path d="M146.031 42.1811L145.138 40.4514C144.912 40.0089 144.252 40.5085 144.548 40.9338L145.636 42.5037C145.833 42.7891 146.171 42.4751 146.031 42.1811Z" fill="#D18574"/>
<path d="M69.9139 60.4887C61.0897 73.6185 52.1047 87.1251 45.2011 101.608C45.0246 101.976 45.5488 102.301 45.7694 101.976C54.6403 88.8462 62.2395 74.529 70.1916 60.7256C70.3084 60.5344 70.0514 60.2861 69.9139 60.4887Z" fill="#874435"/>
<path d="M141.018 90.9556C135.153 85.207 129.34 79.4755 123.737 73.4044C123.477 73.119 123.033 73.5928 123.264 73.9125C128.167 80.6629 134.019 86.7911 140.608 91.5321C140.677 91.5919 140.765 91.6189 140.853 91.6071C140.941 91.5954 141.02 91.5458 141.075 91.4693C141.129 91.3929 141.154 91.2958 141.143 91.1995C141.132 91.1031 141.087 91.0154 141.018 90.9556Z" fill="#874435"/>
<path d="M161.127 81.0199C161.064 80.933 160.976 80.8735 160.877 80.8519C160.779 80.8303 160.676 80.8481 160.589 80.9021C160.501 80.956 160.433 81.0426 160.398 81.1463C160.363 81.2501 160.363 81.3641 160.398 81.468C161.88 85.7494 163.722 89.8596 165.085 94.1982C166.447 98.5367 167.179 103.029 168.428 107.385C168.594 107.973 169.305 107.67 169.302 107.137C169.268 98.4111 165.895 87.9672 161.127 81.0199Z" fill="#874435"/>
<path d="M169.305 90.6502C169.12 90.3162 168.593 90.6502 168.76 90.9841C169.996 93.6021 170.864 96.4113 171.334 99.3157C171.423 99.8494 172.165 99.7581 172.1 99.2129C171.744 96.1694 170.791 93.2475 169.305 90.6502Z" fill="#874435"/>
<path d="M103.518 1.37024C95.6743 7.33573 89.3726 20.0517 89.03 30.4841C89.03 30.9151 89.3103 33.5896 89.7334 30.6925C90.512 25.432 92.8713 20.6482 95.1838 15.9386C97.7092 10.8151 101.068 6.76773 104.239 2.18087C104.32 2.07207 104.361 1.93455 104.355 1.79452C104.349 1.65448 104.297 1.52172 104.207 1.42154C104.118 1.32136 103.999 1.26076 103.871 1.2513C103.744 1.24184 103.618 1.28418 103.518 1.37024Z" fill="#874435"/>
<path d="M162.809 104.491C156.076 93.4273 147.154 83.6542 138.623 74.2863C138.553 74.2092 138.434 74.3377 138.499 74.4205C146.694 84.3392 153.886 95.1799 161.994 105.159C162.083 105.246 162.197 105.296 162.316 105.302C162.435 105.307 162.552 105.267 162.648 105.189C162.744 105.111 162.812 104.998 162.841 104.871C162.87 104.744 162.859 104.61 162.809 104.491Z" fill="#874435"/>
<path d="M103.937 126.178C105.991 126.178 107.657 124.941 107.657 123.415C107.657 121.889 105.991 120.652 103.937 120.652C101.883 120.652 100.218 121.889 100.218 123.415C100.218 124.941 101.883 126.178 103.937 126.178Z" fill="#F6B4A9"/>
<path d="M120.184 108.284C121.954 103.817 125.652 100.512 130.134 100.007C134.481 99.5242 138.662 101.825 141.408 105.461C142.951 107.497 143.94 109.971 144.263 112.597C144.385 113.699 145.042 114.652 146.132 114.652C147.048 114.652 148.125 113.707 148 112.597C147.665 109.556 146.673 106.648 145.106 104.115C143.539 101.582 141.444 99.4994 138.995 98.04C133.996 95.0829 127.907 95.1428 123.059 98.4709C120.364 100.314 118.236 103.009 116.955 106.203C116.553 107.219 116.696 108.41 117.627 109.015C118.419 109.526 119.779 109.3 120.184 108.278V108.284Z" fill="#6D1D17"/>
<path d="M91.2367 105.787C88.9243 99.9524 83.7803 96.082 78.0602 95.4797C72.636 94.9088 67.139 97.9487 63.8144 102.584C61.8145 105.345 60.556 108.666 60.1809 112.172C60.059 113.276 61.1283 114.227 62.0496 114.227C63.163 114.227 63.7963 113.279 63.9183 112.172C64.4373 107.488 67.3544 103.363 71.0735 101.165C72.9539 100.045 75.0712 99.4944 77.2087 99.5702C79.3462 99.6459 81.427 100.345 83.2379 101.596C85.3695 103.101 87.0314 105.288 88.0003 107.862C88.4052 108.878 89.7599 109.112 90.5593 108.598C91.5144 107.984 91.6338 106.808 91.2289 105.787H91.2367Z" fill="#6D1D17"/>
<path d="M146.913 93.3988L139.387 90.3418L118.666 92.5967L120.218 87.0222C120.291 86.7588 120.436 86.5269 120.634 86.3582C120.832 86.1895 121.073 86.0924 121.323 86.0803L138.673 85.2896C139.298 85.2612 139.922 85.3717 140.507 85.6145C141.093 85.8572 141.628 86.2273 142.08 86.7025L146.547 91.3951C146.786 91.6471 146.95 91.9728 147.018 92.3295C147.086 92.6861 147.054 93.0569 146.926 93.3931L146.913 93.3988Z" fill="#6D1D17"/>
<path d="M117.967 92.5967L118.484 92.5796L120.002 86.149L119.691 86.1946L117.967 92.5967Z" fill="#6D1D17"/>
<path d="M62.9475 92.7451L69.926 90.1763L88.8711 92.8707L87.5995 87.7102C87.5397 87.4664 87.4123 87.2491 87.2352 87.0885C87.058 86.9279 86.8397 86.8319 86.6107 86.814L70.7123 85.5638C70.14 85.5189 69.5653 85.6014 69.0226 85.8064C68.4799 86.0114 67.9804 86.3346 67.554 86.7569L63.3393 90.9269C63.1126 91.1519 62.9531 91.4471 62.8818 91.7736C62.8104 92.1002 62.8306 92.4428 62.9397 92.7565L62.9475 92.7451Z" fill="#6D1D17"/>
<path d="M89.5207 92.8793L89.0483 92.8479L87.8156 86.9024L88.1011 86.9538L89.5207 92.8793Z" fill="#6D1D17"/>
<path d="M67.85 97.786C69.5136 96.1876 71.6859 95.2628 73.8192 94.7832C76.4122 94.1895 79.1 94.3329 81.6285 95.2C83.2079 95.7575 84.6787 96.6345 85.9653 97.786C86.3364 98.1171 86.8684 97.5377 86.4843 97.2151C82.0386 93.2419 75.719 92.6225 70.505 95.0601C69.3397 95.5874 68.2579 96.3148 67.2998 97.2151C66.9365 97.5634 67.4685 98.1428 67.8189 97.786H67.85Z" fill="#6D1D17"/>
<path d="M121.591 98C123.337 96.2874 125.828 95.3997 128.078 94.903C131.143 94.2208 134.377 94.375 137.281 95.7194C137.722 95.9249 137.917 95.1285 137.478 94.9259C133.051 92.8736 127.699 93.4616 123.433 95.7365C122.577 96.1766 121.779 96.7421 121.061 97.4177C120.7 97.7716 121.23 98.3511 121.58 97.9886L121.591 98Z" fill="#6D1D17"/>
<path d="M57.4328 137.424C57.4328 137.995 46.8673 131.49 45.1933 130.685C44.9338 130.553 45.1933 134.024 45.1933 134.275C45.1933 134.724 55.9898 141.191 55.995 141.62C56.0573 147.328 52.4187 156.57 50.493 159.316C49.7611 160.364 51.5933 161.788 52.5432 163.027C62.247 175.586 81.7324 187.859 103.279 188.319C121.523 188.695 146.594 177.635 155.4 163.364C161.961 152.731 157.019 164.739 157.19 144.919C157.19 144.397 163.741 136.713 164.039 136.382C164.198 136.211 164.239 132.957 164.239 132.549C164.239 132.549 154.564 141.682 153.484 141.323C148.727 139.779 132.629 135.297 118.588 132.883C113.509 132.026 110.024 126.061 104.641 125.213C97.408 124.071 94.8075 131.689 88.8669 132.414C74.5409 134.176 57.4328 137.204 57.4328 137.424Z" fill="white"/>
<g style="mix-blend-mode:multiply" opacity="0.31">
<path d="M162.938 136.772C163.097 136.601 163.138 133.347 163.138 132.939C163.138 132.939 153.463 142.072 152.383 141.713C147.626 140.169 131.528 135.687 117.487 133.272C113.467 132.582 110.449 128.706 106.689 126.708C107.485 128.437 107.968 130.275 107.633 132.399C107.086 135.87 104.82 138.633 102.736 141.136C100.948 143.283 98.965 145.352 97.6466 147.852C97.4958 148.129 97.3597 148.415 97.2392 148.709C97.2521 148.709 97.1068 149.157 97.0912 149.211C97.0599 149.318 97.0365 149.428 97.0211 149.539C97.0135 149.622 97.0135 149.705 97.0211 149.788C97.0249 149.828 97.0309 149.868 97.0393 149.907C97.3222 150.911 97.7965 151.836 98.4304 152.622C100.2 154.928 102.37 156.809 104.314 158.924C106.146 160.922 107.859 163.231 108.085 166.166C108.555 172.305 102.097 175.625 98.978 179.558C98.0463 180.731 97.1198 182.127 96.9226 183.722C96.7902 184.801 97.1302 185.966 97.6855 187.033C97.9522 187.539 98.2424 188.03 98.555 188.503C99.7514 188.6 100.956 188.669 102.168 188.695C120.412 189.071 145.483 178.011 154.288 163.739C160.849 153.107 155.908 165.115 156.079 145.295C156.095 144.787 162.64 137.103 162.938 136.772Z" fill="#DFDFDF"/>
</g>
<path d="M64.2789 298.692L70.5387 263.87L73.736 237.787L70.5387 227.152C70.5387 214.222 69.6667 200.287 72.8744 197.638C74.7093 196.123 81.9007 192.757 86.4268 191.661L93.3016 191.621C93.3113 191.775 93.2937 191.929 93.2497 192.075L87.0418 192.68L101.365 216.405L115.12 192.683L110.537 192.312C110.479 192.044 110.459 191.768 110.479 191.493L115.893 191.927C123.996 194.47 132.521 196.802 134.519 199.488C135.23 200.444 132.788 213.337 132.788 223.327L128.667 235.03L131.397 260.053L139.051 300.99C139.505 303.833 64.0402 301.538 64.2789 298.692Z" fill="white"/>
<path d="M64.938 295.042L64.2814 298.692C64.0426 301.546 139.509 303.83 139.073 300.976L138.11 295.838C133.911 298.141 113.154 300.128 64.938 295.042Z" fill="#F1F1F1"/>
<path d="M109.4 209.792C113.454 203.05 117.762 195.278 118.935 192.863C117.931 192.552 116.919 192.241 115.912 191.924L110.498 191.49C110.478 191.765 110.497 192.041 110.555 192.309L115.136 192.68L101.381 216.402L87.0551 192.677L93.25 192.441C93.2982 192.17 93.32 191.894 93.3149 191.619L86.44 191.659C85.2122 191.972 83.9995 192.353 82.8066 192.8C86.6399 198.4 98.4847 220.684 101.596 220.855C102.45 220.904 105.837 215.749 109.419 209.795" fill="#E7E7E7"/>
<g style="mix-blend-mode:screen" opacity="0.29">
<g style="mix-blend-mode:screen" opacity="0.29">
<path d="M91.9266 135.854C102.22 124.533 102.22 106.179 91.9266 94.8582C81.6332 83.5376 64.9444 83.5376 54.6511 94.8582C44.3577 106.179 44.3577 124.533 54.6511 135.854C64.9444 147.175 81.6332 147.175 91.9266 135.854Z" fill="white"/>
</g>
</g>
<g style="mix-blend-mode:screen" opacity="0.53">
<g style="mix-blend-mode:screen" opacity="0.53">
<path d="M54.9724 136.173C56.85 138.178 58.9875 139.865 61.3152 141.18C63.5471 138.896 95.3704 104.277 96.9846 102.647C96.0231 100.493 94.8218 98.48 93.4083 96.6528C91.0544 98.7821 61.1283 130.114 54.9724 136.173Z" fill="white"/>
</g>
</g>
<g style="mix-blend-mode:screen" opacity="0.53">
<g style="mix-blend-mode:screen" opacity="0.53">
<path d="M64.868 142.827C69.4907 144.539 74.4545 144.806 79.2073 143.6C83.9601 142.395 88.3156 139.762 91.7893 135.996C95.263 132.23 97.7187 127.478 98.8832 122.269C100.048 117.059 99.8755 111.597 98.3857 106.489C96.6209 108.258 70.3673 137.11 64.868 142.827Z" fill="white"/>
</g>
</g>
<path d="M98.4555 115.357C98.4062 126.82 91.8143 137.424 81.9601 141.354C77.055 143.286 71.729 143.516 66.7014 142.012C61.6737 140.509 57.1866 137.345 53.8458 132.948C47.0982 124.011 46.2963 110.907 51.7697 101C57.1963 91.1611 67.9536 85.9206 78.2256 88.204C83.9415 89.4409 89.0879 92.8271 92.7815 97.7816C96.4752 102.736 98.4858 108.95 98.4685 115.357C98.4685 117.038 100.854 117.041 100.846 115.357C100.804 109.151 99.0479 103.105 95.8116 98.0205C92.5753 92.9361 88.011 89.0529 82.7231 86.8853C71.9503 82.5211 59.3945 86.2831 52.0993 96.0191C44.7314 105.852 43.6907 120.101 49.722 131.033C55.6911 141.879 67.4423 147.511 78.7394 145.056C89.8497 142.644 98.7929 132.426 100.501 120.101C100.718 118.531 100.833 116.945 100.843 115.357C100.841 113.673 98.4633 113.673 98.4555 115.357Z" fill="#6B1F2A"/>
<g style="mix-blend-mode:screen" opacity="0.29">
<g style="mix-blend-mode:screen" opacity="0.29">
<path d="M151.936 135.856C162.229 124.535 162.229 106.181 151.936 94.8599C141.642 83.5392 124.953 83.5392 114.66 94.8599C104.367 106.181 104.367 124.535 114.66 135.856C124.953 147.176 141.642 147.176 151.936 135.856Z" fill="white"/>
</g>
</g>
<g style="mix-blend-mode:screen" opacity="0.53">
<g style="mix-blend-mode:screen" opacity="0.53">
<path d="M114.983 136.173C116.861 138.178 118.998 139.865 121.326 141.18C123.558 138.896 155.381 104.277 156.995 102.647C156.034 100.493 154.832 98.48 153.419 96.6528C151.065 98.7821 121.139 130.114 114.983 136.173Z" fill="white"/>
</g>
</g>
<g style="mix-blend-mode:screen" opacity="0.53">
<g style="mix-blend-mode:screen" opacity="0.53">
<path d="M124.889 142.827C129.511 144.536 134.473 144.801 139.224 143.594C143.975 142.387 148.329 139.754 151.801 135.989C155.273 132.223 157.728 127.472 158.892 122.265C160.056 117.057 159.884 111.596 158.396 106.489C156.631 108.258 130.378 137.11 124.889 142.827Z" fill="white"/>
</g>
</g>
<path d="M158.467 115.357C158.418 126.82 151.826 137.424 141.971 141.354C137.066 143.286 131.74 143.516 126.712 142.012C121.685 140.509 117.197 137.345 113.857 132.948C107.109 124.011 106.307 110.907 111.78 101C117.207 91.1611 127.965 85.9206 138.237 88.204C143.267 89.3517 147.864 92.1473 151.423 96.223C154.982 100.299 157.335 105.464 158.174 111.038C158.377 112.47 158.477 113.917 158.472 115.366C158.472 117.047 160.857 117.05 160.85 115.366C160.808 109.159 159.052 103.113 155.816 98.0287C152.579 92.9442 148.015 89.0611 142.727 86.8939C131.954 82.5297 119.398 86.2916 112.102 96.0276C104.737 105.861 103.693 120.109 109.725 131.041C115.694 141.888 127.446 147.519 138.743 145.065C149.853 142.653 158.799 132.434 160.504 120.109C160.722 118.539 160.837 116.954 160.847 115.366C160.852 113.673 158.475 113.673 158.467 115.357Z" fill="#6B1F2A"/>
<path d="M100.644 119.385H106.353C106.668 119.385 106.97 119.247 107.193 119.002C107.416 118.756 107.541 118.424 107.541 118.077C107.541 117.731 107.416 117.398 107.193 117.153C106.97 116.908 106.668 116.77 106.353 116.77H100.644C100.329 116.77 100.026 116.908 99.8034 117.153C99.5806 117.398 99.4553 117.731 99.4553 118.077C99.4553 118.424 99.5806 118.756 99.8034 119.002C100.026 119.247 100.329 119.385 100.644 119.385Z" fill="#6B1F2A"/>
<path d="M76.578 224.683C76.6117 214.339 79.713 202.939 86.7434 195.697C88.3189 194.028 90.1684 192.703 92.1934 191.793C93.5222 191.222 92.9434 188.836 91.5965 189.412C82.5132 193.314 77.3435 204.392 75.366 214.316C74.6887 217.722 74.3408 221.197 74.3279 224.683C74.3279 226.27 76.5676 226.273 76.5728 224.683H76.578Z" fill="#6B1F2A"/>
<path d="M111.054 191.924C119.571 196.051 124.925 205.245 126.944 214.981C127.59 218.167 127.915 221.421 127.912 224.686C127.912 226.273 130.162 226.275 130.157 224.686C130.12 213.554 126.56 201.88 118.738 194.43C116.774 192.537 114.562 190.98 112.177 189.812C110.88 189.175 109.727 191.302 111.046 191.941L111.054 191.924Z" fill="#6B1F2A"/>
<path d="M125.885 246.42C126.774 242.826 125.498 239.315 123.035 238.578C120.572 237.841 117.855 240.157 116.966 243.751C116.077 247.346 117.352 250.857 119.815 251.594C122.278 252.331 124.996 250.015 125.885 246.42Z" fill="#E3E4E5"/>
<path d="M124.39 239.362C124.371 240.069 124.31 240.774 124.206 241.472C123.946 243.113 123.386 244.669 122.794 246.193C122.016 248.191 120.934 250.158 119.351 251.428C119.512 251.509 119.678 251.576 119.849 251.628C122.312 252.364 125.039 250.049 125.921 246.453C126.632 243.575 125.952 240.752 124.39 239.362Z" fill="#CED0D1"/>
<path d="M70.492 242.473C70.3255 240.986 70.2458 239.488 70.2533 237.989C70.2818 235.015 70.7153 231.836 72.1505 229.255C72.763 228.156 73.918 226.883 75.2079 227.075C76.3161 227.24 77.2997 228.336 77.9641 229.244C79.5966 231.479 80.3 234.29 80.8372 237.039C81.0987 238.367 81.2954 239.709 81.4263 241.061C82.1634 240.966 82.9005 240.855 83.635 240.732C83.635 240.624 83.6194 240.513 83.6064 240.404C83.2119 236.733 82.532 232.837 80.858 229.584C79.4617 226.878 76.7313 223.669 73.591 224.845C70.3441 226.061 68.9193 230.269 68.3716 233.665C67.8811 236.699 67.9538 239.776 68.286 242.822C69.0205 242.702 69.7575 242.585 70.492 242.473Z" fill="#6B1F2A"/>
<path d="M83.6964 250.312C83.1306 252.352 81.7162 253.737 79.7335 253.819C79.6219 253.819 79.5129 253.819 79.4039 253.819C79.4298 253.791 79.4584 253.771 79.4844 253.742C80.7379 252.401 81.5787 250.688 82.186 248.907C83.0498 246.287 83.5 243.523 83.5173 240.735C82.7665 240.861 82.0164 240.974 81.2672 241.075C81.2439 241.786 81.2024 242.502 81.1271 243.207C80.7638 246.632 79.7517 250.862 76.9436 252.832C76.8476 252.9 76.7386 252.969 76.6296 253.037C75.7073 252.515 74.8762 251.817 74.1746 250.977C72.319 248.785 71.421 245.87 70.8864 242.985C70.8527 242.799 70.8267 242.614 70.793 242.414C70.0508 242.522 69.3111 242.642 68.5715 242.765C69.0905 245.759 69.8691 248.727 71.5041 251.234C72.2235 252.342 73.0904 253.326 74.0759 254.151C71.9427 254.773 69.581 254.667 69.0646 252.124C68.7505 250.574 66.5862 251.231 66.9002 252.781C67.7229 256.825 71.9531 257.456 75.0076 256.434C75.5846 256.237 76.1498 256.001 76.6997 255.726C77.5724 256.08 78.4922 256.273 79.4221 256.297C82.5363 256.351 84.9681 254.196 85.8582 250.974C86.2786 249.444 84.1142 248.793 83.6964 250.312Z" fill="#E3E4E5"/>
<path d="M127.924 225.922C127.97 229.061 127.524 232.255 127.176 235.364C126.805 238.677 126.429 242.02 125.798 245.291C125.571 246.628 125.001 247.866 124.155 248.859C123.143 250.032 121.464 251.305 119.932 250.614C117.908 249.703 117.698 246.701 117.996 244.674C118.295 242.648 119.128 239.973 120.924 238.92C123.239 237.561 124.973 240.347 125.25 242.582C125.399 243.902 125.3 245.241 124.961 246.517C124.622 247.793 124.049 248.979 123.278 250.003C122.336 251.196 123.916 252.949 124.864 251.747C126.563 249.549 127.512 246.768 127.547 243.884C127.591 241.129 126.621 238.012 124.256 236.688C121.741 235.281 119.154 236.688 117.628 239.046C116.142 241.432 115.456 244.311 115.686 247.192C115.946 250.063 117.607 252.957 120.415 253.251C122.577 253.477 124.695 251.987 126.045 250.243C128.284 247.343 128.438 243.298 128.899 239.682C129.242 237.03 129.548 234.37 129.8 231.704C129.982 229.795 130.195 227.854 130.166 225.93C130.143 224.346 127.9 224.34 127.924 225.93V225.922Z" fill="#6B1F2A"/>
<path d="M70.2281 254.74C71.5138 254.154 72.1243 252.533 71.5918 251.119C71.0592 249.705 69.5853 249.033 68.2996 249.619C67.0139 250.205 66.4033 251.826 66.9359 253.24C67.4684 254.654 68.9424 255.326 70.2281 254.74Z" fill="#E3E4E5"/>
<path d="M83.2628 253.015C84.6542 253.015 85.7822 251.774 85.7822 250.243C85.7822 248.712 84.6542 247.471 83.2628 247.471C81.8713 247.471 80.7433 248.712 80.7433 250.243C80.7433 251.774 81.8713 253.015 83.2628 253.015Z" fill="#E3E4E5"/>
<path d="M14.6287 216.108C14.1278 216.411 11.8778 215.429 11.3094 215.284C11.0702 215.223 10.8209 215.233 10.586 215.311C10.3511 215.389 10.1387 215.532 9.96957 215.728C9.80046 215.923 9.68051 216.164 9.62147 216.426C9.56243 216.688 9.56632 216.962 9.63281 217.222L9.84044 218.035C9.89765 218.188 9.90228 218.358 9.85343 218.515C9.79822 218.598 9.72671 218.667 9.64409 218.717C9.56146 218.766 9.46979 218.795 9.37588 218.8C6.80136 219.356 4.21389 219.84 1.61343 220.253C1.27113 220.295 0.946222 220.441 0.674919 220.674C0.403616 220.907 0.196617 221.219 0.0770423 221.574C-0.291487 222.819 0.733647 223.572 1.63421 223.998C5.56086 225.844 10.113 226.053 13.6945 228.613C13.9358 228.784 14.3952 229.041 14.5301 229.318C14.7481 229.763 17.6445 234.17 17.904 234.011C18.9629 233.311 27.657 224.511 27.6285 224.22C27.5896 223.795 23.0764 219.217 22.957 218.823C21.8566 215.278 20.6991 212.424 14.6287 216.108Z" fill="#038E87"/>
<defs>
<radialGradient id="paint0_radial_8_71" cx="0" cy="0" r="1" gradientUnits="userSpaceOnUse" gradientTransform="translate(125375 51173.5) scale(3179.01 3496.31)">
<stop stop-color="#FF8EA4"/>
<stop offset="0.23" stop-color="#FF92A6"/>
<stop offset="0.45" stop-color="#FF9DAA"/>
<stop offset="0.65" stop-color="#FFAFB2"/>
<stop offset="0.85" stop-color="#FFC9BD"/>
<stop offset="1" stop-color="#FFE2C8"/>
</radialGradient>
<radialGradient id="paint1_radial_8_71" cx="0" cy="0" r="1" gradientUnits="userSpaceOnUse" gradientTransform="translate(138066 51364.4) scale(3179.01 3496.3)">
<stop stop-color="#FF8EA4"/>
<stop offset="0.23" stop-color="#FF92A6"/>
<stop offset="0.45" stop-color="#FF9DAA"/>
<stop offset="0.65" stop-color="#FFAFB2"/>
<stop offset="0.85" stop-color="#FFC9BD"/>
<stop offset="1" stop-color="#FFE2C8"/>
</radialGradient>
</defs>
</svg>
