<svg width="23" height="23" viewBox="0 0 23 23" fill="none" xmlns="http://www.w3.org/2000/svg">
<path fill-rule="evenodd" clip-rule="evenodd" d="M16.491 0C20.3895 0 23 2.737 23 6.808V16.2035C23 20.263 20.3895 23 16.491 23H6.5205C2.622 23 0 20.263 0 16.2035V6.808C0 2.737 2.622 0 6.5205 0H16.491ZM6.13325 13.8006C7.40351 13.8006 8.43325 12.7708 8.43325 11.5006C8.43325 10.2303 7.40351 9.20056 6.13325 9.20056C4.863 9.20056 3.83325 10.2303 3.83325 11.5006C3.83325 12.7708 4.863 13.8006 6.13325 13.8006ZM11.5 13.8006C12.7703 13.8006 13.8 12.7708 13.8 11.5006C13.8 10.2303 12.7703 9.20056 11.5 9.20056C10.2298 9.20056 9.20001 10.2303 9.20001 11.5006C9.20001 12.7708 10.2298 13.8006 11.5 13.8006ZM19.1667 11.5006C19.1667 12.7708 18.1369 13.8006 16.8667 13.8006C15.5964 13.8006 14.5667 12.7708 14.5667 11.5006C14.5667 10.2303 15.5964 9.20056 16.8667 9.20056C18.1369 9.20056 19.1667 10.2303 19.1667 11.5006Z" fill="#FFD124"/>
</svg>
