<svg width="20" height="19" viewBox="0 0 20 19" fill="none" xmlns="http://www.w3.org/2000/svg">
<path d="M7.32005 12.8587C14.3064 14.0958 16.5442 10.2758 15.5338 6.2917C14.7837 3.33355 11.8088 1.92708 8.82214 2.54952C5.45101 3.25209 3.48339 7.13625 5.26349 9.98172C6.2154 11.5033 4.03214 12.0348 3.21174 14.0882C2.9261 14.8031 5.82805 12.5945 7.32005 12.8587Z" fill="#FF8000" stroke="#FF8000" stroke-width="2"/>
<path fill-rule="evenodd" clip-rule="evenodd" d="M13.8431 13.6939C14.2286 13.8134 14.638 13.9222 15.0723 14.0193C15.8258 14.1877 16.4959 15.0193 17.0663 15.7272C17.6 16.3896 18.0465 16.9437 18.3924 16.7448C18.8136 16.5025 18.5018 15.7735 18.1475 14.9451C17.7028 13.9055 17.1911 12.7093 17.9769 12.1218C20.6174 10.1475 20.1998 5.76448 17.3665 3.81414C16.6784 3.34051 15.9369 3.00959 15.1871 2.82971C16.3669 3.63743 17.2354 4.92138 17.5669 6.48884C18.2084 9.52179 17.1292 12.5357 13.8431 13.6939Z" fill="#FF8000"/>
<line x1="6.93758" y1="5.67529" x2="14.2523" y2="5.67529" stroke="white" stroke-linecap="round"/>
<line x1="6.93758" y1="5.67529" x2="14.2523" y2="5.67529" stroke="white" stroke-linecap="round"/>
<line x1="6.93758" y1="8.16968" x2="12.5894" y2="8.16968" stroke="white" stroke-linecap="round"/>
<line x1="6.93758" y1="8.16968" x2="12.5894" y2="8.16968" stroke="white" stroke-linecap="round"/>
</svg>
