<svg width="27" height="27" viewBox="0 0 27 27" fill="none" xmlns="http://www.w3.org/2000/svg">
<path fill-rule="evenodd" clip-rule="evenodd" d="M23.5996 6.89811L23.9587 6.33079C24.0405 6.20926 24.0946 6.07292 24.1178 5.93046C24.1409 5.78801 24.1325 5.64255 24.0931 5.50334C24.0537 5.36412 23.9841 5.23422 23.8889 5.12188C23.7936 5.00953 23.6747 4.91722 23.5398 4.85081L22.1008 4.05409C22.3896 3.83606 22.6514 3.58782 22.8814 3.3141C23.1815 2.80117 23.2553 2.1965 23.0866 1.63219C22.9179 1.06788 22.5205 0.589792 21.9811 0.302347C21.7183 0.15533 21.4273 0.0593969 21.125 0.0201471C20.8227 -0.0191027 20.5152 -0.000882194 20.2204 0.0737433C19.9256 0.148369 19.6495 0.277907 19.4081 0.454795C19.1666 0.631683 18.9648 0.852377 18.8144 1.104C18.6521 1.40501 18.5506 1.73211 18.5151 2.06845L16.5974 0.98807C16.3337 0.847783 16.0226 0.811049 15.7307 0.885755C15.4388 0.960462 15.1894 1.14065 15.0361 1.38766L14.6744 2.01172L12.2181 0.647674C11.7885 0.42313 11.2827 0.368954 10.8112 0.496995C10.3396 0.625035 9.94078 0.924869 9.70183 1.33093L0.232802 16.7819C0.000229955 17.1842 -0.0608696 17.6556 0.0620696 18.0993C0.185009 18.543 0.482638 18.9251 0.893735 19.1671L14.7889 26.7791C15.2137 26.9997 15.7114 27.0577 16.1799 26.9412C16.6484 26.8247 17.052 26.5425 17.3078 26.1526L26.7742 10.6474C27.0071 10.2397 27.0624 9.76178 26.9282 9.31595C26.7939 8.87012 26.4808 8.49185 26.056 8.26215L23.5996 6.89811ZM19.6444 1.55786C19.7278 1.39776 19.8449 1.25551 19.9884 1.13986C20.1319 1.02421 20.2988 0.937598 20.4789 0.885341C20.6591 0.833084 20.8485 0.816286 21.0358 0.835983C21.223 0.85568 21.404 0.911456 21.5676 0.99988C21.7312 1.0883 21.8741 1.20752 21.9873 1.35018C22.1006 1.49285 22.1819 1.65596 22.2262 1.8295C22.2706 2.00304 22.277 2.18333 22.2451 2.35931C22.2133 2.53529 22.1438 2.70324 22.041 2.85284C21.9406 3.01821 21.8025 3.16027 21.6368 3.26865C21.4712 3.37704 21.2821 3.44902 21.0834 3.47937L19.5221 2.62591C19.4125 2.26553 19.4554 1.87882 19.6418 1.54799L19.6444 1.55786Z" fill="#294956"/>
<path fill-rule="evenodd" clip-rule="evenodd" d="M16.168 24.4482C16.0421 24.645 15.8425 24.7896 15.609 24.8532C15.3756 24.9167 15.1255 24.8945 14.9086 24.7911L2.67871 18.0868C2.57183 18.0241 2.47917 17.9419 2.40614 17.845C2.3331 17.748 2.28114 17.6383 2.25329 17.5221C2.22544 17.406 2.22225 17.2857 2.24392 17.1684C2.26558 17.051 2.31166 16.9389 2.37947 16.8387L10.7712 3.02555C10.8315 2.91879 10.9141 2.82481 11.014 2.74935C11.1139 2.67388 11.229 2.61854 11.3523 2.58668C11.4755 2.55481 11.6043 2.54711 11.7308 2.56405C11.8573 2.58098 11.9788 2.62219 12.0879 2.68516L13.7064 3.53861C13.5828 3.75037 13.5512 3.99946 13.6183 4.23297C13.6853 4.46648 13.8457 4.66601 14.0655 4.78919L21.3826 8.77279C21.4864 8.83718 21.6035 8.87964 21.7261 8.89728C21.8487 8.91493 21.9739 8.90735 22.0931 8.87506C22.2124 8.84276 22.3229 8.78651 22.4171 8.71013C22.5114 8.63375 22.5872 8.53902 22.6394 8.43239L24.2579 9.34011C24.3732 9.395 24.4749 9.47229 24.5566 9.56694C24.6382 9.66159 24.6979 9.77148 24.7318 9.88945C24.7657 10.0074 24.773 10.1308 24.7532 10.2517C24.7334 10.3725 24.687 10.488 24.617 10.5907L16.168 24.4482Z" fill="#BFEBEF"/>
<path fill-rule="evenodd" clip-rule="evenodd" d="M12.814 14.1673L11.6742 13.0894C11.5416 12.9798 11.3715 12.9193 11.1955 12.9193C11.0194 12.9193 10.8494 12.9798 10.7167 13.0894L10.355 13.4298C10.2391 13.556 10.1753 13.7176 10.1753 13.8849C10.1753 14.0522 10.2391 14.2138 10.355 14.34L12.3924 16.2689C12.5248 16.3802 12.6956 16.4417 12.8725 16.4417C13.0494 16.4417 13.2202 16.3802 13.3526 16.2689L16.8264 12.749C16.8904 12.6897 16.9412 12.619 16.9759 12.5408C17.0106 12.4627 17.0285 12.3787 17.0285 12.2939C17.0285 12.2091 17.0106 12.1252 16.9759 12.047C16.9412 11.9689 16.8904 11.8981 16.8264 11.8388L16.4725 11.4984C16.3398 11.3888 16.1697 11.3284 15.9937 11.3284C15.8177 11.3284 15.6476 11.3888 15.5149 11.4984L12.814 14.1673Z" fill="#294956"/>
<path fill-rule="evenodd" clip-rule="evenodd" d="M13.5921 7.06818C12.2323 7.06233 10.9014 7.43958 9.76823 8.15205C8.63505 8.86452 7.75073 9.88008 7.22752 11.0698C6.7043 12.2596 6.56579 13.5698 6.82955 14.8344C7.09332 16.0989 7.74747 17.2606 8.70898 18.172C9.67048 19.0835 10.896 19.7036 12.2299 19.9536C13.5639 20.2036 14.9461 20.0723 16.2012 19.5764C17.4563 19.0804 18.5276 18.2421 19.2792 17.1679C20.0308 16.0937 20.4288 14.8321 20.4226 13.5431C20.4103 11.8294 19.6868 10.1893 18.4084 8.9775C17.1301 7.76573 15.3999 7.07981 13.5921 7.06818V7.06818ZM13.5921 18.3136C12.2661 18.3038 10.9982 17.7962 10.0662 16.9021C9.13416 16.008 8.61395 14.8001 8.6195 13.5431C8.6195 12.2929 9.1434 11.094 10.0759 10.21C11.0085 9.32598 12.2733 8.82936 13.5921 8.82936C14.9109 8.82936 16.1757 9.32598 17.1083 10.21C18.0408 11.094 18.5647 12.2929 18.5647 13.5431C18.5703 14.8001 18.05 16.008 17.118 16.9021C16.186 17.7962 14.9181 18.3038 13.5921 18.3136V18.3136Z" fill="#294956"/>
</svg>
