<svg width="20" height="25" viewBox="0 0 20 25" fill="none" xmlns="http://www.w3.org/2000/svg">
<path d="M10.9202 19.3971V17.6435C11.1766 17.4851 11.3886 17.2626 11.5359 16.9974C11.6832 16.7322 11.7607 16.4332 11.7612 16.1289C11.7612 14.7748 10.2709 13.774 8.86081 14.7151C8.75644 14.7846 8.6674 14.8753 8.59926 14.9813C7.90821 16.0579 8.29175 17.1509 9.08099 17.6435V19.3971H10.9202Z" fill="#BFEBEF"/>
<path d="M2.19511 24.9999H17.8044C18.292 24.9997 18.7657 24.8348 19.1506 24.5314C19.5354 24.228 19.8094 23.8034 19.9293 23.3246H0.0705566C0.190853 23.8031 0.464924 24.2274 0.849581 24.5307C1.23424 24.8341 1.70761 24.9991 2.19511 24.9999V24.9999Z" fill="#294956"/>
<path d="M0 22.7749C0.00096844 22.9605 0.0246863 23.1453 0.0706094 23.325H19.9294C19.9755 23.1454 19.9992 22.9606 20 22.7749V22.4211H0V22.7749Z" fill="#BFEBEF"/>
<path d="M17.2136 7.30569C17.2136 2.04731 11.6986 -1.93224 6.22532 0.989368C4.09033 2.12644 2.78844 4.40101 2.78844 6.84189V10.0009H1.37166C1.19152 10.0008 1.01313 10.0367 0.846684 10.1065C0.680241 10.1763 0.529009 10.2787 0.401628 10.4077C0.274246 10.5367 0.173213 10.6899 0.1043 10.8585C0.0353867 11.027 -5.48333e-05 11.2077 6.36765e-08 11.3902V22.4211H19.9996V11.3898C19.9996 11.2073 19.9641 11.0267 19.8952 10.8582C19.8262 10.6896 19.7252 10.5365 19.5978 10.4075C19.4704 10.2786 19.3192 10.1763 19.1528 10.1065C18.9864 10.0367 18.808 10.0008 18.6279 10.0009H17.1656V7.30569H17.2136ZM10.9198 17.6435V19.3971H9.08145V17.6435C8.29221 17.1509 7.90867 16.0578 8.59972 14.9813C8.66786 14.8752 8.75691 14.7846 8.86127 14.7151C10.2714 13.7739 11.7617 14.7752 11.7617 16.1289C11.7611 16.4332 11.6834 16.7323 11.536 16.9975C11.3886 17.2627 11.1764 17.4851 10.9198 17.6435V17.6435ZM14.0203 10.0009H5.95041V6.8512C5.9487 6.28149 6.0888 5.72054 6.35775 5.22017C6.62671 4.71981 7.01584 4.29617 7.48919 3.98842C10.517 2.04181 13.6936 3.99773 14.0203 6.82666V10.0009Z" fill="#294956"/>
</svg>
