<svg width="21" height="23" viewBox="0 0 21 23" fill="none" xmlns="http://www.w3.org/2000/svg">
<path fill-rule="evenodd" clip-rule="evenodd" d="M21 10.7603C20.9987 9.91486 20.6516 9.10438 20.0347 8.50635C19.4177 7.90832 18.5813 7.57148 17.7085 7.56962C16.882 7.57732 16.0882 7.88329 15.4822 8.42771C14.8763 8.97214 14.5017 9.71589 14.4317 10.5136C14.3617 11.3113 14.6013 12.1056 15.1038 12.7413C15.6062 13.3769 16.3353 13.8083 17.1485 13.951V17.3036C17.1485 18.5583 16.634 19.7616 15.7181 20.6488C14.8021 21.5361 13.5599 22.0345 12.2645 22.0345C10.9692 22.0345 9.72696 21.5361 8.81103 20.6488C7.8951 19.7616 7.38054 18.5583 7.38054 17.3036L7.32479 13.465C8.60942 13.303 9.89162 12.5446 11.009 11.3003C11.0901 11.2141 11.1478 11.1098 11.177 10.9967C11.2062 10.8836 11.2059 10.7653 11.1762 10.6523C12.6305 8.81396 13.5225 6.27363 13.5225 4.3273C13.5225 1.29862 12.1264 0.974623 9.83588 0.434627C9.75761 0.301372 9.64397 0.190824 9.50673 0.11445C9.3695 0.0380765 9.21367 -0.00134343 9.0554 0.000280439C8.826 -0.00544204 8.60349 0.0766064 8.43609 0.228652C8.26869 0.380698 8.16986 0.590502 8.16101 0.812624C8.15971 0.926635 8.18197 1.03975 8.22648 1.1453C8.271 1.25085 8.33687 1.3467 8.42022 1.42721C8.50356 1.50773 8.6027 1.57127 8.71179 1.6141C8.82088 1.65694 8.93771 1.67819 9.0554 1.67662C9.14596 1.68338 9.237 1.67254 9.32317 1.64472C9.40933 1.6169 9.48888 1.57266 9.55714 1.51462H9.61288C11.8476 2.00062 12.4609 2.10862 12.4609 4.33199C12.4609 6.00833 11.6222 8.32327 10.3376 10.009C10.1047 10.0181 9.88465 10.115 9.72438 10.279C9.11115 10.9833 8.04952 11.9013 6.81579 11.9013C5.53117 11.9013 4.5277 10.981 3.8563 10.279C3.71031 10.1266 3.51225 10.0307 3.29883 10.009C1.95845 8.33266 1.11739 6.01772 1.11739 4.33199C1.11739 2.11331 1.73061 2.00531 3.96295 1.51462H4.0187C4.08747 1.57262 4.16745 1.61681 4.254 1.64462C4.34054 1.67243 4.43193 1.6833 4.52285 1.67662C4.64044 1.6782 4.75716 1.65693 4.86611 1.61407C4.97507 1.57121 5.07405 1.50763 5.15721 1.42708C5.24036 1.34653 5.306 1.25066 5.35025 1.14512C5.3945 1.03958 5.41646 0.926523 5.41483 0.812624C5.4066 0.590711 5.3083 0.380906 5.14128 0.228799C4.97426 0.0766921 4.75202 -0.00542942 4.52285 0.000280439C4.36428 -0.00127096 4.20814 0.0381586 4.07053 0.114504C3.93292 0.190849 3.81882 0.301352 3.73996 0.434627C1.45188 0.974623 0 1.29862 0 4.3273C0 6.27363 0.947715 8.81396 2.40201 10.6523C2.40201 10.9223 2.40201 11.1383 2.56925 11.3003C3.68421 12.5446 4.96884 13.303 6.25347 13.465V17.3036C6.28503 18.8249 6.93106 20.2734 8.05287 21.3385C9.17468 22.4035 10.6829 23 12.2536 23C13.8244 23 15.3326 22.4035 16.4544 21.3385C17.5762 20.2734 18.2222 18.8249 18.2538 17.3036V13.951C19.0259 13.8192 19.7246 13.426 20.2254 12.8417C20.7261 12.2573 20.9963 11.5197 20.9879 10.7603H21ZM17.7085 12.9367C17.1235 12.9367 16.5624 12.7116 16.1488 12.3109C15.7352 11.9103 15.5028 11.3668 15.5028 10.8002C15.5028 10.2336 15.7352 9.69014 16.1488 9.28947C16.5624 8.8888 17.1235 8.6637 17.7085 8.6637C18.2934 8.6637 18.8545 8.8888 19.2681 9.28947C19.6817 9.69014 19.9141 10.2336 19.9141 10.8002C19.9141 11.3668 19.6817 11.9103 19.2681 12.3109C18.8545 12.7116 18.2934 12.9367 17.7085 12.9367Z" fill="#FFD124"/>
</svg>
