<svg width="23" height="21" viewBox="0 0 23 21" fill="none" xmlns="http://www.w3.org/2000/svg">
<path fill-rule="evenodd" clip-rule="evenodd" d="M17.8087 11.1718L17.1769 10.6939L16.213 7.18466L15.3048 10.6939L14.6637 11.1718H12.2457L10.8033 16.4818H9.51185L6.99863 7.17773L6.08811 10.687L5.44703 11.1649H0.959473C3.79555 17.119 11.4978 21 11.4978 21C11.4978 21 19.2 17.119 21.9827 11.1649L17.8087 11.1718Z" fill="#FFD124"/>
<path fill-rule="evenodd" clip-rule="evenodd" d="M4.91976 9.84432L6.41561 4.47196H7.65363L10.1668 13.7783L11.1308 10.3153L11.7719 9.83739H14.1248L15.5695 4.46503H16.854L18.2964 9.83739H22.5192C22.8173 8.87153 22.9791 7.86923 23 6.85916C23 3.08443 20.0037 0 16.3128 0C15.4015 0.00621745 14.5018 0.203555 13.6724 0.579114C12.8431 0.954672 12.1028 1.49999 11.5001 2.17942C10.8868 1.49889 10.137 0.953438 9.29896 0.578099C8.46092 0.20276 7.55312 0.00584027 6.63395 0C2.94311 0 0.000193541 3.08443 0.000193541 6.85916C-0.00641112 7.87151 0.156067 8.87792 0.481003 9.83739L4.91976 9.84432Z" fill="#FFD124"/>
</svg>
