<svg width="32" height="37" viewBox="0 0 32 37" fill="none" xmlns="http://www.w3.org/2000/svg">
<path d="M3.19058 14.1063L3.19063 19.5696C-1.77617 19.3213 -0.286161 13.3613 3.19058 14.1063Z" fill="black"/>
<path d="M27.7756 13.9217L27.7755 19.3214C33.1876 19.076 31.564 13.1854 27.7756 13.9217Z" fill="black"/>
<path d="M25 7C22.7215 4.97897 11.1013 4.22109 7 7C7.68354 4.22109 8.20633 2.89022 10.4177 1.94728C13.3797 0.684273 17.2532 0.684176 20.8987 1.94726C23.1772 2.73669 24.3165 3.46318 25 7Z" fill="black" stroke="black" stroke-width="2" stroke-linecap="round"/>
<path d="M23.0171 30C20.5023 31.6729 13.6369 32.3003 9.11033 30C8.86206 31.9867 9.11037 34.7184 9.11037 34.7184C10.8487 35.7117 22.7988 36.0253 23.0171 34.47C23.2354 32.9147 23.2654 31.7383 23.0171 30Z" fill="black" stroke="black" stroke-width="2" stroke-linecap="round"/>
<path d="M9.10073 8.39465C6.75849 8.77992 5.8039 11.2091 5.63906 12.6163C5.31908 15.348 5.39187 21.0597 5.63906 22.053C6.35848 24.9441 9.10073 27.5163 12.5624 28.758C15 29.5 16.5 29.5 18.9912 28.758C22.2057 28.013 25.2356 24.9655 25.9146 21.5563C26.4092 19.073 26.4092 15.0996 25.9146 11.8713C25.5235 9.31869 23.6068 8.47742 22.4529 8.39465C18.9912 7.50002 11.5 7.99999 9.10073 8.39465Z" fill="black" stroke="black"/>
<circle cx="11.3855" cy="15.348" r="1.49" fill="#C4C4C4"/>
<circle cx="20.3255" cy="15.348" r="1.49" fill="#C4C4C4"/>
<path d="M11.3855 20.0663C13.8688 22.3013 18.3388 22.053 20.5738 20.0663" stroke="white" stroke-width="3" stroke-linecap="round"/>
</svg>
