<svg width="24" height="35" viewBox="0 0 24 35" fill="none" xmlns="http://www.w3.org/2000/svg">
<path d="M23 6.60217H1C0.447715 6.60217 0 7.04989 0 7.60217V34C0 34.5523 0.447716 35 1 35H23C23.5523 35 24 34.5523 24 34V7.60217C24 7.04989 23.5523 6.60217 23 6.60217Z" fill="#FF8000"/>
<path d="M7.89622 9.03658C7.89622 9.14857 7.86254 9.25805 7.79943 9.35116C7.73633 9.44428 7.64665 9.51686 7.54171 9.55972C7.43678 9.60257 7.32131 9.61379 7.20992 9.59194C7.09852 9.57009 6.9962 9.51616 6.91589 9.43697C6.83557 9.35778 6.78087 9.25689 6.75871 9.14705C6.73656 9.03721 6.74793 8.92335 6.7914 8.81989C6.83486 8.71642 6.90847 8.62798 7.00291 8.56577C7.09735 8.50355 7.20838 8.47034 7.32196 8.47034C7.4741 8.47086 7.61985 8.53069 7.72743 8.63676C7.83501 8.74284 7.89569 8.88656 7.89622 9.03658Z" fill="white"/>
<path d="M16.9126 9.03658C16.913 9.14914 16.8795 9.25927 16.8163 9.35302C16.7531 9.44677 16.6631 9.51992 16.5578 9.56317C16.4524 9.60643 16.3363 9.61785 16.2244 9.59599C16.1124 9.57412 16.0095 9.51996 15.9288 9.44037C15.8481 9.36079 15.7932 9.25935 15.771 9.14894C15.7488 9.03853 15.7604 8.92411 15.8043 8.8202C15.8481 8.71628 15.9223 8.62756 16.0174 8.56527C16.1125 8.50299 16.2242 8.46995 16.3383 8.47034C16.4905 8.47087 16.6362 8.53069 16.7438 8.63677C16.8514 8.74284 16.9121 8.88657 16.9126 9.03658Z" fill="white"/>
<path d="M16.3504 9.43744C16.2386 9.43744 16.1315 9.39381 16.0523 9.3161C15.9731 9.23838 15.9283 9.1329 15.9278 9.02273V4.95935C15.9278 3.89066 15.4972 2.86574 14.7308 2.11007C13.9644 1.35439 12.925 0.929859 11.8412 0.929859C10.7573 0.929859 9.71787 1.35439 8.95148 2.11007C8.18509 2.86574 7.75454 3.89066 7.75454 4.95935V9.02273C7.75454 9.13272 7.71024 9.2382 7.63136 9.31597C7.55248 9.39375 7.44551 9.43744 7.33396 9.43744C7.22241 9.43744 7.11542 9.39375 7.03655 9.31597C6.95767 9.2382 6.91336 9.13272 6.91336 9.02273V4.95935C6.90008 4.31285 7.01775 3.67024 7.25948 3.06914C7.50121 2.46805 7.86214 1.92055 8.32114 1.45871C8.78014 0.996867 9.32798 0.629965 9.93258 0.37949C10.5372 0.129015 11.1864 0 11.8422 0C12.498 0 13.1472 0.129015 13.7518 0.37949C14.3564 0.629965 14.9042 0.996867 15.3632 1.45871C15.8222 1.92055 16.1831 2.46805 16.4249 3.06914C16.6666 3.67024 16.7843 4.31285 16.771 4.95935V9.02273C16.771 9.13272 16.7267 9.2382 16.6478 9.31597C16.5689 9.39375 16.4619 9.43744 16.3504 9.43744Z" fill="#414143"/>
<path d="M17.0669 17.5508C15.8327 17.5504 14.6448 18.0201 13.7445 18.8643C12.8443 19.7085 12.2994 20.8639 12.2206 22.0955H21.9089C21.8301 20.8646 21.2858 19.7099 20.3865 18.8658C19.4871 18.0217 18.3003 17.5515 17.0669 17.5508Z" fill="white"/>
<path d="M12.2206 22.6477C12.2843 23.8895 12.8224 25.0594 13.7239 25.9158C14.6254 26.7722 15.8213 27.2497 17.0647 27.2497C18.3081 27.2497 19.5041 26.7722 20.4056 25.9158C21.307 25.0594 21.8452 23.8895 21.9089 22.6477H12.2206Z" fill="white"/>
<path d="M8.12183 14C7.29348 14.0011 6.49944 14.331 5.91411 14.9171C5.32877 15.5032 5 16.2977 5 17.1261V26.5383C5.02978 27.3447 5.37105 28.1081 5.95206 28.668C6.53306 29.228 7.30855 29.5408 8.11546 29.5408C8.92238 29.5408 9.69786 29.228 10.2789 28.668C10.8599 28.1081 11.2011 27.3447 11.2309 26.5383V17.1261C11.2321 16.2996 10.9054 15.5064 10.3226 14.9204C9.73975 14.3344 8.94832 14.0034 8.12183 14ZM10.5683 21.9936H5.67109V17.2195C5.69741 16.5878 5.96689 15.9906 6.42322 15.5529C6.87955 15.1152 7.48739 14.8708 8.11971 14.8708C8.75203 14.8708 9.35988 15.1152 9.8162 15.5529C10.2725 15.9906 10.542 16.5878 10.5683 17.2195V21.9936Z" fill="white"/>
</svg>
