<svg width="236" height="124" viewBox="0 0 236 124" fill="none" xmlns="http://www.w3.org/2000/svg">
<path d="M6.38 116V101.007L0.58 101.297V95.468H18.705V101.297L12.76 101.007V111.36L13.079 114.26L12.76 116H6.38ZM22.1839 116.29C20.8885 116.29 19.8349 115.99 19.0229 115.391C18.2302 114.772 17.8339 113.699 17.8339 112.172C17.8339 110.761 18.2979 109.697 19.2259 108.982C20.1732 108.247 21.4492 107.88 23.0539 107.88C23.9239 107.88 24.6199 107.967 25.1419 108.141C25.6639 108.296 26.0602 108.45 26.3309 108.605L26.5339 108.46C26.5339 107.861 26.4275 107.416 26.2149 107.126C26.0022 106.817 25.4899 106.662 24.6779 106.662C23.9625 106.662 23.2279 106.739 22.4739 106.894C21.7392 107.029 21.0432 107.213 20.3859 107.445C19.7285 107.658 19.1679 107.89 18.7039 108.141V102.921C19.0132 102.824 19.5062 102.708 20.1829 102.573C20.8595 102.438 21.6715 102.322 22.6189 102.225C23.5662 102.109 24.5812 102.051 25.6639 102.051C27.4812 102.051 28.9215 102.273 29.9849 102.718C31.0482 103.143 31.8022 103.772 32.2469 104.603C32.7109 105.415 32.9429 106.391 32.9429 107.532V111.389L33.5229 114.318L32.9429 116.029H26.8239V114.608L26.5339 114.463C26.2245 114.908 25.6929 115.323 24.9389 115.71C24.2042 116.097 23.2859 116.29 22.1839 116.29ZM25.4609 112.491C25.7509 112.491 25.9925 112.443 26.1859 112.346C26.3792 112.249 26.4952 112.191 26.5339 112.172V111.534C26.5339 111.244 26.4469 110.993 26.2729 110.78C26.0989 110.567 25.8379 110.461 25.4899 110.461C25.1805 110.461 24.8905 110.548 24.6199 110.722C24.3492 110.877 24.2139 111.157 24.2139 111.563C24.2139 112.182 24.6295 112.491 25.4609 112.491ZM35.9509 116V107.271L35.3709 104.081L36.2699 102.312H41.7509V103.559L42.0119 103.733C42.2246 103.54 42.5146 103.317 42.8819 103.066C43.2686 102.795 43.7326 102.554 44.2739 102.341C44.8153 102.128 45.4243 102.022 46.1009 102.022C47.6863 102.022 48.8559 102.515 49.6099 103.501C50.3639 104.487 50.7409 105.869 50.7409 107.648V111.36L51.3209 114.26L50.7409 116H44.3319V108.663C44.3319 108.083 44.1966 107.658 43.9259 107.387C43.6746 107.097 43.2396 106.952 42.6209 106.952L42.3309 107.242V116H35.9509ZM56.6934 123.047L51.4444 121.307L52.6044 116.406L58.4044 117.566C59.0811 117.566 59.5644 117.421 59.8544 117.131C60.1637 116.841 60.3764 116.454 60.4924 115.971H56.9254L53.1554 106.053L52.6044 102.283H59.2744L60.8694 111.273H61.4494L63.0444 102.283H69.7144C69.7144 102.283 69.6371 102.592 69.4824 103.211C69.3471 103.81 69.1537 104.613 68.9024 105.618C68.6511 106.623 68.3611 107.735 68.0324 108.953C67.7037 110.152 67.3654 111.37 67.0174 112.607C66.6694 113.825 66.3214 114.946 65.9734 115.971C65.1807 118.368 64.0111 120.147 62.4644 121.307C60.9177 122.467 58.9941 123.047 56.6934 123.047ZM75.2278 116.29C73.9325 116.29 72.8788 115.99 72.0668 115.391C71.2741 114.772 70.8778 113.699 70.8778 112.172C70.8778 110.761 71.3418 109.697 72.2698 108.982C73.2171 108.247 74.4931 107.88 76.0978 107.88C76.9678 107.88 77.6638 107.967 78.1858 108.141C78.7078 108.296 79.1041 108.45 79.3748 108.605L79.5778 108.46C79.5778 107.861 79.4715 107.416 79.2588 107.126C79.0461 106.817 78.5338 106.662 77.7218 106.662C77.0065 106.662 76.2718 106.739 75.5178 106.894C74.7831 107.029 74.0871 107.213 73.4298 107.445C72.7725 107.658 72.2118 107.89 71.7478 108.141V102.921C72.0571 102.824 72.5501 102.708 73.2268 102.573C73.9035 102.438 74.7155 102.322 75.6628 102.225C76.6101 102.109 77.6251 102.051 78.7078 102.051C80.5251 102.051 81.9655 102.273 83.0288 102.718C84.0921 103.143 84.8461 103.772 85.2908 104.603C85.7548 105.415 85.9868 106.391 85.9868 107.532V111.389L86.5668 114.318L85.9868 116.029H79.8678V114.608L79.5778 114.463C79.2685 114.908 78.7368 115.323 77.9828 115.71C77.2481 116.097 76.3298 116.29 75.2278 116.29ZM78.5048 112.491C78.7948 112.491 79.0365 112.443 79.2298 112.346C79.4231 112.249 79.5391 112.191 79.5778 112.172V111.534C79.5778 111.244 79.4908 110.993 79.3168 110.78C79.1428 110.567 78.8818 110.461 78.5338 110.461C78.2245 110.461 77.9345 110.548 77.6638 110.722C77.3931 110.877 77.2578 111.157 77.2578 111.563C77.2578 112.182 77.6735 112.491 78.5048 112.491ZM96.5417 116V100.137L95.9617 97.237L96.5417 95.468H106.373C107.745 95.468 109.07 95.6033 110.346 95.874C111.641 96.1253 112.791 96.6087 113.797 97.324C114.821 98.0393 115.633 99.064 116.233 100.398C116.832 101.732 117.132 103.462 117.132 105.589C117.132 107.716 116.822 109.465 116.204 110.838C115.604 112.191 114.792 113.245 113.768 113.999C112.743 114.753 111.593 115.275 110.317 115.565C109.041 115.855 107.726 116 106.373 116H96.5417ZM102.98 110.49H105.184C106.324 110.49 107.281 110.364 108.055 110.113C108.847 109.862 109.447 109.388 109.853 108.692C110.259 107.977 110.462 106.942 110.462 105.589C110.462 104.216 110.249 103.211 109.824 102.573C109.418 101.916 108.818 101.49 108.026 101.297C107.252 101.084 106.305 100.978 105.184 100.978H102.98V110.49ZM126.588 116.29C124.229 116.29 122.354 115.729 120.962 114.608C119.57 113.487 118.874 111.669 118.874 109.156C118.874 106.623 119.57 104.806 120.962 103.704C122.354 102.583 124.229 102.022 126.588 102.022C129.024 102.022 130.909 102.583 132.243 103.704C133.577 104.806 134.244 106.623 134.244 109.156C134.244 111.669 133.577 113.487 132.243 114.608C130.909 115.729 129.024 116.29 126.588 116.29ZM126.588 111.65C126.955 111.65 127.255 111.505 127.487 111.215C127.719 110.906 127.835 110.219 127.835 109.156C127.835 108.073 127.719 107.387 127.487 107.097C127.274 106.807 126.975 106.662 126.588 106.662C126.221 106.662 125.911 106.807 125.66 107.097C125.409 107.387 125.283 108.073 125.283 109.156C125.283 110.219 125.409 110.906 125.66 111.215C125.911 111.505 126.221 111.65 126.588 111.65ZM136.602 116V100.108L135.993 97.208L136.602 95.468H143.04V100.108L142.721 107.619H143.272L144.896 102.312H151.972V104.052L148.753 108.46L150.899 111.36L153.625 114.289V116H146.839L144.142 111.215L143.04 111.505V116H136.602ZM161.548 116.29C159.847 116.29 158.6 115.942 157.807 115.246C157.014 114.55 156.618 113.535 156.618 112.201V106.749H154.211V103.124L156.328 101.703L158.387 98.107H162.969V102.312H167.319V106.952H162.969V111.418L167.319 111.389V115.42C167.319 115.42 167.145 115.468 166.797 115.565C166.449 115.642 165.985 115.739 165.405 115.855C164.844 115.971 164.226 116.068 163.549 116.145C162.872 116.242 162.205 116.29 161.548 116.29ZM176.749 116.29C175.261 116.29 173.907 116.077 172.689 115.652C171.491 115.207 170.534 114.473 169.818 113.448C169.122 112.404 168.774 110.973 168.774 109.156C168.774 107.88 168.987 106.788 169.412 105.879C169.857 104.97 170.447 104.236 171.181 103.675C171.916 103.095 172.738 102.679 173.646 102.428C174.555 102.157 175.493 102.022 176.459 102.022C177.677 102.022 178.692 102.099 179.504 102.254C180.336 102.409 181.003 102.583 181.505 102.776C182.008 102.969 182.395 103.143 182.665 103.298L184.115 107.909L183.535 109.707H175.125C175.203 110.248 175.483 110.712 175.966 111.099C176.45 111.466 177.291 111.65 178.489 111.65C179.63 111.65 180.577 111.524 181.331 111.273C182.085 111.022 182.627 110.828 182.955 110.693V115.159C182.569 115.372 182.037 115.565 181.36 115.739C180.684 115.913 179.939 116.048 179.127 116.145C178.335 116.242 177.542 116.29 176.749 116.29ZM175.038 107.822L177.996 107.271L177.735 106.343C177.465 106.188 177.136 106.111 176.749 106.111C176.111 106.111 175.657 106.285 175.386 106.633C175.135 106.981 175.019 107.377 175.038 107.822ZM186.304 116V106.923L185.695 104.023L186.304 102.283H191.408L191.988 102.95C191.988 102.95 192.094 102.873 192.307 102.718C192.539 102.544 192.858 102.38 193.264 102.225C193.67 102.07 194.144 101.993 194.685 101.993C195.072 101.993 195.458 102.022 195.845 102.08C196.232 102.138 196.531 102.215 196.744 102.312L199.789 105.067L197.324 109.069L193.496 106.894L192.626 107.184V116H186.304Z" fill="white"/>
<path fill-rule="evenodd" clip-rule="evenodd" d="M236 101.714C235.998 100.243 235.403 98.8337 234.345 97.7936C233.288 96.7536 231.854 96.1678 230.357 96.1646C228.941 96.178 227.58 96.7101 226.541 97.6569C225.502 98.6037 224.86 99.8972 224.74 101.285C224.62 102.672 225.031 104.053 225.892 105.159C226.753 106.264 228.003 107.014 229.398 107.263V113.093C229.398 115.275 228.515 117.368 226.945 118.911C225.375 120.454 223.245 121.321 221.025 121.321C218.804 121.321 216.675 120.454 215.105 118.911C213.534 117.368 212.652 115.275 212.652 113.093L212.557 106.417C214.759 106.136 216.957 104.817 218.873 102.653C219.012 102.503 219.11 102.321 219.161 102.125C219.211 101.928 219.21 101.722 219.159 101.526C221.652 98.3286 223.181 93.9107 223.181 90.5257C223.181 85.2585 220.788 84.695 216.862 83.7559C216.727 83.5241 216.533 83.3319 216.297 83.199C216.062 83.0662 215.795 82.9977 215.524 83.0005C215.13 82.9905 214.749 83.1332 214.462 83.3977C214.175 83.6621 214.005 84.027 213.99 84.4133C213.988 84.6115 214.026 84.8083 214.103 84.9918C214.179 85.1754 214.292 85.3421 214.435 85.4821C214.578 85.6221 214.747 85.7326 214.934 85.8071C215.122 85.8816 215.322 85.9186 215.524 85.9159C215.679 85.9276 215.835 85.9088 215.983 85.8604C216.13 85.812 216.267 85.7351 216.384 85.6341H216.479C220.31 86.4793 221.361 86.6672 221.361 90.5339C221.361 93.4493 219.924 97.4752 217.722 100.407C217.322 100.423 216.945 100.591 216.67 100.877C215.619 102.101 213.799 103.698 211.684 103.698C209.482 103.698 207.762 102.097 206.611 100.877C206.361 100.612 206.021 100.445 205.655 100.407C203.357 97.4916 201.916 93.4656 201.916 90.5339C201.916 86.6753 202.967 86.4875 206.794 85.6341H206.889C207.007 85.735 207.144 85.8118 207.293 85.8602C207.441 85.9086 207.598 85.9275 207.753 85.9159C207.955 85.9186 208.155 85.8816 208.342 85.8071C208.529 85.7325 208.698 85.622 208.841 85.4819C208.983 85.3418 209.096 85.1751 209.172 84.9915C209.248 84.808 209.285 84.6113 209.283 84.4133C209.268 84.0273 209.1 83.6624 208.814 83.3979C208.527 83.1334 208.146 82.9906 207.753 83.0005C207.482 82.9978 207.214 83.0664 206.978 83.1991C206.742 83.3319 206.547 83.5241 206.411 83.7559C202.489 84.695 200 85.2585 200 90.5257C200 93.9107 201.625 98.3286 204.118 101.526C204.118 101.995 204.118 102.371 204.404 102.653C206.316 104.817 208.518 106.136 210.72 106.417V113.093C210.774 115.739 211.882 118.258 213.805 120.11C215.728 121.963 218.313 123 221.006 123C223.699 123 226.284 121.963 228.208 120.11C230.131 118.258 231.238 115.739 231.292 113.093V107.263C232.616 107.033 233.814 106.35 234.672 105.333C235.53 104.317 235.994 103.034 235.979 101.714H236ZM230.357 105.499C229.355 105.499 228.393 105.107 227.684 104.41C226.975 103.714 226.576 102.768 226.576 101.783C226.576 100.798 226.975 99.8524 227.684 99.1556C228.393 98.4588 229.355 98.0673 230.357 98.0673C231.36 98.0673 232.322 98.4588 233.031 99.1556C233.74 99.8524 234.139 100.798 234.139 101.783C234.139 102.768 233.74 103.714 233.031 104.41C232.322 105.107 231.36 105.499 230.357 105.499Z" fill="white"/>
<path d="M135.74 0.00179488C123.513 0.158548 117.778 7.31696 116.439 10.8766C109.856 0.295708 97.4331 -0.520717 92.0447 0.393678C86.8522 0.850875 76.8868 4.80237 72.2545 19.498C69.4134 28.5113 71.5186 38.8042 77.349 48.8893C84.5989 61.4296 105.695 78.8684 116.537 87C126.432 80.24 142.206 66.916 152.003 53.7878C157.61 46.2749 161.349 39.4253 161.506 31.7444C161.663 24.0635 159.285 17.4406 158.077 15.0893C155.726 9.99483 147.966 -0.154959 135.74 0.00179488Z" fill="white"/>
<path d="M85 41.7086H101.877L107.474 31.1391L116.5 53.5L130 22.5L134.961 40.6755L150 40.1987" stroke="#20BEB8" stroke-width="3" stroke-linecap="round"/>
</svg>
