<svg width="152" height="84" viewBox="0 0 152 84" fill="none" xmlns="http://www.w3.org/2000/svg">
<path fill-rule="evenodd" clip-rule="evenodd" d="M101 25.7311C100.997 23.7095 100.154 21.7713 98.6556 20.3413C97.1573 18.9112 95.1259 18.1057 93.0062 18.1013C90.9991 18.1197 89.0714 18.8513 87.5997 20.1532C86.1281 21.4551 85.2184 23.2336 85.0484 25.1412C84.8784 27.0487 85.4604 28.9482 86.6806 30.4683C87.9007 31.9883 89.6714 33.0198 91.6465 33.361V41.3783C91.6465 44.3786 90.3968 47.2561 88.1724 49.3777C85.948 51.4993 82.9311 52.6912 79.7853 52.6912C76.6395 52.6912 73.6226 51.4993 71.3982 49.3777C69.1738 47.2561 67.9242 44.3786 67.9242 41.3783L67.7888 32.1988C70.9086 31.8115 74.0225 29.998 76.7362 27.0224C76.933 26.8164 77.0732 26.5669 77.1441 26.2965C77.2149 26.0261 77.2144 25.7431 77.1423 25.4729C80.6742 21.0769 82.8404 15.0022 82.8404 10.3479C82.8404 3.1054 79.4498 2.33062 73.8871 1.03932C73.6971 0.720672 73.4211 0.456318 73.0878 0.273685C72.7545 0.0910525 72.3761 -0.00321255 71.9917 0.000670614C71.4346 -0.0130136 70.8942 0.183189 70.4876 0.546777C70.0811 0.910366 69.8411 1.41207 69.8196 1.94323C69.8164 2.21587 69.8705 2.48635 69.9786 2.73875C70.0867 2.99115 70.2467 3.22037 70.4491 3.4129C70.6515 3.60543 70.8923 3.75738 71.1572 3.85981C71.4221 3.96224 71.7059 4.01306 71.9917 4.0093C72.2116 4.02548 72.4327 3.99955 72.642 3.93302C72.8512 3.86649 73.0444 3.76072 73.2102 3.62192H73.3456C78.7729 4.78408 80.2621 5.04234 80.2621 10.3591C80.2621 14.3677 78.2254 19.9035 75.1056 23.9346C74.5399 23.9564 74.0056 24.1881 73.6164 24.5802C72.1271 26.2645 69.5488 28.4597 66.5526 28.4597C63.4328 28.4597 60.9958 26.2589 59.3653 24.5802C59.0107 24.2159 58.5297 23.9865 58.0114 23.9346C54.7562 19.9259 52.7137 14.3902 52.7137 10.3591C52.7137 5.05357 54.2029 4.79531 59.6243 3.62192H59.7597C59.9267 3.76062 60.121 3.86628 60.3311 3.93278C60.5413 3.99928 60.7633 4.02529 60.9841 4.0093C61.2696 4.01308 61.5531 3.96223 61.8177 3.85973C62.0823 3.75724 62.3227 3.60519 62.5246 3.41258C62.7266 3.21997 62.886 2.99071 62.9935 2.73833C63.1009 2.48596 63.1543 2.2156 63.1503 1.94323C63.1303 1.41257 62.8916 0.910863 62.486 0.547129C62.0804 0.183394 61.5406 -0.0129834 60.9841 0.000670614C60.599 -0.00303925 60.2198 0.0912488 59.8856 0.273814C59.5514 0.456379 59.2743 0.720623 59.0828 1.03932C53.526 2.33062 50 3.1054 50 10.3479C50 15.0022 52.3016 21.0769 55.8335 25.4729C55.8335 26.1185 55.8335 26.635 56.2396 27.0224C58.9474 29.998 62.0672 31.8115 65.187 32.1988V41.3783C65.2636 45.016 66.8326 48.48 69.557 51.0267C72.2814 53.5735 75.9441 55 79.7588 55C83.5736 55 87.2363 53.5735 89.9607 51.0267C92.6851 48.48 94.254 45.016 94.3307 41.3783V33.361C96.2058 33.0458 97.9027 32.1057 99.1188 30.7083C100.335 29.3109 100.991 27.5471 100.971 25.7311H101ZM93.0062 30.9356C91.5856 30.9356 90.2231 30.3973 89.2185 29.4392C88.2139 28.4811 87.6496 27.1816 87.6496 25.8266C87.6496 24.4716 88.2139 23.1721 89.2185 22.2139C90.2231 21.2558 91.5856 20.7175 93.0062 20.7175C94.4269 20.7175 95.7894 21.2558 96.794 22.2139C97.7985 23.1721 98.3629 24.4716 98.3629 25.8266C98.3629 27.1816 97.7985 28.4811 96.794 29.4392C95.7894 30.3973 94.4269 30.9356 93.0062 30.9356Z" fill="white"/>
<path d="M4.84 78V66.626L0.44 66.846V62.424H14.19V66.846L9.68 66.626V74.48L9.922 76.68L9.68 78H4.84ZM16.8291 78.22C15.8465 78.22 15.0471 77.9927 14.4311 77.538C13.8298 77.0687 13.5291 76.2547 13.5291 75.096C13.5291 74.0253 13.8811 73.2187 14.5851 72.676C15.3038 72.1187 16.2718 71.84 17.4891 71.84C18.1491 71.84 18.6771 71.906 19.0731 72.038C19.4691 72.1553 19.7698 72.2727 19.9751 72.39L20.1291 72.28C20.1291 71.8253 20.0485 71.488 19.8871 71.268C19.7258 71.0333 19.3371 70.916 18.7211 70.916C18.1785 70.916 17.6211 70.9747 17.0491 71.092C16.4918 71.1947 15.9638 71.334 15.4651 71.51C14.9665 71.6713 14.5411 71.8473 14.1891 72.038V68.078C14.4238 68.0047 14.7978 67.9167 15.3111 67.814C15.8245 67.7113 16.4405 67.6233 17.1591 67.55C17.8778 67.462 18.6478 67.418 19.4691 67.418C20.8478 67.418 21.9405 67.5867 22.7471 67.924C23.5538 68.2467 24.1258 68.7233 24.4631 69.354C24.8151 69.97 24.9911 70.7107 24.9911 71.576V74.502L25.4311 76.724L24.9911 78.022H20.3491V76.944L20.1291 76.834C19.8945 77.1713 19.4911 77.4867 18.9191 77.78C18.3618 78.0733 17.6651 78.22 16.8291 78.22ZM19.3151 75.338C19.5351 75.338 19.7185 75.3013 19.8651 75.228C20.0118 75.1547 20.0998 75.1107 20.1291 75.096V74.612C20.1291 74.392 20.0631 74.2013 19.9311 74.04C19.7991 73.8787 19.6011 73.798 19.3371 73.798C19.1025 73.798 18.8825 73.864 18.6771 73.996C18.4718 74.1133 18.3691 74.326 18.3691 74.634C18.3691 75.1033 18.6845 75.338 19.3151 75.338ZM27.2731 78V71.378L26.8331 68.958L27.5151 67.616H31.6731V68.562L31.8711 68.694C32.0325 68.5473 32.2525 68.3787 32.5311 68.188C32.8245 67.9827 33.1765 67.7993 33.5871 67.638C33.9978 67.4767 34.4598 67.396 34.9731 67.396C36.1758 67.396 37.0631 67.77 37.6351 68.518C38.2071 69.266 38.4931 70.3147 38.4931 71.664V74.48L38.9331 76.68L38.4931 78H33.6311V72.434C33.6311 71.994 33.5285 71.6713 33.3231 71.466C33.1325 71.246 32.8025 71.136 32.3331 71.136L32.1131 71.356V78H27.2731ZM43.0088 83.346L39.0268 82.026L39.9068 78.308L44.3068 79.188C44.8201 79.188 45.1868 79.078 45.4068 78.858C45.6415 78.638 45.8028 78.3447 45.8908 77.978H43.1848L40.3248 70.454L39.9068 67.594H44.9668L46.1768 74.414H46.6168L47.8268 67.594H52.8868C52.8868 67.594 52.8281 67.8287 52.7108 68.298C52.6081 68.7527 52.4615 69.3613 52.2708 70.124C52.0801 70.8867 51.8601 71.73 51.6108 72.654C51.3615 73.5633 51.1048 74.4873 50.8408 75.426C50.5768 76.35 50.3128 77.2007 50.0488 77.978C49.4475 79.7967 48.5601 81.146 47.3868 82.026C46.2135 82.906 44.7541 83.346 43.0088 83.346ZM57.0694 78.22C56.0867 78.22 55.2874 77.9927 54.6714 77.538C54.07 77.0687 53.7694 76.2547 53.7694 75.096C53.7694 74.0253 54.1214 73.2187 54.8254 72.676C55.544 72.1187 56.512 71.84 57.7294 71.84C58.3894 71.84 58.9174 71.906 59.3134 72.038C59.7094 72.1553 60.01 72.2727 60.2154 72.39L60.3694 72.28C60.3694 71.8253 60.2887 71.488 60.1274 71.268C59.966 71.0333 59.5774 70.916 58.9614 70.916C58.4187 70.916 57.8614 70.9747 57.2894 71.092C56.732 71.1947 56.204 71.334 55.7054 71.51C55.2067 71.6713 54.7814 71.8473 54.4294 72.038V68.078C54.664 68.0047 55.038 67.9167 55.5514 67.814C56.0647 67.7113 56.6807 67.6233 57.3994 67.55C58.118 67.462 58.888 67.418 59.7094 67.418C61.088 67.418 62.1807 67.5867 62.9874 67.924C63.794 68.2467 64.366 68.7233 64.7034 69.354C65.0554 69.97 65.2314 70.7107 65.2314 71.576V74.502L65.6714 76.724L65.2314 78.022H60.5894V76.944L60.3694 76.834C60.1347 77.1713 59.7314 77.4867 59.1594 77.78C58.602 78.0733 57.9054 78.22 57.0694 78.22ZM59.5554 75.338C59.7754 75.338 59.9587 75.3013 60.1054 75.228C60.252 75.1547 60.34 75.1107 60.3694 75.096V74.612C60.3694 74.392 60.3034 74.2013 60.1714 74.04C60.0394 73.8787 59.8414 73.798 59.5774 73.798C59.3427 73.798 59.1227 73.864 58.9174 73.996C58.712 74.1133 58.6094 74.326 58.6094 74.634C58.6094 75.1033 58.9247 75.338 59.5554 75.338ZM73.2385 78V65.966L72.7985 63.766L73.2385 62.424H80.6965C81.7378 62.424 82.7425 62.5267 83.7105 62.732C84.6932 62.9227 85.5658 63.2893 86.3285 63.832C87.1058 64.3747 87.7219 65.152 88.1765 66.164C88.6312 67.176 88.8585 68.4887 88.8585 70.102C88.8585 71.7153 88.6238 73.0427 88.1545 74.084C87.6998 75.1107 87.0838 75.91 86.3065 76.482C85.5292 77.054 84.6565 77.45 83.6885 77.67C82.7205 77.89 81.7232 78 80.6965 78H73.2385ZM78.1225 73.82H79.7945C80.6598 73.82 81.3858 73.7247 81.9725 73.534C82.5738 73.3433 83.0285 72.984 83.3365 72.456C83.6445 71.9133 83.7985 71.1287 83.7985 70.102C83.7985 69.0607 83.6372 68.298 83.3145 67.814C83.0065 67.3153 82.5518 66.9927 81.9505 66.846C81.3638 66.6847 80.6452 66.604 79.7945 66.604H78.1225V73.82ZM96.0322 78.22C94.2429 78.22 92.8202 77.7947 91.7642 76.944C90.7082 76.0933 90.1802 74.7147 90.1802 72.808C90.1802 70.8867 90.7082 69.508 91.7642 68.672C92.8202 67.8213 94.2429 67.396 96.0322 67.396C97.8802 67.396 99.3102 67.8213 100.322 68.672C101.334 69.508 101.84 70.8867 101.84 72.808C101.84 74.7147 101.334 76.0933 100.322 76.944C99.3102 77.7947 97.8802 78.22 96.0322 78.22ZM96.0322 74.7C96.3109 74.7 96.5382 74.59 96.7142 74.37C96.8902 74.1353 96.9782 73.6147 96.9782 72.808C96.9782 71.9867 96.8902 71.466 96.7142 71.246C96.5529 71.026 96.3256 70.916 96.0322 70.916C95.7536 70.916 95.5189 71.026 95.3282 71.246C95.1376 71.466 95.0422 71.9867 95.0422 72.808C95.0422 73.6147 95.1376 74.1353 95.3282 74.37C95.5189 74.59 95.7536 74.7 96.0322 74.7ZM103.629 78V65.944L103.167 63.744L103.629 62.424H108.513V65.944L108.271 71.642H108.689L109.921 67.616H115.289V68.936L112.847 72.28L114.475 74.48L116.543 76.702V78H111.395L109.349 74.37L108.513 74.59V78H103.629ZM122.554 78.22C121.263 78.22 120.317 77.956 119.716 77.428C119.114 76.9 118.814 76.13 118.814 75.118V70.982H116.988V68.232L118.594 67.154L120.156 64.426H123.632V67.616H126.932V71.136H123.632V74.524L126.932 74.502V77.56C126.932 77.56 126.8 77.5967 126.536 77.67C126.272 77.7287 125.92 77.802 125.48 77.89C125.054 77.978 124.585 78.0513 124.072 78.11C123.558 78.1833 123.052 78.22 122.554 78.22ZM134.086 78.22C132.956 78.22 131.93 78.0587 131.006 77.736C130.096 77.3987 129.37 76.8413 128.828 76.064C128.3 75.272 128.036 74.1867 128.036 72.808C128.036 71.84 128.197 71.0113 128.52 70.322C128.857 69.6327 129.304 69.0753 129.862 68.65C130.419 68.21 131.042 67.8947 131.732 67.704C132.421 67.4987 133.132 67.396 133.866 67.396C134.79 67.396 135.56 67.4547 136.176 67.572C136.806 67.6893 137.312 67.8213 137.694 67.968C138.075 68.1147 138.368 68.2467 138.574 68.364L139.674 71.862L139.234 73.226H132.854C132.912 73.6367 133.125 73.9887 133.492 74.282C133.858 74.5607 134.496 74.7 135.406 74.7C136.271 74.7 136.99 74.6047 137.562 74.414C138.134 74.2233 138.544 74.0767 138.794 73.974V77.362C138.5 77.5233 138.097 77.67 137.584 77.802C137.07 77.934 136.506 78.0367 135.89 78.11C135.288 78.1833 134.687 78.22 134.086 78.22ZM132.788 71.796L135.032 71.378L134.834 70.674C134.628 70.5567 134.379 70.498 134.086 70.498C133.602 70.498 133.257 70.63 133.052 70.894C132.861 71.158 132.773 71.4587 132.788 71.796ZM141.334 78V71.114L140.872 68.914L141.334 67.594H145.206L145.646 68.1C145.646 68.1 145.727 68.0413 145.888 67.924C146.064 67.792 146.306 67.6673 146.614 67.55C146.922 67.4327 147.282 67.374 147.692 67.374C147.986 67.374 148.279 67.396 148.572 67.44C148.866 67.484 149.093 67.5427 149.254 67.616L151.564 69.706L149.694 72.742L146.79 71.092L146.13 71.312V78H141.334Z" fill="white"/>
</svg>
