<svg width="17" height="21" viewBox="0 0 17 21" fill="none" xmlns="http://www.w3.org/2000/svg">
<path d="M8.49734 21C7.93393 21 7.3936 20.7788 6.99521 20.3849C6.59682 19.9911 6.37301 19.457 6.37301 18.9H10.6217C10.6217 19.457 10.3979 19.9911 9.99947 20.3849C9.60108 20.7788 9.06075 21 8.49734 21ZM16.9947 17.85H0V15.75L2.12434 14.7V8.925C2.06838 7.44358 2.4068 5.97359 3.10578 4.662C3.44975 4.06064 3.9188 3.5382 4.48198 3.12916C5.04516 2.72012 5.68967 2.43377 6.37301 2.289V4.37546e-06H10.2457C9.57277 0.743413 9.15515 1.67828 9.05263 2.67068C8.95011 3.66309 9.16796 4.6621 9.67496 5.52462C10.182 6.38714 10.9521 7.06891 11.8751 7.47225C12.798 7.87559 13.8264 7.97982 14.813 7.77C14.8502 8.14485 14.8682 8.53335 14.8682 8.925V14.7L16.9926 15.75V17.85H16.9947ZM13.8082 6.3C13.3897 6.29931 12.9755 6.21715 12.5892 6.05822C12.2028 5.89928 11.8519 5.66667 11.5565 5.37368C11.2611 5.08069 11.027 4.73305 10.8675 4.35061C10.708 3.96817 10.6263 3.55842 10.627 3.14475C10.6277 2.73109 10.7108 2.32161 10.8716 1.9397C11.0324 1.55779 11.2677 1.21092 11.5641 0.918905C11.8604 0.626888 12.2121 0.39544 12.599 0.237775C12.9858 0.0801095 13.4003 -0.00068507 13.8188 4.37546e-06C14.6639 0.00139677 15.4739 0.334606 16.0704 0.92633C16.667 1.51805 17.0014 2.31982 17 3.15525C16.9986 3.99069 16.6615 4.79135 16.0629 5.3811C15.4644 5.97086 14.6533 6.3014 13.8082 6.3Z" fill="#294956"/>
</svg>
