<svg width="23" height="23" viewBox="0 0 23 23" fill="none" xmlns="http://www.w3.org/2000/svg">
<path d="M16.4137 5.25488C14.735 5.25435 13.1191 5.94945 11.8946 7.19885C10.6701 8.44826 9.92887 10.1582 9.82165 11.9809H23C22.8928 10.1593 22.1524 8.45025 20.9292 7.201C19.7059 5.95176 18.0914 5.25595 16.4137 5.25488V5.25488Z" fill="white"/>
<path d="M9.82165 12.7983C9.90831 14.6361 10.6403 16.3676 11.8665 17.635C13.0927 18.9025 14.7195 19.6092 16.4108 19.6092C18.1022 19.6092 19.7289 18.9025 20.9551 17.635C22.1813 16.3676 22.9133 14.6361 23 12.7983H9.82165Z" fill="white"/>
<path d="M4.24642 0C3.11967 0.00166568 2.03959 0.489835 1.2434 1.35729C0.447206 2.22475 -1.04002e-06 3.40057 0 4.62651V18.5563C0.040506 19.7497 0.504713 20.8796 1.29502 21.7083C2.08532 22.537 3.14016 23 4.23775 23C5.33534 23 6.39019 22.537 7.18049 21.7083C7.9708 20.8796 8.435 19.7497 8.47551 18.5563V4.62651C8.47705 3.40332 8.03271 2.22939 7.23994 1.36211C6.44716 0.49483 5.37064 0.00499146 4.24642 0V0ZM7.57423 11.8303H0.912837V4.76481C0.948636 3.8298 1.3152 2.94604 1.93591 2.29824C2.55662 1.65044 3.38343 1.28873 4.24353 1.28873C5.10363 1.28873 5.93044 1.65044 6.55115 2.29824C7.17186 2.94604 7.53843 3.8298 7.57423 4.76481V11.8303Z" fill="white"/>
</svg>
