<svg width="54" height="33" viewBox="0 0 54 33" fill="none" xmlns="http://www.w3.org/2000/svg">
<path d="M50.8489 0H3.15106C1.41078 0 0 1.38702 0 3.09798V29.0101C0 30.721 1.41078 32.1081 3.15106 32.1081H50.8489C52.5892 32.1081 54 30.721 54 29.0101V3.09798C54 1.38702 52.5892 0 50.8489 0Z" fill="#FAA81F"/>
<path d="M53.9972 5.53833H0V13.3063H53.9972V5.53833Z" fill="#F04E26"/>
<g style="mix-blend-mode:multiply" opacity="0.6">
<path d="M30.7235 23.431V25.9743L24.6993 32.108H3.15104C2.31629 32.1066 1.51622 31.7796 0.926469 31.1988C0.336722 30.6179 0.00549189 29.8308 0.00549316 29.0101V21.8807L3.085 18.853L18.2679 21.3991L15.736 23.431L15.3755 23.7205L13.0363 24.3969L30.7235 23.431Z" fill="#FAA81F"/>
</g>
<g style="mix-blend-mode:multiply" opacity="0.6">
<path d="M48.5098 25.6607L42.037 32.1083H26.0588L36.6073 21.7375L36.6211 21.743L41.616 23.388L43.9332 24.151L48.4685 25.6472L48.5098 25.6607Z" fill="#FAA81F"/>
</g>
<path d="M30.7236 23.4282H3.07959V25.9742H30.7236V23.4282Z" fill="white"/>
<path d="M18.2624 18.853H3.07959V21.3991H18.2624V18.853Z" fill="white"/>
<path d="M47.0467 26.7115C48.9978 25.8582 49.876 23.6115 49.0081 21.6932C48.1402 19.7749 45.855 18.9116 43.9038 19.7648C41.9527 20.6181 41.0745 22.8649 41.9424 24.7832C42.8103 26.7014 45.0956 27.5648 47.0467 26.7115Z" fill="#F04E26"/>
<path d="M41.6457 26.749C43.6214 25.9524 44.5662 23.7319 43.7559 21.7894C42.9456 19.8469 40.687 18.9181 38.7113 19.7147C36.7356 20.5114 35.7908 22.7319 36.6011 24.6744C37.4114 26.6168 39.67 27.5457 41.6457 26.749Z" fill="white"/>
</svg>
