<svg width="23" height="23" viewBox="0 0 23 23" fill="none" xmlns="http://www.w3.org/2000/svg">
<path d="M11.4999 14.65C12.3353 14.65 13.1365 14.3181 13.7272 13.7274C14.318 13.1366 14.6499 12.3354 14.6499 11.5C14.6499 10.6645 14.318 9.86333 13.7272 9.27259C13.1365 8.68185 12.3353 8.34998 11.4999 8.34998C10.6644 8.34998 9.86321 8.68185 9.27247 9.27259C8.68173 9.86333 8.34985 10.6645 8.34985 11.5C8.34985 12.3354 8.68173 13.1366 9.27247 13.7274C9.86321 14.3181 10.6644 14.65 11.4999 14.65Z" fill="#263747"/>
<path d="M19.5031 9.81475L18.3512 7.03225L19.9 5.2L17.8 3.1L15.9782 4.65715L13.1359 3.4885L12.4817 1H10.43L9.76645 3.52105L6.9892 4.6918L5.2 3.1L3.1 5.2L4.62565 7.07845L3.49165 9.8683L1 10.45V12.55L3.52105 13.2377L4.6918 16.015L3.1 17.8L5.2 19.9L7.08055 18.367L9.81685 19.4926L10.45 22H12.55L13.1842 19.4937L15.9677 18.3407C16.4318 18.6725 17.8 19.9 17.8 19.9L19.9 17.8L18.3418 15.9625L19.4947 13.1779L22 12.5269V10.45L19.5031 9.81475Z" fill="#294956" stroke="#294956" stroke-linecap="round" stroke-linejoin="round"/>
<ellipse cx="11.4999" cy="11.5" rx="3.15" ry="3.15" fill="white"/>
</svg>
