<svg width="21" height="18" viewBox="0 0 21 18" fill="none" xmlns="http://www.w3.org/2000/svg">
<path d="M20.7094 9.79624L13.709 17.6699C13.084 18.3729 12.0006 17.8808 12.0006 16.8732V12.3739H6.33365C5.77945 12.3739 5.3336 11.8725 5.3336 11.2491V6.74988C5.3336 6.12654 5.77945 5.62506 6.33365 5.62506H12.0006V1.12581C12.0006 0.122852 13.0798 -0.373941 13.709 0.329067L20.7094 8.20276C21.0969 8.64331 21.0969 9.35569 20.7094 9.79624ZM8.0004 17.4356V15.5609C8.0004 15.2516 7.77539 14.9985 7.50037 14.9985H4.0002C3.26266 14.9985 2.6668 14.3283 2.6668 13.4988V4.50025C2.6668 3.6707 3.26266 3.0005 4.0002 3.0005H7.50037C7.77539 3.0005 8.0004 2.74742 8.0004 2.43809V0.563403C8.0004 0.25408 7.77539 0.000996803 7.50037 0.000996803H4.0002C1.79176 0.000996803 0 2.01629 0 4.50025V13.4988C0 15.9827 1.79176 17.998 4.0002 17.998H7.50037C7.77539 17.998 8.0004 17.7449 8.0004 17.4356Z" fill="#294956"/>
</svg>
